<svg width="16" height="16" viewBox="0 0 16 16" fill="none" xmlns="http://www.w3.org/2000/svg">
<path d="M1.33325 5.08334C1.33325 6.60213 2.56447 7.83334 4.08325 7.83334C4.28718 7.83334 4.38914 7.83334 4.44197 7.85157C4.55251 7.88971 4.61022 7.94742 4.64836 8.05796C4.66659 8.11079 4.66659 8.19355 4.66659 8.35908V12.5833C4.66659 13.1817 5.15161 13.6667 5.74992 13.6667C6.34823 13.6667 6.83325 13.1817 6.83325 12.5833V5.08334C6.83325 3.56456 5.60203 2.33334 4.08325 2.33334C2.56447 2.33334 1.33325 3.56456 1.33325 5.08334Z" stroke="black" stroke-width="1.33" stroke-linecap="round" stroke-linejoin="round"/>
<path d="M14.6666 5.08334C14.6666 6.60213 13.4354 7.83334 11.9166 7.83334C11.7127 7.83334 11.6107 7.83334 11.5579 7.85157C11.4473 7.88971 11.3896 7.94742 11.3515 8.05796C11.3333 8.11079 11.3333 8.19355 11.3333 8.35908V12.5833C11.3333 13.1817 10.8482 13.6667 10.2499 13.6667C9.65161 13.6667 9.16658 13.1817 9.16658 12.5833V5.08334C9.16658 3.56456 10.3978 2.33334 11.9166 2.33334C13.4354 2.33334 14.6666 3.56456 14.6666 5.08334Z" stroke="black" stroke-width="1.33" stroke-linecap="round" stroke-linejoin="round"/>
</svg>
