<svg width="16" height="16" viewBox="0 0 16 16" fill="none" xmlns="http://www.w3.org/2000/svg">
<path d="M3.33331 2L1.33331 4M14.6666 4L12.6666 2M3.99998 12.6667L2.66665 14M12 12.6667L13.3333 14M5.99998 9L7.33331 10.3333L10.3333 7.33333M7.99998 14C9.41447 14 10.771 13.4381 11.7712 12.4379C12.7714 11.4377 13.3333 10.0812 13.3333 8.66667C13.3333 7.25218 12.7714 5.89562 11.7712 4.89543C10.771 3.89524 9.41447 3.33333 7.99998 3.33333C6.58549 3.33333 5.22894 3.89524 4.22874 4.89543C3.22855 5.89562 2.66665 7.25218 2.66665 8.66667C2.66665 10.0812 3.22855 11.4377 4.22874 12.4379C5.22894 13.4381 6.58549 14 7.99998 14Z" stroke="black" stroke-width="1.33" stroke-linecap="round" stroke-linejoin="round"/>
</svg>
