<svg width="16" height="16" viewBox="0 0 16 16" fill="none" xmlns="http://www.w3.org/2000/svg">
<path d="M7.99982 5.99999V9M7.99982 11.3333H8.00648M7.0767 2.59447L1.59344 12.0656C1.2893 12.5909 1.13723 12.8535 1.15971 13.0691C1.17931 13.2572 1.27783 13.428 1.43073 13.5392C1.60604 13.6667 1.90954 13.6667 2.51656 13.6667H13.4831C14.0901 13.6667 14.3936 13.6667 14.5689 13.5392C14.7218 13.428 14.8203 13.2572 14.8399 13.0691C14.8624 12.8535 14.7103 12.5909 14.4062 12.0656L8.92294 2.59447C8.61989 2.07103 8.46837 1.80931 8.27068 1.72141C8.09824 1.64473 7.90139 1.64473 7.72895 1.72141C7.53126 1.80931 7.37974 2.07103 7.0767 2.59447Z" stroke="black" stroke-width="1.33" stroke-linecap="round" stroke-linejoin="round"/>
</svg>
