<svg width="16" height="16" viewBox="0 0 16 16" fill="none" xmlns="http://www.w3.org/2000/svg">
<g clip-path="url(#clip0_7140_51638)">
<path d="M7.99998 5.33333V8.5M7.99998 10.6667H8.00665M1.33331 5.68183V10.3182C1.33331 10.4812 1.33331 10.5628 1.35173 10.6395C1.36806 10.7075 1.395 10.7725 1.43155 10.8322C1.47278 10.8995 1.53043 10.9571 1.64573 11.0724L4.92756 14.3542C5.04286 14.4695 5.10051 14.5272 5.16779 14.5684C5.22744 14.605 5.29247 14.6319 5.36049 14.6482C5.43722 14.6667 5.51875 14.6667 5.68181 14.6667H10.3182C10.4812 14.6667 10.5627 14.6667 10.6395 14.6482C10.7075 14.6319 10.7725 14.605 10.8322 14.5684C10.8994 14.5272 10.9571 14.4695 11.0724 14.3542L14.3542 11.0724C14.4695 10.9571 14.5272 10.8995 14.5684 10.8322C14.605 10.7725 14.6319 10.7075 14.6482 10.6395C14.6666 10.5628 14.6666 10.4812 14.6666 10.3182V5.68183C14.6666 5.51877 14.6666 5.43724 14.6482 5.36051C14.6319 5.29249 14.605 5.22746 14.5684 5.16781C14.5272 5.10053 14.4695 5.04288 14.3542 4.92758L11.0724 1.64575C10.9571 1.53045 10.8994 1.4728 10.8322 1.43157C10.7725 1.39502 10.7075 1.36809 10.6395 1.35175C10.5627 1.33333 10.4812 1.33333 10.3182 1.33333H5.68181C5.51875 1.33333 5.43722 1.33333 5.36049 1.35175C5.29247 1.36809 5.22744 1.39502 5.16779 1.43157C5.10051 1.4728 5.04286 1.53045 4.92756 1.64575L1.64573 4.92758C1.53043 5.04288 1.47278 5.10053 1.43155 5.16781C1.395 5.22746 1.36806 5.29249 1.35173 5.36051C1.33331 5.43724 1.33331 5.51877 1.33331 5.68183Z" stroke="black" stroke-width="1.33" stroke-linecap="round" stroke-linejoin="round"/>
</g>
<defs>
<clipPath id="clip0_7140_51638">
<rect width="16" height="16" fill="white"/>
</clipPath>
</defs>
</svg>
