<svg width="16" height="16" viewBox="0 0 16 16" fill="none" xmlns="http://www.w3.org/2000/svg">
<path d="M10.6667 6.66666C11.2879 6.66666 11.5986 6.66666 11.8436 6.56516C12.1703 6.42984 12.4298 6.17027 12.5652 5.84357C12.6667 5.59854 12.6667 5.28791 12.6667 4.66666C12.6667 4.0454 12.6667 3.73477 12.5652 3.48975C12.4298 3.16304 12.1703 2.90348 11.8436 2.76815C11.5986 2.66666 11.2879 2.66666 10.6667 2.66666L5.33333 2.66666C4.71208 2.66666 4.40145 2.66666 4.15642 2.76815C3.82972 2.90348 3.57015 3.16304 3.43483 3.48975C3.33333 3.73477 3.33333 4.0454 3.33333 4.66666C3.33333 5.28791 3.33333 5.59854 3.43483 5.84357C3.57015 6.17027 3.82972 6.42984 4.15642 6.56516C4.40145 6.66666 4.71208 6.66666 5.33333 6.66666L10.6667 6.66666Z" stroke="black" stroke-width="1.33" stroke-linecap="round" stroke-linejoin="round"/>
<path d="M12 13.3333C12.6213 13.3333 12.9319 13.3333 13.1769 13.2318C13.5036 13.0965 13.7632 12.8369 13.8985 12.5102C14 12.2652 14 11.9546 14 11.3333C14 10.7121 14 10.4014 13.8985 10.1564C13.7632 9.82971 13.5036 9.57014 13.1769 9.43482C12.9319 9.33332 12.6213 9.33332 12 9.33332H4C3.37874 9.33332 3.06812 9.33332 2.82309 9.43482C2.49638 9.57014 2.23682 9.82971 2.10149 10.1564C2 10.4014 2 10.7121 2 11.3333C2 11.9546 2 12.2652 2.10149 12.5102C2.23682 12.8369 2.49638 13.0965 2.82309 13.2318C3.06812 13.3333 3.37874 13.3333 4 13.3333L12 13.3333Z" stroke="black" stroke-width="1.33" stroke-linecap="round" stroke-linejoin="round"/>
</svg>
