<svg width="16" height="16" viewBox="0 0 16 16" fill="none" xmlns="http://www.w3.org/2000/svg">
<path d="M6.66666 12V4C6.66666 3.37874 6.66666 3.06812 6.56516 2.82309C6.42984 2.49638 6.17027 2.23682 5.84357 2.10149C5.59854 2 5.28791 2 4.66666 2C4.0454 2 3.73477 2 3.48975 2.10149C3.16304 2.23682 2.90348 2.49638 2.76815 2.82309C2.66666 3.06812 2.66666 3.37874 2.66666 4V12C2.66666 12.6213 2.66666 12.9319 2.76815 13.1769C2.90348 13.5036 3.16304 13.7632 3.48975 13.8985C3.73477 14 4.0454 14 4.66666 14C5.28791 14 5.59854 14 5.84357 13.8985C6.17027 13.7632 6.42984 13.5036 6.56516 13.1769C6.66666 12.9319 6.66666 12.6213 6.66666 12Z" stroke="black" stroke-width="1.33" stroke-linecap="round" stroke-linejoin="round"/>
<path d="M13.3333 12V6.66667C13.3333 6.04541 13.3333 5.73478 13.2318 5.48976C13.0965 5.16305 12.8369 4.90349 12.5102 4.76816C12.2652 4.66667 11.9546 4.66667 11.3333 4.66667C10.7121 4.66667 10.4014 4.66667 10.1564 4.76816C9.82971 4.90349 9.57014 5.16305 9.43482 5.48976C9.33332 5.73478 9.33332 6.04541 9.33332 6.66667V12C9.33332 12.6213 9.33332 12.9319 9.43482 13.1769C9.57014 13.5036 9.82971 13.7632 10.1564 13.8985C10.4014 14 10.7121 14 11.3333 14C11.9546 14 12.2652 14 12.5102 13.8985C12.8369 13.7632 13.0965 13.5036 13.2318 13.1769C13.3333 12.9319 13.3333 12.6213 13.3333 12Z" stroke="black" stroke-width="1.33" stroke-linecap="round" stroke-linejoin="round"/>
</svg>
