<svg width="16" height="16" viewBox="0 0 16 16" fill="none" xmlns="http://www.w3.org/2000/svg">
<path d="M9.33333 6.66666C9.95459 6.66666 10.2652 6.66666 10.5102 6.56516C10.8369 6.42984 11.0965 6.17027 11.2318 5.84357C11.3333 5.59854 11.3333 5.28791 11.3333 4.66666C11.3333 4.0454 11.3333 3.73477 11.2318 3.48975C11.0965 3.16304 10.8369 2.90348 10.5102 2.76815C10.2652 2.66666 9.95459 2.66666 9.33333 2.66666L4 2.66666C3.37874 2.66666 3.06812 2.66666 2.82309 2.76815C2.49638 2.90348 2.23682 3.16304 2.10149 3.48975C2 3.73477 2 4.0454 2 4.66666C2 5.28791 2 5.59854 2.10149 5.84357C2.23682 6.17027 2.49638 6.42984 2.82309 6.56516C3.06812 6.66666 3.37874 6.66666 4 6.66666L9.33333 6.66666Z" stroke="black" stroke-width="1.33" stroke-linecap="round" stroke-linejoin="round"/>
<path d="M12 13.3333C12.6213 13.3333 12.9319 13.3333 13.1769 13.2318C13.5036 13.0965 13.7632 12.8369 13.8985 12.5102C14 12.2652 14 11.9546 14 11.3333C14 10.7121 14 10.4014 13.8985 10.1564C13.7632 9.82971 13.5036 9.57014 13.1769 9.43482C12.9319 9.33332 12.6213 9.33332 12 9.33332H4C3.37874 9.33332 3.06812 9.33332 2.82309 9.43482C2.49638 9.57014 2.23682 9.82971 2.10149 10.1564C2 10.4014 2 10.7121 2 11.3333C2 11.9546 2 12.2652 2.10149 12.5102C2.23682 12.8369 2.49638 13.0965 2.82309 13.2318C3.06812 13.3333 3.37874 13.3333 4 13.3333L12 13.3333Z" stroke="black" stroke-width="1.33" stroke-linecap="round" stroke-linejoin="round"/>
</svg>
