<svg width="16" height="16" viewBox="0 0 16 16" fill="none" xmlns="http://www.w3.org/2000/svg">
<path d="M2.66665 9.33334L3.71641 13.5324C3.74593 13.6505 3.7607 13.7095 3.77816 13.7611C3.94876 14.2647 4.40233 14.6189 4.93233 14.6622C4.98658 14.6667 5.04745 14.6667 5.16917 14.6667C5.32161 14.6667 5.39782 14.6667 5.46203 14.6604C6.09664 14.5989 6.59887 14.0967 6.66042 13.4621C6.66665 13.3978 6.66665 13.3216 6.66665 13.1692V3.66667M12.3333 9C13.622 9 14.6666 7.95533 14.6666 6.66667C14.6666 5.378 13.622 4.33334 12.3333 4.33334M6.83331 3.66667H4.33331C2.67646 3.66667 1.33331 5.00982 1.33331 6.66667C1.33331 8.32352 2.67646 9.66667 4.33331 9.66667H6.83332C8.01093 9.66667 9.45148 10.2979 10.5628 10.9038C11.2112 11.2572 11.5354 11.4339 11.7477 11.4079C11.9446 11.3838 12.0935 11.2954 12.2089 11.1341C12.3333 10.9601 12.3333 10.612 12.3333 9.91581V3.41753C12.3333 2.72133 12.3333 2.37324 12.2089 2.19926C12.0935 2.03794 11.9446 1.94954 11.7477 1.92542C11.5354 1.89942 11.2112 2.07613 10.5628 2.42957C9.45148 3.03541 8.01093 3.66667 6.83331 3.66667Z" stroke="black" stroke-width="1.33" stroke-linecap="round" stroke-linejoin="round"/>
</svg>
