<svg width="16" height="16" viewBox="0 0 16 16" fill="none" xmlns="http://www.w3.org/2000/svg">
<path d="M14.6666 5.33334V8M6.83331 3.66667H4.53331C3.41321 3.66667 2.85315 3.66667 2.42533 3.88466C2.04901 4.0764 1.74305 4.38236 1.5513 4.75869C1.33331 5.18651 1.33331 5.74656 1.33331 6.86667L1.33331 7.66667C1.33331 8.28792 1.33331 8.59855 1.43481 8.84358C1.57013 9.17028 1.8297 9.42985 2.1564 9.56517C2.40143 9.66667 2.71206 9.66667 3.33331 9.66667V12.5C3.33331 12.6548 3.33331 12.7322 3.33974 12.7974C3.40208 13.4304 3.90292 13.9312 4.53596 13.9936C4.60115 14 4.67854 14 4.83331 14C4.98809 14 5.06548 14 5.13067 13.9936C5.76371 13.9312 6.26455 13.4304 6.32689 12.7974C6.33331 12.7322 6.33332 12.6548 6.33332 12.5V9.66667H6.83332C8.01093 9.66667 9.45148 10.2979 10.5628 10.9038C11.2112 11.2572 11.5354 11.4339 11.7477 11.4079C11.9446 11.3838 12.0935 11.2954 12.2089 11.1341C12.3333 10.9601 12.3333 10.612 12.3333 9.91581V3.41753C12.3333 2.72133 12.3333 2.37324 12.2089 2.19926C12.0935 2.03794 11.9446 1.94954 11.7477 1.92542C11.5354 1.89942 11.2112 2.07613 10.5628 2.42957C9.45148 3.03541 8.01093 3.66667 6.83331 3.66667Z" stroke="black" stroke-width="1.33" stroke-linecap="round" stroke-linejoin="round"/>
</svg>
