<svg width="16" height="16" viewBox="0 0 16 16" fill="none" xmlns="http://www.w3.org/2000/svg">
<path d="M4.75676 7.45924L2.22027 2.92026C1.92861 2.39835 1.78278 2.13739 1.80736 1.92374C1.8288 1.73733 1.9278 1.56858 2.08007 1.45893C2.25459 1.33325 2.55353 1.33325 3.1514 1.33325H4.64129C4.86348 1.33325 4.97458 1.33325 5.07423 1.36534C5.16241 1.39374 5.24371 1.4402 5.31293 1.50176C5.39116 1.57133 5.44755 1.66705 5.56033 1.8585L8.00007 5.99992L10.4398 1.8585C10.5526 1.66705 10.609 1.57133 10.6872 1.50176C10.7564 1.4402 10.8377 1.39374 10.9259 1.36534C11.0256 1.33325 11.1367 1.33325 11.3589 1.33325H12.8487C13.4466 1.33325 13.7456 1.33325 13.9201 1.45893C14.0723 1.56858 14.1713 1.73733 14.1928 1.92374C14.2174 2.13739 14.0715 2.39835 13.7799 2.92026L11.2434 7.45924M7.00007 9.33325L8.00007 8.66658V11.9999M7.16674 11.9999H8.8334M11.0642 7.26912C12.7565 8.96139 12.7565 11.7051 11.0642 13.3974C9.37193 15.0897 6.62822 15.0897 4.93594 13.3974C3.24367 11.7051 3.24367 8.9614 4.93594 7.26912C6.62821 5.57685 9.37192 5.57685 11.0642 7.26912Z" stroke="black" stroke-width="1.33" stroke-linecap="round" stroke-linejoin="round"/>
</svg>
