<svg width="16" height="16" viewBox="0 0 16 16" fill="none" xmlns="http://www.w3.org/2000/svg">
<path d="M4.00001 7.33341V10.0001M12 6.00008V8.66675M11.3333 2.66675C12.9658 2.66675 13.8488 2.91659 14.2881 3.11038C14.3466 3.13618 14.3758 3.14909 14.4603 3.22966C14.5109 3.27796 14.6033 3.41968 14.627 3.48547C14.6667 3.59524 14.6667 3.65524 14.6667 3.77524V10.9408C14.6667 11.5467 14.6667 11.8496 14.5758 12.0053C14.4834 12.1637 14.3943 12.2373 14.2213 12.2982C14.0513 12.358 13.708 12.2921 13.0215 12.1602C12.5409 12.0679 11.971 12.0001 11.3333 12.0001C9.33334 12.0001 7.33334 13.3334 4.66668 13.3334C3.03421 13.3334 2.15125 13.0836 1.71193 12.8898C1.65343 12.864 1.62417 12.8511 1.53974 12.7705C1.48913 12.7222 1.39676 12.5805 1.37299 12.5147C1.33334 12.4049 1.33334 12.3449 1.33334 12.2249L1.33334 5.05932C1.33334 4.45347 1.33334 4.15055 1.4242 3.99484C1.51661 3.83646 1.60574 3.76283 1.77872 3.70196C1.94877 3.64212 2.29203 3.70807 2.97856 3.83998C3.45909 3.93231 4.029 4.00008 4.66668 4.00008C6.66668 4.00008 8.66668 2.66675 11.3333 2.66675ZM9.66668 8.00008C9.66668 8.92055 8.92048 9.66675 8.00001 9.66675C7.07954 9.66675 6.33334 8.92055 6.33334 8.00008C6.33334 7.07961 7.07954 6.33341 8.00001 6.33341C8.92048 6.33341 9.66668 7.07961 9.66668 8.00008Z" stroke="black" stroke-width="1.33" stroke-linecap="round" stroke-linejoin="round"/>
</svg>
