<svg width="16" height="16" viewBox="0 0 16 16" fill="none" xmlns="http://www.w3.org/2000/svg">
<path d="M7.99992 2.00004H10.7999C11.92 2.00004 12.4801 2.00004 12.9079 2.21803C13.2842 2.40977 13.5902 2.71574 13.7819 3.09206C13.9999 3.51988 13.9999 4.07994 13.9999 5.20004V10.8C13.9999 11.9201 13.9999 12.4802 13.7819 12.908C13.5902 13.2843 13.2842 13.5903 12.9079 13.7821C12.4801 14 11.92 14 10.7999 14H5.19992C4.07981 14 3.51976 14 3.09194 13.7821C2.71561 13.5903 2.40965 13.2843 2.21791 12.908C1.99992 12.4802 1.99992 11.9201 1.99992 10.8V8.00004M5.33325 8.66671V11.3334M10.6666 7.33337V11.3334M7.99992 4.66671V11.3334M3.33325 5.33337V1.33337M1.33325 3.33337H5.33325" stroke="black" stroke-width="1.33" stroke-linecap="round" stroke-linejoin="round"/>
</svg>
