<svg width="16" height="16" viewBox="0 0 16 16" fill="none" xmlns="http://www.w3.org/2000/svg">
<path d="M6.66667 1.33331V4.44025C6.66667 4.58504 6.66667 4.65743 6.6446 4.71501C6.62379 4.76934 6.59624 4.80877 6.55239 4.847C6.5059 4.88753 6.43062 4.91511 6.28005 4.97027C4.36595 5.67148 3 7.50952 3 9.66658C3 12.428 5.23858 14.6666 8 14.6666C10.7614 14.6666 13 12.428 13 9.66658C13 7.50952 11.6341 5.67148 9.71995 4.97027C9.56938 4.91511 9.4941 4.88753 9.44761 4.847C9.40376 4.80877 9.37621 4.76934 9.3554 4.71501C9.33333 4.65743 9.33333 4.58504 9.33333 4.44025V1.33331M5.66667 1.33325H10.3333" stroke="black" stroke-width="1.33" stroke-linecap="round" stroke-linejoin="round"/>
</svg>
