<svg width="16" height="16" viewBox="0 0 16 16" fill="none" xmlns="http://www.w3.org/2000/svg">
<path d="M6 3.99992V7.00072C6 7.368 6 7.55165 5.95422 7.72182C5.91365 7.8726 5.84691 8.01509 5.75705 8.14278C5.65563 8.2869 5.51455 8.40446 5.23239 8.63959L2.76761 10.6936C2.48545 10.9287 2.34437 11.0463 2.24295 11.1904C2.15309 11.3181 2.08635 11.4606 2.04578 11.6113C2 11.7815 2 11.9652 2 12.3325V12.5333C2 13.28 2 13.6534 2.14532 13.9386C2.27316 14.1895 2.47713 14.3934 2.72801 14.5213C3.01323 14.6666 3.3866 14.6666 4.13333 14.6666H11.8667C12.6134 14.6666 12.9868 14.6666 13.272 14.5213C13.5229 14.3934 13.7268 14.1895 13.8547 13.9386C14 13.6534 14 13.28 14 12.5333V12.3325C14 11.9652 14 11.7815 13.9542 11.6113C13.9136 11.4606 13.8469 11.3181 13.757 11.1904C13.6556 11.0463 13.5145 10.9287 13.2324 10.6936L10.7676 8.63959C10.4855 8.40446 10.3444 8.2869 10.243 8.14278C10.1531 8.01509 10.0864 7.8726 10.0458 7.72182C10 7.55165 10 7.368 10 7.00072V3.99992M5.53333 3.99992H10.4667C10.6534 3.99992 10.7467 3.99992 10.818 3.96359C10.8807 3.93163 10.9317 3.88064 10.9637 3.81792C11 3.74661 11 3.65327 11 3.46659V1.86659C11 1.6799 11 1.58656 10.9637 1.51526C10.9317 1.45253 10.8807 1.40154 10.818 1.36958C10.7467 1.33325 10.6534 1.33325 10.4667 1.33325H5.53333C5.34665 1.33325 5.25331 1.33325 5.182 1.36958C5.11928 1.40154 5.06829 1.45253 5.03633 1.51526C5 1.58656 5 1.6799 5 1.86659V3.46659C5 3.65327 5 3.74661 5.03633 3.81792C5.06829 3.88064 5.11928 3.93163 5.182 3.96359C5.25331 3.99992 5.34665 3.99992 5.53333 3.99992ZM3.66667 11.3333H12.3333C12.6431 11.3333 12.798 11.3333 12.9268 11.3589C13.4557 11.4641 13.8692 11.8775 13.9744 12.4065C14 12.5353 14 12.6901 14 12.9999C14 13.3097 14 13.4646 13.9744 13.5934C13.8692 14.1223 13.4557 14.5358 12.9268 14.641C12.798 14.6666 12.6431 14.6666 12.3333 14.6666H3.66667C3.3569 14.6666 3.20201 14.6666 3.07321 14.641C2.54429 14.5358 2.13083 14.1223 2.02562 13.5934C2 13.4646 2 13.3097 2 12.9999C2 12.6901 2 12.5353 2.02562 12.4065C2.13083 11.8775 2.54429 11.4641 3.07321 11.3589C3.20201 11.3333 3.3569 11.3333 3.66667 11.3333Z" stroke="black" stroke-width="1.33" stroke-linecap="round" stroke-linejoin="round"/>
</svg>
