<svg width="16" height="16" viewBox="0 0 16 16" fill="none" xmlns="http://www.w3.org/2000/svg">
<path d="M6.66658 4.66671L1.99992 4.66671M13.9999 4.66671L9.33325 4.66671M9.33325 4.83468C11.6336 5.42673 13.3333 7.51487 13.3333 9.99999M2.66659 9.99999C2.66659 7.51487 4.36628 5.42673 6.66658 4.83468M2.39992 12.6667H2.93325C3.30662 12.6667 3.4933 12.6667 3.63591 12.594C3.76135 12.5301 3.86334 12.4281 3.92726 12.3027C3.99992 12.1601 3.99992 11.9734 3.99992 11.6V11.0667C3.99992 10.6933 3.99992 10.5067 3.92726 10.364C3.86334 10.2386 3.76135 10.1366 3.63591 10.0727C3.4933 10 3.30662 10 2.93325 10H2.39992C2.02655 10 1.83987 10 1.69726 10.0727C1.57182 10.1366 1.46983 10.2386 1.40591 10.364C1.33325 10.5067 1.33325 10.6933 1.33325 11.0667V11.6C1.33325 11.9734 1.33325 12.1601 1.40591 12.3027C1.46983 12.4281 1.57182 12.5301 1.69726 12.594C1.83987 12.6667 2.02655 12.6667 2.39992 12.6667ZM7.73325 6.00004H8.26658C8.63995 6.00004 8.82664 6.00004 8.96925 5.92738C9.09469 5.86346 9.19667 5.76148 9.26059 5.63603C9.33325 5.49343 9.33325 5.30674 9.33325 4.93337V4.40004C9.33325 4.02667 9.33325 3.83999 9.26059 3.69738C9.19667 3.57194 9.09469 3.46995 8.96925 3.40604C8.82664 3.33337 8.63995 3.33337 8.26658 3.33337H7.73325C7.35988 3.33337 7.1732 3.33337 7.03059 3.40604C6.90515 3.46995 6.80316 3.57194 6.73925 3.69738C6.66658 3.83999 6.66658 4.02667 6.66658 4.40004V4.93337C6.66658 5.30674 6.66658 5.49343 6.73925 5.63603C6.80316 5.76148 6.90515 5.86346 7.03059 5.92738C7.1732 6.00004 7.35988 6.00004 7.73325 6.00004ZM13.0666 12.6667H13.5999C13.9733 12.6667 14.16 12.6667 14.3026 12.594C14.428 12.5301 14.53 12.4281 14.5939 12.3027C14.6666 12.1601 14.6666 11.9734 14.6666 11.6V11.0667C14.6666 10.6933 14.6666 10.5067 14.5939 10.364C14.53 10.2386 14.428 10.1366 14.3026 10.0727C14.16 10 13.9733 10 13.5999 10H13.0666C12.6932 10 12.5065 10 12.3639 10.0727C12.2385 10.1366 12.1365 10.2386 12.0726 10.364C11.9999 10.5067 11.9999 10.6933 11.9999 11.0667V11.6C11.9999 11.9734 11.9999 12.1601 12.0726 12.3027C12.1365 12.4281 12.2385 12.5301 12.3639 12.594C12.5065 12.6667 12.6932 12.6667 13.0666 12.6667ZM14.6666 4.66671C14.6666 5.0349 14.3681 5.33337 13.9999 5.33337C13.6317 5.33337 13.3333 5.0349 13.3333 4.66671C13.3333 4.29852 13.6317 4.00004 13.9999 4.00004C14.3681 4.00004 14.6666 4.29852 14.6666 4.66671ZM2.66659 4.66671C2.66659 5.0349 2.36811 5.33337 1.99992 5.33337C1.63173 5.33337 1.33325 5.0349 1.33325 4.66671C1.33325 4.29852 1.63173 4.00004 1.99992 4.00004C2.36811 4.00004 2.66659 4.29852 2.66659 4.66671Z" stroke="black" stroke-width="1.33" stroke-linecap="round" stroke-linejoin="round"/>
</svg>
