<svg width="16" height="16" viewBox="0 0 16 16" fill="none" xmlns="http://www.w3.org/2000/svg">
<path d="M13.3334 12.6666V10.6666H4.66675C3.56218 10.6666 2.66675 11.562 2.66675 12.6666M5.86675 14.6666H11.2001C11.9468 14.6666 12.3202 14.6666 12.6054 14.5213C12.8563 14.3934 13.0603 14.1895 13.1881 13.9386C13.3334 13.6534 13.3334 13.28 13.3334 12.5333V3.46659C13.3334 2.71985 13.3334 2.34648 13.1881 2.06126C13.0603 1.81038 12.8563 1.60641 12.6054 1.47858C12.3202 1.33325 11.9468 1.33325 11.2001 1.33325H5.86675C4.74664 1.33325 4.18659 1.33325 3.75877 1.55124C3.38244 1.74299 3.07648 2.04895 2.88474 2.42527C2.66675 2.85309 2.66675 3.41315 2.66675 4.53325V11.4666C2.66675 12.5867 2.66675 13.1467 2.88474 13.5746C3.07648 13.9509 3.38244 14.2569 3.75877 14.4486C4.18659 14.6666 4.74664 14.6666 5.86675 14.6666Z" stroke="black" stroke-width="1.33" stroke-linecap="round" stroke-linejoin="round"/>
</svg>
