<svg width="16" height="16" viewBox="0 0 16 16" fill="none" xmlns="http://www.w3.org/2000/svg">
<path d="M13.6667 5.33333V10.8C13.6667 11.9201 13.6667 12.4802 13.4487 12.908C13.257 13.2843 12.951 13.5903 12.5747 13.782C12.1469 14 11.5868 14 10.4667 14H5.53337C4.41327 14 3.85322 14 3.42539 13.782C3.04907 13.5903 2.74311 13.2843 2.55136 12.908C2.33337 12.4802 2.33337 11.9201 2.33337 10.8V5.33333M2.40004 2H13.6C13.9734 2 14.1601 2 14.3027 2.07266C14.4281 2.13658 14.5301 2.23856 14.594 2.36401C14.6667 2.50661 14.6667 2.6933 14.6667 3.06667V4.26667C14.6667 4.64004 14.6667 4.82672 14.594 4.96933C14.5301 5.09477 14.4281 5.19676 14.3027 5.26067C14.1601 5.33333 13.9734 5.33333 13.6 5.33333H2.40004C2.02667 5.33333 1.83999 5.33333 1.69738 5.26067C1.57194 5.19676 1.46995 5.09477 1.40604 4.96933C1.33337 4.82672 1.33337 4.64004 1.33337 4.26667V3.06667C1.33337 2.6933 1.33337 2.50661 1.40604 2.36401C1.46995 2.23856 1.57194 2.13658 1.69738 2.07266C1.83999 2 2.02667 2 2.40004 2ZM6.40004 7.66667H9.60004C9.97341 7.66667 10.1601 7.66667 10.3027 7.73933C10.4281 7.80324 10.5301 7.90523 10.594 8.03067C10.6667 8.17328 10.6667 8.35997 10.6667 8.73333V9.26667C10.6667 9.64003 10.6667 9.82672 10.594 9.96933C10.5301 10.0948 10.4281 10.1968 10.3027 10.2607C10.1601 10.3333 9.97341 10.3333 9.60004 10.3333H6.40004C6.02667 10.3333 5.83999 10.3333 5.69738 10.2607C5.57194 10.1968 5.46995 10.0948 5.40604 9.96933C5.33337 9.82672 5.33337 9.64003 5.33337 9.26667V8.73333C5.33337 8.35997 5.33337 8.17328 5.40604 8.03067C5.46995 7.90523 5.57194 7.80324 5.69738 7.73933C5.83999 7.66667 6.02667 7.66667 6.40004 7.66667Z" stroke="black" stroke-width="1.33" stroke-linecap="round" stroke-linejoin="round"/>
</svg>
