<svg width="16" height="16" viewBox="0 0 16 16" fill="none" xmlns="http://www.w3.org/2000/svg">
<path d="M12.3805 13.3333C13.2219 13.3333 13.9045 12.6513 13.9045 11.8093V8.76196L14.6665 7.99996L13.9045 7.23796V4.19063C13.9045 3.34863 13.2225 2.66663 12.3805 2.66663M3.61934 2.66663C2.77734 2.66663 2.09534 3.34863 2.09534 4.19063V7.23796L1.33334 7.99996L2.09534 8.76196V11.8093C2.09534 12.6513 2.77734 13.3333 3.61934 13.3333M5.00001 7.99996H5.00668M8.00001 7.99996H8.00668M11 7.99996H11.0067M5.33334 7.99996C5.33334 8.18405 5.18411 8.33329 5.00001 8.33329C4.81592 8.33329 4.66668 8.18405 4.66668 7.99996C4.66668 7.81586 4.81592 7.66663 5.00001 7.66663C5.18411 7.66663 5.33334 7.81586 5.33334 7.99996ZM8.33334 7.99996C8.33334 8.18405 8.18411 8.33329 8.00001 8.33329C7.81592 8.33329 7.66668 8.18405 7.66668 7.99996C7.66668 7.81586 7.81592 7.66663 8.00001 7.66663C8.18411 7.66663 8.33334 7.81586 8.33334 7.99996ZM11.3333 7.99996C11.3333 8.18405 11.1841 8.33329 11 8.33329C10.8159 8.33329 10.6667 8.18405 10.6667 7.99996C10.6667 7.81586 10.8159 7.66663 11 7.66663C11.1841 7.66663 11.3333 7.81586 11.3333 7.99996Z" stroke="black" stroke-width="1.33" stroke-linecap="round" stroke-linejoin="round"/>
</svg>
