<svg width="16" height="16" viewBox="0 0 16 16" fill="none" xmlns="http://www.w3.org/2000/svg">
<path d="M12 6.66658V2.39992C12 2.02655 12 1.83987 11.9273 1.69726C11.8634 1.57182 11.7614 1.46983 11.636 1.40591C11.4934 1.33325 11.3067 1.33325 10.9333 1.33325H5.06667C4.6933 1.33325 4.50661 1.33325 4.36401 1.40591C4.23856 1.46983 4.13658 1.57182 4.07266 1.69726C4 1.83987 4 2.02655 4 2.39992V6.66658M12 6.66658H4M12 6.66658V6.79992C12 7.92002 12 8.48008 11.782 8.9079C11.5903 9.28422 11.2843 9.59018 10.908 9.78193C10.4802 9.99992 9.92011 9.99992 8.8 9.99992H7.2C6.0799 9.99992 5.51984 9.99992 5.09202 9.78193C4.71569 9.59018 4.40973 9.28422 4.21799 8.9079C4 8.48008 4 7.92002 4 6.79992V6.66658M9.66667 9.99992V12.9999C9.66667 13.9204 8.92047 14.6666 8 14.6666C7.07953 14.6666 6.33333 13.9204 6.33333 12.9999V9.99992" stroke="black" stroke-width="1.33" stroke-linecap="round" stroke-linejoin="round"/>
</svg>
