<svg width="16" height="16" viewBox="0 0 16 16" fill="none" xmlns="http://www.w3.org/2000/svg">
<g clip-path="url(#clip0_7140_52541)">
<path d="M5.9999 7.48151L8.51842 10M5.31648 13.9833C4.40526 14.8945 2.66659 14.6667 1.33325 14.6667C2.01665 13.3334 1.10543 11.5947 2.01665 10.6835C2.92788 9.77223 4.40526 9.77223 5.31648 10.6835C6.22771 11.5947 6.22771 13.0721 5.31648 13.9833ZM7.94765 10.6164L14.0391 4.03773C14.5756 3.45828 14.5583 2.55843 13.9999 2.00003C13.4415 1.44164 12.5416 1.42434 11.9622 1.96086L5.38348 8.05226C5.04352 8.36704 4.87354 8.52443 4.7744 8.69228C4.53668 9.09479 4.52711 9.5924 4.74919 10.0037C4.8418 10.1753 5.00561 10.3391 5.33322 10.6667C5.66082 10.9943 5.82463 11.1581 5.99617 11.2507C6.40752 11.4728 6.90513 11.4632 7.30764 11.2255C7.47549 11.1264 7.63288 10.9564 7.94765 10.6164Z" stroke="black" stroke-width="1.33" stroke-linecap="round" stroke-linejoin="round"/>
</g>
<defs>
<clipPath id="clip0_7140_52541">
<rect width="16" height="16" fill="white"/>
</clipPath>
</defs>
</svg>
