<svg width="16" height="16" viewBox="0 0 16 16" fill="none" xmlns="http://www.w3.org/2000/svg">
<path d="M8.66668 7.33333H11.8667C12.6134 7.33333 12.9868 7.33333 13.272 7.47866C13.5229 7.60649 13.7269 7.81046 13.8547 8.06135C14 8.34656 14 8.71993 14 9.46667V14M8.66668 14V4.13333C8.66668 3.3866 8.66668 3.01323 8.52135 2.72801C8.39352 2.47713 8.18955 2.27316 7.93866 2.14532C7.65345 2 7.28008 2 6.53334 2H4.13334C3.38661 2 3.01324 2 2.72802 2.14532C2.47714 2.27316 2.27317 2.47713 2.14533 2.72801C2.00001 3.01323 2.00001 3.3866 2.00001 4.13333V14M14.6667 14H1.33334M4.33334 4.66667H6.33334M4.33334 7.33333H6.33334M4.33334 10H6.33334" stroke="black" stroke-width="1.33" stroke-linecap="round" stroke-linejoin="round"/>
</svg>
