<svg width="16" height="16" viewBox="0 0 16 16" fill="none" xmlns="http://www.w3.org/2000/svg">
<path d="M14 5.33325H2M10.6667 1.33325V3.33325M5.33333 1.33325V3.33325M5.2 14.6666H10.8C11.9201 14.6666 12.4802 14.6666 12.908 14.4486C13.2843 14.2569 13.5903 13.9509 13.782 13.5746C14 13.1467 14 12.5867 14 11.4666V5.86659C14 4.74648 14 4.18643 13.782 3.7586C13.5903 3.38228 13.2843 3.07632 12.908 2.88457C12.4802 2.66659 11.9201 2.66659 10.8 2.66659H5.2C4.0799 2.66659 3.51984 2.66659 3.09202 2.88457C2.71569 3.07632 2.40973 3.38228 2.21799 3.7586C2 4.18643 2 4.74648 2 5.86658V11.4666C2 12.5867 2 13.1467 2.21799 13.5746C2.40973 13.9509 2.71569 14.2569 3.09202 14.4486C3.51984 14.6666 4.0799 14.6666 5.2 14.6666ZM7.99817 8.22031C7.46501 7.61432 6.57593 7.45131 5.90792 8.00622C5.23991 8.56113 5.14586 9.48891 5.67045 10.1452C6.05133 10.6217 7.10618 11.5597 7.65555 12.0379C7.77465 12.1415 7.8342 12.1934 7.90398 12.2139C7.96442 12.2317 8.03192 12.2317 8.09237 12.2139C8.16215 12.1934 8.2217 12.1415 8.34079 12.0379C8.89017 11.5597 9.94502 10.6217 10.3259 10.1452C10.8505 9.48891 10.7679 8.55529 10.0884 8.00622C9.40893 7.45714 8.53133 7.61432 7.99817 8.22031Z" stroke="black" stroke-width="1.33" stroke-linecap="round" stroke-linejoin="round"/>
</svg>
