<svg width="16" height="16" viewBox="0 0 16 16" fill="none" xmlns="http://www.w3.org/2000/svg">
<path d="M1.33331 5.2C1.33331 4.0799 1.33331 3.51984 1.5513 3.09202C1.74305 2.71569 2.04901 2.40973 2.42533 2.21799C2.85316 2 3.41321 2 4.53331 2H11.4666C12.5868 2 13.1468 2 13.5746 2.21799C13.951 2.40973 14.2569 2.71569 14.4487 3.09202C14.6666 3.51984 14.6666 4.0799 14.6666 5.2V10.8C14.6666 11.9201 14.6666 12.4802 14.4487 12.908C14.2569 13.2843 13.951 13.5903 13.5746 13.782C13.1468 14 12.5868 14 11.4666 14H4.53331C3.41321 14 2.85316 14 2.42533 13.782C2.04901 13.5903 1.74305 13.2843 1.5513 12.908C1.33331 12.4802 1.33331 11.9201 1.33331 10.8V5.2Z" stroke="black" stroke-width="1.33" stroke-linecap="round" stroke-linejoin="round"/>
<path d="M7.99998 10.6667C9.47274 10.6667 10.6666 9.47276 10.6666 8C10.6666 6.52724 9.47274 5.33333 7.99998 5.33333C6.52722 5.33333 5.33331 6.52724 5.33331 8C5.33331 9.47276 6.52722 10.6667 7.99998 10.6667Z" stroke="black" stroke-width="1.33" stroke-linecap="round" stroke-linejoin="round"/>
</svg>
