<svg width="16" height="16" viewBox="0 0 16 16" fill="none" xmlns="http://www.w3.org/2000/svg">
<path d="M1.33331 5.58473C1.33331 5.35119 1.33331 5.23442 1.34306 5.13606C1.43705 4.18743 2.18749 3.43699 3.13612 3.343C3.23448 3.33325 3.35755 3.33325 3.6037 3.33325C3.69855 3.33325 3.74597 3.33325 3.78624 3.33081C4.30039 3.29968 4.75061 2.97517 4.94274 2.49725C4.95779 2.45982 4.97185 2.41763 4.99998 2.33325C5.02811 2.24887 5.04217 2.20668 5.05722 2.16925C5.24935 1.69133 5.69957 1.36683 6.21372 1.33569C6.25399 1.33325 6.29846 1.33325 6.38741 1.33325H9.61255C9.7015 1.33325 9.74597 1.33325 9.78624 1.33569C10.3004 1.36683 10.7506 1.69133 10.9427 2.16925C10.9578 2.20668 10.9719 2.24887 11 2.33325C11.0281 2.41763 11.0422 2.45982 11.0572 2.49725C11.2493 2.97517 11.6996 3.29968 12.2137 3.33081C12.254 3.33325 12.3014 3.33325 12.3963 3.33325C12.6424 3.33325 12.7655 3.33325 12.8638 3.343C13.8125 3.43699 14.5629 4.18743 14.6569 5.13606C14.6666 5.23442 14.6666 5.35119 14.6666 5.58473V10.7999C14.6666 11.92 14.6666 12.4801 14.4487 12.9079C14.2569 13.2842 13.951 13.5902 13.5746 13.7819C13.1468 13.9999 12.5868 13.9999 11.4666 13.9999H4.53331C3.41321 13.9999 2.85316 13.9999 2.42533 13.7819C2.04901 13.5902 1.74305 13.2842 1.5513 12.9079C1.33331 12.4801 1.33331 11.92 1.33331 10.7999V5.58473Z" stroke="black" stroke-width="1.33" stroke-linecap="round" stroke-linejoin="round"/>
<path d="M7.99998 10.9999C9.47274 10.9999 10.6666 9.80601 10.6666 8.33325C10.6666 6.86049 9.47274 5.66659 7.99998 5.66659C6.52722 5.66659 5.33331 6.86049 5.33331 8.33325C5.33331 9.80601 6.52722 10.9999 7.99998 10.9999Z" stroke="black" stroke-width="1.33" stroke-linecap="round" stroke-linejoin="round"/>
</svg>
