<svg width="16" height="16" viewBox="0 0 16 16" fill="none" xmlns="http://www.w3.org/2000/svg">
<path d="M1.33331 5.13444C1.33331 4.13967 2.13973 3.33325 3.1345 3.33325C3.65136 3.33325 4.11022 3.00252 4.27367 2.51218L4.33331 2.33325C4.36144 2.24887 4.3755 2.20668 4.39055 2.16925C4.58268 1.69133 5.03291 1.36683 5.54706 1.33569C5.58732 1.33325 5.63179 1.33325 5.72074 1.33325H10.2792C10.3682 1.33325 10.4126 1.33325 10.4529 1.33569C10.9671 1.36683 11.4173 1.69133 11.6094 2.16925C11.6245 2.20668 11.6385 2.24887 11.6666 2.33325L11.7263 2.51218C11.8897 3.00252 12.3486 3.33325 12.8655 3.33325C13.8602 3.33325 14.6666 4.13967 14.6666 5.13444V10.7999C14.6666 11.92 14.6666 12.4801 14.4487 12.9079C14.2569 13.2842 13.951 13.5902 13.5746 13.7819C13.1468 13.9999 12.5868 13.9999 11.4666 13.9999H4.53331C3.41321 13.9999 2.85316 13.9999 2.42533 13.7819C2.04901 13.5902 1.74305 13.2842 1.5513 12.9079C1.33331 12.4801 1.33331 11.92 1.33331 10.7999V5.13444Z" stroke="black" stroke-width="1.33" stroke-linecap="round" stroke-linejoin="round"/>
<path d="M7.99998 10.9999C9.65683 10.9999 11 9.65677 11 7.99992C11 6.34306 9.65683 4.99992 7.99998 4.99992C6.34313 4.99992 4.99998 6.34306 4.99998 7.99992C4.99998 9.65677 6.34313 10.9999 7.99998 10.9999Z" stroke="black" stroke-width="1.33" stroke-linecap="round" stroke-linejoin="round"/>
</svg>
