<svg width="16" height="16" viewBox="0 0 16 16" fill="none" xmlns="http://www.w3.org/2000/svg">
<g clip-path="url(#clip0_7140_51138)">
<path d="M6.00001 7.99998L7.33334 9.33331L10.3333 6.33331M11.9341 3.33232C12.0714 3.66433 12.3349 3.92825 12.6667 4.06603L13.8302 4.54796C14.1622 4.6855 14.426 4.94931 14.5635 5.28135C14.7011 5.61339 14.7011 5.98647 14.5635 6.31852L14.082 7.48118C13.9444 7.81337 13.9442 8.18683 14.0824 8.51886L14.5631 9.68118C14.6313 9.84563 14.6664 10.0219 14.6664 10.1999C14.6665 10.378 14.6314 10.5543 14.5633 10.7187C14.4952 10.8832 14.3953 11.0327 14.2694 11.1585C14.1435 11.2844 13.994 11.3842 13.8295 11.4523L12.6669 11.9339C12.3349 12.0712 12.071 12.3347 11.9332 12.6665L11.4513 13.83C11.3138 14.162 11.05 14.4258 10.7179 14.5634C10.3859 14.7009 10.0129 14.7009 9.68082 14.5634L8.5182 14.0818C8.18616 13.9446 7.81323 13.9449 7.48139 14.0826L6.31794 14.5638C5.98609 14.701 5.61335 14.7009 5.28159 14.5635C4.94983 14.4261 4.68618 14.1626 4.54855 13.8309L4.06649 12.667C3.92921 12.335 3.66571 12.0711 3.33391 11.9333L2.17045 11.4514C1.83857 11.3139 1.57485 11.0503 1.43727 10.7184C1.29968 10.3866 1.2995 10.0137 1.43675 9.68168L1.91832 8.51901C2.05551 8.18696 2.05523 7.81401 1.91754 7.48217L1.43666 6.31784C1.36848 6.15338 1.33337 5.9771 1.33334 5.79907C1.33331 5.62104 1.36837 5.44475 1.43649 5.28027C1.50462 5.11579 1.60449 4.96635 1.73039 4.84048C1.85629 4.71461 2.00576 4.61479 2.17025 4.54672L3.33287 4.06512C3.66459 3.92796 3.92833 3.66478 4.06621 3.33335L4.54813 2.16985C4.68566 1.83781 4.94946 1.574 5.28149 1.43647C5.61352 1.29893 5.98659 1.29893 6.31862 1.43647L7.48124 1.91806C7.81328 2.05525 8.18621 2.05497 8.51805 1.91728L9.68199 1.43721C10.014 1.29975 10.387 1.29978 10.7189 1.43729C11.0509 1.5748 11.3147 1.83853 11.4522 2.17049L11.9343 3.33433L11.9341 3.33232Z" stroke="black" stroke-width="1.33" stroke-linecap="round" stroke-linejoin="round"/>
</g>
<defs>
<clipPath id="clip0_7140_51138">
<rect width="16" height="16" fill="white"/>
</clipPath>
</defs>
</svg>
