<svg width="16" height="16" viewBox="0 0 16 16" fill="none" xmlns="http://www.w3.org/2000/svg">
<g clip-path="url(#clip0_7140_53263)">
<path d="M2.10006 7.33325C2.03447 7.01014 2.00004 6.67572 2.00004 6.33325C2.00004 3.57183 4.23862 1.33325 7.00004 1.33325C9.53542 1.33325 11.6301 3.22035 11.956 5.66659M4.00004 14.6666C2.52728 14.6666 1.33337 13.4727 1.33337 11.9999C1.33337 10.5272 2.52728 9.33325 4.00004 9.33325C4.07559 9.33325 4.15041 9.33639 4.22437 9.34255C4.77085 7.78411 6.25494 6.66658 8.00004 6.66658C9.48326 6.66658 10.7779 7.47387 11.4686 8.67302C11.5341 8.66875 11.6002 8.66658 11.6667 8.66658C13.3236 8.66658 14.6667 10.0097 14.6667 11.6666C14.6667 13.3234 13.3236 14.6666 11.6667 14.6666C9.17558 14.6666 6.70309 14.6666 4.00004 14.6666Z" stroke="black" stroke-width="1.33" stroke-linecap="round" stroke-linejoin="round"/>
</g>
<defs>
<clipPath id="clip0_7140_53263">
<rect width="16" height="16" fill="white"/>
</clipPath>
</defs>
</svg>
