<svg width="16" height="16" viewBox="0 0 16 16" fill="none" xmlns="http://www.w3.org/2000/svg">
<path d="M5.33337 11.9999H5.34004M5.33337 13.9999H5.34004M8.00004 12.3333H8.00671M8.00004 14.3333H8.00671M10.6667 11.9999H10.6734M10.6667 13.9999H10.6734M4.66671 9.99992C2.82576 9.99992 1.33337 8.50753 1.33337 6.66659C1.33337 4.82564 2.82576 3.33325 4.66671 3.33325C4.68881 3.33325 4.71085 3.33347 4.73285 3.3339C5.33964 2.14632 6.57489 1.33325 8.00004 1.33325C9.67953 1.33325 11.0953 2.46242 11.5296 4.003C11.575 4.00096 11.6207 3.99992 11.6667 3.99992C13.3236 3.99992 14.6667 5.34306 14.6667 6.99992C14.6667 8.65677 13.3236 9.99992 11.6667 9.99992C9.16232 9.99992 7.49018 9.99992 4.66671 9.99992Z" stroke="black" stroke-width="1.33" stroke-linecap="round" stroke-linejoin="round"/>
</svg>
