<svg width="16" height="16" viewBox="0 0 16 16" fill="none" xmlns="http://www.w3.org/2000/svg">
<g clip-path="url(#clip0_7140_53242)">
<path d="M10.6666 12.3333V13.9999M5.33331 12.3333V13.9999M7.99998 12.9999V14.6666M4.66665 9.99992C2.8257 9.99992 1.33331 8.50753 1.33331 6.66658C1.33331 4.82564 2.8257 3.33325 4.66665 3.33325C4.68875 3.33325 4.71079 3.33347 4.73279 3.3339C5.33958 2.14632 6.57483 1.33325 7.99998 1.33325C9.67947 1.33325 11.0952 2.46242 11.5295 4.003C11.575 4.00095 11.6207 3.99992 11.6666 3.99992C13.3235 3.99992 14.6666 5.34306 14.6666 6.99992C14.6666 8.65677 13.3235 9.99992 11.6666 9.99992C9.16226 9.99992 7.49012 9.99992 4.66665 9.99992Z" stroke="black" stroke-width="1.33" stroke-linecap="round" stroke-linejoin="round"/>
</g>
<defs>
<clipPath id="clip0_7140_53242">
<rect width="16" height="16" fill="white"/>
</clipPath>
</defs>
</svg>
