<svg width="16" height="16" viewBox="0 0 16 16" fill="none" xmlns="http://www.w3.org/2000/svg">
<g clip-path="url(#clip0_7140_50407)">
<path d="M7.99999 6L2.70924 9.43899C2.25067 9.73706 2.02139 9.8861 1.94198 10.0751C1.87258 10.2403 1.87258 10.4264 1.94198 10.5916M7.99999 6L13.2908 9.43899C13.7493 9.73706 13.9786 9.8861 14.058 10.0751C14.1274 10.2403 14.1274 10.4264 14.058 10.5916M7.99999 6V1.66667M7.99999 10L2.70924 6.56101C2.25067 6.26294 2.02139 6.11391 1.94198 5.92491C1.87258 5.75974 1.87258 5.57359 1.94198 5.40843M7.99999 10L13.2908 6.56101C13.7493 6.26294 13.9786 6.11391 14.058 5.92491C14.1274 5.75974 14.1274 5.57359 14.058 5.40843M7.99999 10V14.3333M14.1813 10.6488L8.58132 14.2888C8.3709 14.4256 8.26569 14.494 8.15234 14.5206C8.05214 14.5441 7.94785 14.5441 7.84765 14.5206C7.7343 14.494 7.62909 14.4256 7.41867 14.2888L1.81867 10.6488C1.64134 10.5335 1.55267 10.4759 1.48843 10.399C1.43156 10.331 1.38884 10.2523 1.36278 10.1675C1.33333 10.0717 1.33333 9.96598 1.33333 9.75447V6.24553C1.33333 6.03403 1.33333 5.92827 1.36278 5.83251C1.38884 5.74774 1.43156 5.66903 1.48843 5.60097C1.55267 5.5241 1.64134 5.46646 1.81867 5.35119L7.41867 1.71119C7.62909 1.57442 7.7343 1.50604 7.84765 1.47943C7.94785 1.45591 8.05214 1.45591 8.15234 1.47943C8.26569 1.50604 8.3709 1.57442 8.58132 1.71119L14.1813 5.35119C14.3587 5.46646 14.4473 5.5241 14.5116 5.60097C14.5684 5.66903 14.6111 5.74774 14.6372 5.83251C14.6667 5.92827 14.6667 6.03403 14.6667 6.24553V9.75447C14.6667 9.96598 14.6667 10.0717 14.6372 10.1675C14.6111 10.2523 14.5684 10.331 14.5116 10.399C14.4473 10.4759 14.3587 10.5335 14.1813 10.6488Z" stroke="black" stroke-width="1.33" stroke-linecap="round" stroke-linejoin="round"/>
</g>
<defs>
<clipPath id="clip0_7140_50407">
<rect width="16" height="16" fill="white"/>
</clipPath>
</defs>
</svg>
