<svg width="16" height="16" viewBox="0 0 16 16" fill="none" xmlns="http://www.w3.org/2000/svg">
<path d="M8.66668 3.33333C8.66668 4.06971 7.02505 4.66667 5.00001 4.66667C2.97497 4.66667 1.33334 4.06971 1.33334 3.33333M8.66668 3.33333C8.66668 2.59695 7.02505 2 5.00001 2C2.97497 2 1.33334 2.59695 1.33334 3.33333M8.66668 3.33333V6.30477C7.85234 6.54932 7.33334 6.91929 7.33334 7.33333M1.33334 3.33333V11.3333C1.33334 12.0697 2.97497 12.6667 5.00001 12.6667C5.88643 12.6667 6.69938 12.5523 7.33334 12.3619V7.33333M1.33334 6C1.33334 6.73638 2.97497 7.33333 5.00001 7.33333C5.88643 7.33333 6.69938 7.21895 7.33334 7.02857M1.33334 8.66667C1.33334 9.40305 2.97497 10 5.00001 10C5.88643 10 6.69938 9.88562 7.33334 9.69523M14.6667 7.33333C14.6667 8.06971 13.0251 8.66667 11 8.66667C8.97497 8.66667 7.33334 8.06971 7.33334 7.33333M14.6667 7.33333C14.6667 6.59695 13.0251 6 11 6C8.97497 6 7.33334 6.59695 7.33334 7.33333M14.6667 7.33333V12.6667C14.6667 13.403 13.0251 14 11 14C8.97497 14 7.33334 13.403 7.33334 12.6667V7.33333M14.6667 10C14.6667 10.7364 13.0251 11.3333 11 11.3333C8.97497 11.3333 7.33334 10.7364 7.33334 10" stroke="black" stroke-width="1.33" stroke-linecap="round" stroke-linejoin="round"/>
</svg>
