<svg width="16" height="16" viewBox="0 0 16 16" fill="none" xmlns="http://www.w3.org/2000/svg">
<path d="M8.00001 11.3333C8.00001 13.1743 9.49239 14.6667 11.3333 14.6667C13.1743 14.6667 14.6667 13.1743 14.6667 11.3333C14.6667 9.49238 13.1743 8 11.3333 8C9.49239 8 8.00001 9.49238 8.00001 11.3333ZM8.00001 11.3333C8.00001 10.5828 8.24807 9.89017 8.66668 9.33301V3.33333M8.00001 11.3333C8.00001 11.8836 8.13333 12.4027 8.36943 12.8601C7.80779 13.3345 6.51057 13.6667 5.00001 13.6667C2.97497 13.6667 1.33334 13.0697 1.33334 12.3333V3.33333M8.66668 3.33333C8.66668 4.06971 7.02505 4.66667 5.00001 4.66667C2.97497 4.66667 1.33334 4.06971 1.33334 3.33333M8.66668 3.33333C8.66668 2.59695 7.02505 2 5.00001 2C2.97497 2 1.33334 2.59695 1.33334 3.33333M1.33334 9.33333C1.33334 10.0697 2.97497 10.6667 5.00001 10.6667C6.45934 10.6667 7.71956 10.3567 8.30977 9.90785M8.66668 6.33333C8.66668 7.06971 7.02505 7.66667 5.00001 7.66667C2.97497 7.66667 1.33334 7.06971 1.33334 6.33333" stroke="black" stroke-width="1.33" stroke-linecap="round" stroke-linejoin="round"/>
</svg>
