<svg width="16" height="16" viewBox="0 0 16 16" fill="none" xmlns="http://www.w3.org/2000/svg">
<g clip-path="url(#clip0_7140_50835)">
<path d="M9.01967 5.56782C8.63806 5.83988 8.17106 5.99992 7.66668 5.99992C6.37801 5.99992 5.33334 4.95525 5.33334 3.66659C5.33334 2.37792 6.37801 1.33325 7.66668 1.33325C8.502 1.33325 9.23481 1.7722 9.64701 2.43201M4.00001 13.3914H5.7402C5.96709 13.3914 6.1926 13.4184 6.41255 13.4723L8.25127 13.9192C8.65024 14.0164 9.06586 14.0258 9.46899 13.9475L11.502 13.552C12.039 13.4474 12.5331 13.1902 12.9202 12.8136L14.3586 11.4144C14.7694 11.0155 14.7694 10.3682 14.3586 9.96863C13.9888 9.60887 13.4032 9.56838 12.9848 9.87346L11.3084 11.0965C11.0683 11.272 10.7762 11.3665 10.4758 11.3665H8.85701L9.88739 11.3664C10.4681 11.3664 10.9386 10.9088 10.9386 10.3439V10.1393C10.9386 9.67025 10.6104 9.26123 10.1427 9.14783L8.55241 8.76108C8.2936 8.69831 8.02854 8.66658 7.7621 8.66658C7.1189 8.66658 5.95461 9.19913 5.95461 9.19913L4.00001 10.0165M13.3333 4.33325C13.3333 5.62192 12.2887 6.66658 11 6.66658C9.71135 6.66658 8.66668 5.62192 8.66668 4.33325C8.66668 3.04459 9.71135 1.99992 11 1.99992C12.2887 1.99992 13.3333 3.04459 13.3333 4.33325ZM1.33334 9.73325L1.33334 13.5999C1.33334 13.9733 1.33334 14.16 1.40601 14.3026C1.46992 14.428 1.57191 14.53 1.69735 14.5939C1.83996 14.6666 2.02664 14.6666 2.40001 14.6666H2.93334C3.30671 14.6666 3.4934 14.6666 3.636 14.5939C3.76144 14.53 3.86343 14.428 3.92735 14.3026C4.00001 14.16 4.00001 13.9733 4.00001 13.5999V9.73325C4.00001 9.35988 4.00001 9.1732 3.92735 9.03059C3.86343 8.90515 3.76145 8.80316 3.636 8.73925C3.4934 8.66659 3.30671 8.66659 2.93334 8.66659L2.40001 8.66658C2.02664 8.66658 1.83996 8.66658 1.69735 8.73925C1.57191 8.80316 1.46992 8.90515 1.40601 9.03059C1.33334 9.1732 1.33334 9.35988 1.33334 9.73325Z" stroke="black" stroke-width="1.33" stroke-linecap="round" stroke-linejoin="round"/>
</g>
<defs>
<clipPath id="clip0_7140_50835">
<rect width="16" height="16" fill="white"/>
</clipPath>
</defs>
</svg>
