<svg width="16" height="16" viewBox="0 0 16 16" fill="none" xmlns="http://www.w3.org/2000/svg">
<g clip-path="url(#clip0_7140_50853)">
<path d="M4.00001 3.99992L5.33334 2.66659M5.33334 2.66659L4.00001 1.33325M5.33334 2.66659H4.00001C2.52725 2.66659 1.33334 3.86049 1.33334 5.33325M12 11.9999L10.6667 13.3333M10.6667 13.3333L12 14.6666M10.6667 13.3333H12C13.4728 13.3333 14.6667 12.1393 14.6667 10.6666M6.79269 4.33325C7.23674 2.60802 8.80284 1.33325 10.6667 1.33325C12.8758 1.33325 14.6667 3.12411 14.6667 5.33325C14.6667 7.19708 13.3919 8.76317 11.6667 9.20722M9.33334 10.6666C9.33334 12.8757 7.54248 14.6666 5.33334 14.6666C3.1242 14.6666 1.33334 12.8757 1.33334 10.6666C1.33334 8.45745 3.1242 6.66658 5.33334 6.66658C7.54248 6.66658 9.33334 8.45745 9.33334 10.6666Z" stroke="black" stroke-width="1.33" stroke-linecap="round" stroke-linejoin="round"/>
</g>
<defs>
<clipPath id="clip0_7140_50853">
<rect width="16" height="16" fill="white"/>
</clipPath>
</defs>
</svg>
