<svg width="16" height="16" viewBox="0 0 16 16" fill="none" xmlns="http://www.w3.org/2000/svg">
<g clip-path="url(#clip0_7140_53086)">
<path d="M14.6667 7.99992C14.6667 11.6818 11.6819 14.6666 8.00001 14.6666M14.6667 7.99992C14.6667 4.31802 11.6819 1.33325 8.00001 1.33325M14.6667 7.99992H13.3333M8.00001 14.6666C4.31811 14.6666 1.33334 11.6818 1.33334 7.99992M8.00001 14.6666V13.3333M1.33334 7.99992C1.33334 4.31802 4.31811 1.33325 8.00001 1.33325M1.33334 7.99992H2.66668M8.00001 1.33325V2.66659M12.7141 12.714L11.7712 11.7712M4.22877 4.22868L3.28596 3.28587M11.7712 4.22868L12.7141 3.28587M3.28596 12.714L4.22877 11.7712M5.33334 7.99992L7.00001 6.99992L8.00001 5.33325L9.00001 6.99992L10.6667 7.99992L9.00001 8.99992L8.00001 10.6666L7.00001 8.99992L5.33334 7.99992Z" stroke="black" stroke-width="1.33" stroke-linecap="round" stroke-linejoin="round"/>
</g>
<defs>
<clipPath id="clip0_7140_53086">
<rect width="16" height="16" fill="white"/>
</clipPath>
</defs>
</svg>
