<svg width="16" height="16" viewBox="0 0 16 16" fill="none" xmlns="http://www.w3.org/2000/svg">
<g clip-path="url(#clip0_7140_53092)">
<path d="M8.00001 14.6666C11.6819 14.6666 14.6667 11.6818 14.6667 7.99992C14.6667 4.31802 11.6819 1.33325 8.00001 1.33325C4.31811 1.33325 1.33334 4.31802 1.33334 7.99992C1.33334 11.6818 4.31811 14.6666 8.00001 14.6666Z" stroke="black" stroke-width="1.33" stroke-linecap="round" stroke-linejoin="round"/>
<path d="M9.81475 5.51056C10.1404 5.402 10.3033 5.34771 10.4116 5.38633C10.5058 5.41994 10.58 5.4941 10.6136 5.58834C10.6522 5.69663 10.5979 5.85948 10.4894 6.18518L9.49767 9.16027C9.46675 9.25303 9.45129 9.29941 9.42494 9.33793C9.40161 9.37204 9.37213 9.40152 9.33802 9.42485C9.2995 9.4512 9.25312 9.46666 9.16036 9.49758L6.18527 10.4893C5.85957 10.5978 5.69672 10.6521 5.58843 10.6135C5.49419 10.5799 5.42003 10.5057 5.38642 10.4115C5.3478 10.3032 5.40209 10.1404 5.51065 9.81466L6.50235 6.83957C6.53327 6.74681 6.54873 6.70043 6.57508 6.66191C6.59841 6.6278 6.62789 6.59832 6.662 6.57498C6.70052 6.54864 6.7469 6.53318 6.83966 6.50226L9.81475 5.51056Z" stroke="black" stroke-width="1.33" stroke-linecap="round" stroke-linejoin="round"/>
</g>
<defs>
<clipPath id="clip0_7140_53092">
<rect width="16" height="16" fill="white"/>
</clipPath>
</defs>
</svg>
