<svg width="16" height="16" viewBox="0 0 16 16" fill="none" xmlns="http://www.w3.org/2000/svg">
<g clip-path="url(#clip0_7140_52565)">
<path d="M7.99992 1.33325C8.39437 1.33325 8.78081 1.36751 9.15645 1.43321M7.99992 1.33325C4.31802 1.33325 1.33325 4.31802 1.33325 7.99992C1.33325 11.6818 4.31802 14.6666 7.99992 14.6666M7.99992 1.33325V14.6666M11.8252 2.53925C12.4614 2.98571 13.016 3.54051 13.4622 4.17686M14.5667 6.84367C14.6323 7.21922 14.6666 7.60557 14.6666 7.99992C14.6666 8.39427 14.6323 8.78062 14.5667 9.15616M13.4594 11.827C13.0135 12.4619 12.4596 13.0155 11.8245 13.4611M9.15512 14.5669C8.77991 14.6324 8.3939 14.6666 7.99992 14.6666" stroke="black" stroke-width="1.33" stroke-linecap="round" stroke-linejoin="round"/>
</g>
<defs>
<clipPath id="clip0_7140_52565">
<rect width="16" height="16" fill="white"/>
</clipPath>
</defs>
</svg>
