<svg width="16" height="16" viewBox="0 0 16 16" fill="none" xmlns="http://www.w3.org/2000/svg">
<g clip-path="url(#clip0_7140_51156)">
<path d="M5.33334 5.33331V3.46665C5.33334 2.71991 5.33334 2.34654 5.47867 2.06133C5.6065 1.81044 5.81047 1.60647 6.06136 1.47864C6.34657 1.33331 6.71994 1.33331 7.46668 1.33331H12.5333C13.2801 1.33331 13.6534 1.33331 13.9387 1.47864C14.1895 1.60647 14.3935 1.81044 14.5214 2.06133C14.6667 2.34654 14.6667 2.71991 14.6667 3.46665V8.53331C14.6667 9.28005 14.6667 9.65342 14.5214 9.93863C14.3935 10.1895 14.1895 10.3935 13.9387 10.5213C13.6534 10.6666 13.2801 10.6666 12.5333 10.6666H10.6667M3.46668 14.6666H8.53334C9.28008 14.6666 9.65345 14.6666 9.93866 14.5213C10.1895 14.3935 10.3935 14.1895 10.5214 13.9386C10.6667 13.6534 10.6667 13.28 10.6667 12.5333V7.46665C10.6667 6.71991 10.6667 6.34654 10.5214 6.06133C10.3935 5.81044 10.1895 5.60647 9.93866 5.47864C9.65345 5.33331 9.28008 5.33331 8.53334 5.33331H3.46668C2.71994 5.33331 2.34657 5.33331 2.06136 5.47864C1.81047 5.60647 1.6065 5.81044 1.47867 6.06133C1.33334 6.34654 1.33334 6.71991 1.33334 7.46665V12.5333C1.33334 13.28 1.33334 13.6534 1.47867 13.9386C1.6065 14.1895 1.81047 14.3935 2.06136 14.5213C2.34657 14.6666 2.71994 14.6666 3.46668 14.6666Z" stroke="black" stroke-width="1.33" stroke-linecap="round" stroke-linejoin="round"/>
</g>
<defs>
<clipPath id="clip0_7140_51156">
<rect width="16" height="16" fill="white"/>
</clipPath>
</defs>
</svg>
