<svg width="16" height="16" viewBox="0 0 16 16" fill="none" xmlns="http://www.w3.org/2000/svg">
<g clip-path="url(#clip0_7140_51159)">
<path d="M10.6667 10.6666V12.5333C10.6667 13.28 10.6667 13.6534 10.5214 13.9386C10.3935 14.1895 10.1895 14.3935 9.93866 14.5213C9.65345 14.6666 9.28008 14.6666 8.53334 14.6666H3.46668C2.71994 14.6666 2.34657 14.6666 2.06136 14.5213C1.81047 14.3935 1.6065 14.1895 1.47867 13.9386C1.33334 13.6534 1.33334 13.28 1.33334 12.5333V7.46665C1.33334 6.71991 1.33334 6.34654 1.47867 6.06133C1.6065 5.81044 1.81047 5.60647 2.06136 5.47864C2.34657 5.33331 2.71994 5.33331 3.46668 5.33331H5.33334M7.46668 10.6666H12.5333C13.2801 10.6666 13.6534 10.6666 13.9387 10.5213C14.1895 10.3935 14.3935 10.1895 14.5214 9.93863C14.6667 9.65342 14.6667 9.28005 14.6667 8.53331V3.46665C14.6667 2.71991 14.6667 2.34654 14.5214 2.06133C14.3935 1.81044 14.1895 1.60647 13.9387 1.47864C13.6534 1.33331 13.2801 1.33331 12.5333 1.33331H7.46668C6.71994 1.33331 6.34657 1.33331 6.06136 1.47864C5.81047 1.60647 5.6065 1.81044 5.47867 2.06133C5.33334 2.34654 5.33334 2.71991 5.33334 3.46665V8.53331C5.33334 9.28005 5.33334 9.65342 5.47867 9.93863C5.6065 10.1895 5.81047 10.3935 6.06136 10.5213C6.34657 10.6666 6.71994 10.6666 7.46668 10.6666Z" stroke="black" stroke-width="1.33" stroke-linecap="round" stroke-linejoin="round"/>
</g>
<defs>
<clipPath id="clip0_7140_51159">
<rect width="16" height="16" fill="white"/>
</clipPath>
</defs>
</svg>
