<svg width="16" height="16" viewBox="0 0 16 16" fill="none" xmlns="http://www.w3.org/2000/svg">
<g clip-path="url(#clip0_7140_51150)">
<path d="M3.33334 9.99998C2.71209 9.99998 2.40146 9.99998 2.15643 9.89849C1.82973 9.76316 1.57016 9.50359 1.43484 9.17689C1.33334 8.93186 1.33334 8.62123 1.33334 7.99998V3.46665C1.33334 2.71991 1.33334 2.34654 1.47867 2.06133C1.6065 1.81044 1.81047 1.60647 2.06136 1.47864C2.34657 1.33331 2.71994 1.33331 3.46668 1.33331H8.00001C8.62126 1.33331 8.93189 1.33331 9.17692 1.43481C9.50362 1.57013 9.76319 1.8297 9.89852 2.1564C10 2.40143 10 2.71206 10 3.33331M8.13334 14.6666H12.5333C13.2801 14.6666 13.6534 14.6666 13.9387 14.5213C14.1895 14.3935 14.3935 14.1895 14.5214 13.9386C14.6667 13.6534 14.6667 13.28 14.6667 12.5333V8.13331C14.6667 7.38658 14.6667 7.01321 14.5214 6.72799C14.3935 6.47711 14.1895 6.27314 13.9387 6.1453C13.6534 5.99998 13.2801 5.99998 12.5333 5.99998H8.13334C7.38661 5.99998 7.01324 5.99998 6.72802 6.1453C6.47714 6.27314 6.27317 6.47711 6.14533 6.72799C6.00001 7.01321 6.00001 7.38658 6.00001 8.13331V12.5333C6.00001 13.28 6.00001 13.6534 6.14533 13.9386C6.27317 14.1895 6.47714 14.3935 6.72802 14.5213C7.01324 14.6666 7.38661 14.6666 8.13334 14.6666Z" stroke="black" stroke-width="1.33" stroke-linecap="round" stroke-linejoin="round"/>
</g>
<defs>
<clipPath id="clip0_7140_51150">
<rect width="16" height="16" fill="white"/>
</clipPath>
</defs>
</svg>
