<svg width="16" height="16" viewBox="0 0 16 16" fill="none" xmlns="http://www.w3.org/2000/svg">
<g clip-path="url(#clip0_7140_50416)">
<path d="M5.99999 1.33337V3.33337M9.99999 1.33337V3.33337M5.99999 12.6667V14.6667M9.99999 12.6667V14.6667M12.6667 6.00004H14.6667M12.6667 9.33337H14.6667M1.33333 6.00004H3.33333M1.33333 9.33337H3.33333M6.53333 12.6667H9.46666C10.5868 12.6667 11.1468 12.6667 11.5746 12.4487C11.951 12.257 12.2569 11.951 12.4487 11.5747C12.6667 11.1469 12.6667 10.5868 12.6667 9.46671V6.53337C12.6667 5.41327 12.6667 4.85322 12.4487 4.42539C12.2569 4.04907 11.951 3.74311 11.5746 3.55136C11.1468 3.33337 10.5868 3.33337 9.46666 3.33337H6.53333C5.41322 3.33337 4.85317 3.33337 4.42535 3.55136C4.04902 3.74311 3.74306 4.04907 3.55132 4.42539C3.33333 4.85322 3.33333 5.41327 3.33333 6.53337V9.46671C3.33333 10.5868 3.33333 11.1469 3.55132 11.5747C3.74306 11.951 4.04902 12.257 4.42535 12.4487C4.85317 12.6667 5.41322 12.6667 6.53333 12.6667Z" stroke="black" stroke-width="1.33" stroke-linecap="round" stroke-linejoin="round"/>
</g>
<defs>
<clipPath id="clip0_7140_50416">
<rect width="16" height="16" fill="white"/>
</clipPath>
</defs>
</svg>
