<svg width="16" height="16" viewBox="0 0 16 16" fill="none" xmlns="http://www.w3.org/2000/svg">
<path d="M10.6667 11.9999L12.6667 9.99992M12.6667 9.99992L14.6667 11.9999M12.6667 9.99992V13.9999M14.6667 6.66659H1.33333M14.6667 7.99992V5.46659C14.6667 4.71985 14.6667 4.34648 14.5213 4.06127C14.3935 3.81038 14.1895 3.60641 13.9386 3.47858C13.6534 3.33325 13.2801 3.33325 12.5333 3.33325H3.46666C2.71993 3.33325 2.34656 3.33325 2.06134 3.47858C1.81046 3.60641 1.60648 3.81038 1.47865 4.06126C1.33333 4.34648 1.33333 4.71985 1.33333 5.46659V10.5333C1.33333 11.28 1.33333 11.6534 1.47865 11.9386C1.60648 12.1895 1.81046 12.3934 2.06134 12.5213C2.34656 12.6666 2.71992 12.6666 3.46666 12.6666H7.99999" stroke="black" stroke-width="1.33" stroke-linecap="round" stroke-linejoin="round"/>
</svg>
