<svg width="16" height="16" viewBox="0 0 16 16" fill="none" xmlns="http://www.w3.org/2000/svg">
<path d="M10.6667 11.9999L12.6667 13.9999M12.6667 13.9999L14.6667 11.9999M12.6667 13.9999V9.99992M14.6667 6.66659H1.33334M14.6667 7.99992V5.46659C14.6667 4.71985 14.6667 4.34648 14.5214 4.06127C14.3935 3.81038 14.1895 3.60641 13.9387 3.47858C13.6534 3.33325 13.2801 3.33325 12.5333 3.33325H3.46668C2.71994 3.33325 2.34657 3.33325 2.06136 3.47858C1.81047 3.60641 1.6065 3.81038 1.47867 4.06126C1.33334 4.34648 1.33334 4.71985 1.33334 5.46659V10.5333C1.33334 11.28 1.33334 11.6534 1.47867 11.9386C1.6065 12.1895 1.81047 12.3934 2.06136 12.5213C2.34657 12.6666 2.71994 12.6666 3.46668 12.6666H8.00001" stroke="black" stroke-width="1.33" stroke-linecap="round" stroke-linejoin="round"/>
</svg>
