<svg width="16" height="16" viewBox="0 0 16 16" fill="none" xmlns="http://www.w3.org/2000/svg">
<path d="M5.99999 10.6667L7.99999 8.66675M7.99999 8.66675L9.99999 10.6667M7.99999 8.66675V13.3334M14.6667 6.00008H1.33333M3.66666 12.0001H3.46666C2.71992 12.0001 2.34656 12.0001 2.06134 11.8548C1.81046 11.7269 1.60648 11.523 1.47865 11.2721C1.33333 10.9869 1.33333 10.6135 1.33333 9.86675V4.80008C1.33333 4.05334 1.33333 3.67998 1.47865 3.39476C1.60648 3.14388 1.81046 2.9399 2.06134 2.81207C2.34656 2.66675 2.71993 2.66675 3.46666 2.66675H12.5333C13.2801 2.66675 13.6534 2.66675 13.9386 2.81207C14.1895 2.93991 14.3935 3.14388 14.5213 3.39476C14.6667 3.67998 14.6667 4.05335 14.6667 4.80008V9.86675C14.6667 10.6135 14.6667 10.9869 14.5213 11.2721C14.3935 11.523 14.1895 11.7269 13.9386 11.8548C13.6534 12.0001 13.2801 12.0001 12.5333 12.0001H12.3333" stroke="black" stroke-width="1.33" stroke-linecap="round" stroke-linejoin="round"/>
</svg>
