<svg width="16" height="16" viewBox="0 0 16 16" fill="none" xmlns="http://www.w3.org/2000/svg">
<path d="M6.00001 11.3334L8.00001 13.3334M8.00001 13.3334L10 11.3334M8.00001 13.3334V8.66675M14.6667 6.00008H1.33334M3.66668 12.0001H3.46668C2.71994 12.0001 2.34657 12.0001 2.06136 11.8548C1.81047 11.7269 1.6065 11.523 1.47867 11.2721C1.33334 10.9869 1.33334 10.6135 1.33334 9.86675V4.80008C1.33334 4.05334 1.33334 3.67998 1.47867 3.39476C1.6065 3.14388 1.81047 2.9399 2.06136 2.81207C2.34657 2.66675 2.71994 2.66675 3.46668 2.66675H12.5333C13.2801 2.66675 13.6534 2.66675 13.9387 2.81207C14.1895 2.93991 14.3935 3.14388 14.5214 3.39476C14.6667 3.67998 14.6667 4.05335 14.6667 4.80008V9.86675C14.6667 10.6135 14.6667 10.9869 14.5214 11.2721C14.3935 11.523 14.1895 11.7269 13.9387 11.8548C13.6534 12.0001 13.2801 12.0001 12.5333 12.0001H12.3333" stroke="black" stroke-width="1.33" stroke-linecap="round" stroke-linejoin="round"/>
</svg>
