<svg width="16" height="16" viewBox="0 0 16 16" fill="none" xmlns="http://www.w3.org/2000/svg">
<path d="M11.9186 13.3935C10.7796 14.221 9.40786 14.6667 8 14.6667C6.59214 14.6667 5.22041 14.221 4.08143 13.3935M10.9225 2.00812C12.1878 2.62529 13.2254 3.6272 13.8863 4.87027C14.5473 6.11334 14.7977 7.53374 14.6018 8.9279M1.39828 8.92784C1.20234 7.53368 1.45279 6.11327 2.11375 4.87021C2.7747 3.62714 3.81221 2.62522 5.07759 2.00806M11.6667 8.00008C11.6667 10.0251 10.025 11.6667 8 11.6667C5.97495 11.6667 4.33333 10.0251 4.33333 8.00008C4.33333 5.97504 5.97495 4.33342 8 4.33342C10.025 4.33342 11.6667 5.97504 11.6667 8.00008Z" stroke="black" stroke-width="1.33" stroke-linecap="round" stroke-linejoin="round"/>
</svg>
