<svg width="16" height="16" viewBox="0 0 16 16" fill="none" xmlns="http://www.w3.org/2000/svg">
<path d="M11.9186 13.3935C10.7796 14.221 9.40786 14.6667 8 14.6667C6.59214 14.6667 5.22041 14.221 4.08143 13.3935M10.9225 2.00812C12.1878 2.62529 13.2254 3.6272 13.8863 4.87027C14.5473 6.11334 14.7977 7.53374 14.6018 8.9279M1.39828 8.92784C1.20234 7.53368 1.45279 6.11327 2.11375 4.87021C2.7747 3.62714 3.81221 2.62522 5.07759 2.00806M7.62287 4.37721L4.37712 7.62296C4.24512 7.75496 4.17911 7.82097 4.15438 7.89708C4.13263 7.96402 4.13263 8.03614 4.15438 8.10309C4.17911 8.1792 4.24512 8.2452 4.37712 8.37721L7.62287 11.623C7.75488 11.755 7.82088 11.821 7.89699 11.8457C7.96394 11.8674 8.03606 11.8674 8.103 11.8457C8.17911 11.821 8.24512 11.755 8.37712 11.623L11.6229 8.37721C11.7549 8.2452 11.8209 8.1792 11.8456 8.10309C11.8674 8.03614 11.8674 7.96402 11.8456 7.89708C11.8209 7.82097 11.7549 7.75496 11.6229 7.62296L8.37712 4.37721C8.24512 4.2452 8.17911 4.1792 8.103 4.15447C8.03606 4.13272 7.96394 4.13272 7.89699 4.15447C7.82088 4.1792 7.75488 4.2452 7.62287 4.37721Z" stroke="black" stroke-width="1.33" stroke-linecap="round" stroke-linejoin="round"/>
</svg>
