<svg width="16" height="16" viewBox="0 0 16 16" fill="none" xmlns="http://www.w3.org/2000/svg">
<path d="M6.5 13.8333L7.48198 14.3789C7.67105 14.4839 7.76559 14.5365 7.8657 14.557C7.95431 14.5753 8.0457 14.5753 8.1343 14.557C8.23442 14.5365 8.32895 14.4839 8.51802 14.3789L9.5 13.8333M3.5 12.1667L2.54865 11.6382C2.34897 11.5272 2.24912 11.4717 2.17642 11.3929C2.11211 11.3231 2.06343 11.2403 2.03366 11.1502C2 11.0484 2 10.9341 2 10.7057V9.66668M2 6.33335V5.29431C2 5.06589 2 4.95167 2.03366 4.84981C2.06343 4.75969 2.11211 4.67697 2.17642 4.60717C2.24912 4.52828 2.34897 4.47281 2.54865 4.36188L3.5 3.83335M6.5 2.16668L7.48198 1.62114C7.67105 1.5161 7.76559 1.46358 7.8657 1.44299C7.95431 1.42477 8.0457 1.42477 8.1343 1.44299C8.23442 1.46358 8.32895 1.5161 8.51802 1.62114L9.5 2.16668M12.5 3.83335L13.4514 4.36188C13.651 4.47281 13.7509 4.52828 13.8236 4.60717C13.8879 4.67696 13.9366 4.75969 13.9663 4.8498C14 4.95167 14 5.06588 14 5.29431V6.33335M14 9.66668V10.7057C14 10.9341 14 11.0484 13.9663 11.1502C13.9366 11.2403 13.8879 11.3231 13.8236 11.3929C13.7509 11.4718 13.651 11.5272 13.4514 11.6382L12.5 12.1667M6.5 7.16668L8 8.00002M8 8.00002L9.5 7.16668M8 8.00002V9.66668M2 4.66668L3.5 5.50002M12.5 5.50002L14 4.66668M8 13V14.6667" stroke="black" stroke-width="1.33" stroke-linecap="round" stroke-linejoin="round"/>
</svg>
