<svg width="16" height="16" viewBox="0 0 16 16" fill="none" xmlns="http://www.w3.org/2000/svg">
<g clip-path="url(#clip0_7140_50922)">
<path d="M5.66666 9.7777C5.66666 10.6368 6.36311 11.3333 7.22222 11.3333H8.66666C9.58714 11.3333 10.3333 10.5871 10.3333 9.66658C10.3333 8.74611 9.58714 7.99992 8.66666 7.99992H7.33333C6.41285 7.99992 5.66666 7.25373 5.66666 6.33325C5.66666 5.41278 6.41285 4.66659 7.33333 4.66659H8.77777C9.63688 4.66659 10.3333 5.36303 10.3333 6.22214M7.99999 3.66659V4.66659M7.99999 11.3333V12.3333M14.6667 7.99992C14.6667 11.6818 11.6819 14.6666 7.99999 14.6666C4.3181 14.6666 1.33333 11.6818 1.33333 7.99992C1.33333 4.31802 4.3181 1.33325 7.99999 1.33325C11.6819 1.33325 14.6667 4.31802 14.6667 7.99992Z" stroke="black" stroke-width="1.33" stroke-linecap="round" stroke-linejoin="round"/>
</g>
<defs>
<clipPath id="clip0_7140_50922">
<rect width="16" height="16" fill="white"/>
</clipPath>
</defs>
</svg>
