<svg width="16" height="16" viewBox="0 0 16 16" fill="none" xmlns="http://www.w3.org/2000/svg">
<g clip-path="url(#clip0_7140_50934)">
<path d="M10.2222 5.51536C9.63249 4.98753 8.85372 4.66659 7.99999 4.66659C6.15905 4.66659 4.66666 6.15897 4.66666 7.99992C4.66666 9.84087 6.15905 11.3333 7.99999 11.3333C8.85372 11.3333 9.63249 11.0123 10.2222 10.4845M3.99999 8.99992H7.33333M3.99999 6.99992H7.33333M14.6667 7.99992C14.6667 11.6818 11.6819 14.6666 7.99999 14.6666C4.3181 14.6666 1.33333 11.6818 1.33333 7.99992C1.33333 4.31802 4.3181 1.33325 7.99999 1.33325C11.6819 1.33325 14.6667 4.31802 14.6667 7.99992Z" stroke="black" stroke-width="1.33" stroke-linecap="round" stroke-linejoin="round"/>
</g>
<defs>
<clipPath id="clip0_7140_50934">
<rect width="16" height="16" fill="white"/>
</clipPath>
</defs>
</svg>
