<svg width="16" height="16" viewBox="0 0 16 16" fill="none" xmlns="http://www.w3.org/2000/svg">
<path d="M14 3.33337C14 4.43794 11.3137 5.33337 8 5.33337C4.68629 5.33337 2 4.43794 2 3.33337M14 3.33337C14 2.2288 11.3137 1.33337 8 1.33337C4.68629 1.33337 2 2.2288 2 3.33337M14 3.33337V12.6667C14 13.7734 11.3333 14.6667 8 14.6667C4.66667 14.6667 2 13.7734 2 12.6667V3.33337M14 6.48018C14 7.58685 11.3333 8.48018 8 8.48018C4.66667 8.48018 2 7.58685 2 6.48018M14 9.62671C14 10.7334 11.3333 11.6267 8 11.6267C4.66667 11.6267 2 10.7334 2 9.62671" stroke="black" stroke-width="1.33" stroke-linecap="round" stroke-linejoin="round"/>
</svg>
