<svg width="16" height="16" viewBox="0 0 16 16" fill="none" xmlns="http://www.w3.org/2000/svg">
<g clip-path="url(#clip0_7140_51959)">
<path d="M9.99992 3.78243C11.5765 4.53141 12.6666 6.13841 12.6666 8.00001M5.59486 12C4.23964 11.1834 3.33325 9.69753 3.33325 7.99998M14.6666 8.00001C14.6666 11.6819 11.6818 14.6667 7.99992 14.6667C4.31802 14.6667 1.33325 11.6819 1.33325 8.00001C1.33325 4.31811 4.31802 1.33334 7.99992 1.33334C11.6818 1.33334 14.6666 4.31811 14.6666 8.00001ZM9.99992 8.00001C9.99992 9.10458 9.10449 10 7.99992 10C6.89535 10 5.99992 9.10458 5.99992 8.00001C5.99992 6.89544 6.89535 6.00001 7.99992 6.00001C9.10449 6.00001 9.99992 6.89544 9.99992 8.00001Z" stroke="black" stroke-width="1.33" stroke-linecap="round" stroke-linejoin="round"/>
</g>
<defs>
<clipPath id="clip0_7140_51959">
<rect width="16" height="16" fill="white"/>
</clipPath>
</defs>
</svg>
