<svg width="16" height="16" viewBox="0 0 16 16" fill="none" xmlns="http://www.w3.org/2000/svg">
<g clip-path="url(#clip0_7140_51177)">
<path d="M8.00001 5.33334H8.00668M8.00001 10.6667H8.00668M4.66668 8.00001H11.3333M8.33334 5.33334C8.33334 5.51744 8.1841 5.66668 8.00001 5.66668C7.81591 5.66668 7.66668 5.51744 7.66668 5.33334C7.66668 5.14925 7.81591 5.00001 8.00001 5.00001C8.1841 5.00001 8.33334 5.14925 8.33334 5.33334ZM8.33334 10.6667C8.33334 10.8508 8.1841 11 8.00001 11C7.81591 11 7.66668 10.8508 7.66668 10.6667C7.66668 10.4826 7.81591 10.3333 8.00001 10.3333C8.1841 10.3333 8.33334 10.4826 8.33334 10.6667ZM14.6667 8.00001C14.6667 11.6819 11.6819 14.6667 8.00001 14.6667C4.31811 14.6667 1.33334 11.6819 1.33334 8.00001C1.33334 4.31811 4.31811 1.33334 8.00001 1.33334C11.6819 1.33334 14.6667 4.31811 14.6667 8.00001Z" stroke="black" stroke-width="1.33" stroke-linecap="round" stroke-linejoin="round"/>
</g>
<defs>
<clipPath id="clip0_7140_51177">
<rect width="16" height="16" fill="white"/>
</clipPath>
</defs>
</svg>
