<svg width="16" height="16" viewBox="0 0 16 16" fill="none" xmlns="http://www.w3.org/2000/svg">
<path d="M14 3.33325L6.66667 3.33325M14 12.6666L6.66667 12.6666M14 7.99992L6.66667 7.99992M4 3.33325C4 3.88554 3.55228 4.33325 3 4.33325C2.44772 4.33325 2 3.88554 2 3.33325C2 2.78097 2.44772 2.33325 3 2.33325C3.55228 2.33325 4 2.78097 4 3.33325ZM4 12.6666C4 13.2189 3.55228 13.6666 3 13.6666C2.44772 13.6666 2 13.2189 2 12.6666C2 12.1143 2.44772 11.6666 3 11.6666C3.55228 11.6666 4 12.1143 4 12.6666ZM4 7.99992C4 8.5522 3.55228 8.99992 3 8.99992C2.44772 8.99992 2 8.5522 2 7.99992C2 7.44763 2.44772 6.99992 3 6.99992C3.55228 6.99992 4 7.44763 4 7.99992Z" stroke="black" stroke-width="1.33" stroke-linecap="round" stroke-linejoin="round"/>
</svg>
