<svg width="16" height="16" viewBox="0 0 16 16" fill="none" xmlns="http://www.w3.org/2000/svg">
<path d="M10.3333 3.99999C10.7015 3.99999 11 3.70151 11 3.33332C11 2.96513 10.7015 2.66666 10.3333 2.66666C9.96514 2.66666 9.66667 2.96513 9.66667 3.33332C9.66667 3.70151 9.96514 3.99999 10.3333 3.99999Z" stroke="black" stroke-width="1.33" stroke-linecap="round" stroke-linejoin="round"/>
<path d="M10.3333 8.66666C10.7015 8.66666 11 8.36818 11 7.99999C11 7.6318 10.7015 7.33332 10.3333 7.33332C9.96514 7.33332 9.66667 7.6318 9.66667 7.99999C9.66667 8.36818 9.96514 8.66666 10.3333 8.66666Z" stroke="black" stroke-width="1.33" stroke-linecap="round" stroke-linejoin="round"/>
<path d="M10.3333 13.3333C10.7015 13.3333 11 13.0348 11 12.6667C11 12.2985 10.7015 12 10.3333 12C9.96514 12 9.66667 12.2985 9.66667 12.6667C9.66667 13.0348 9.96514 13.3333 10.3333 13.3333Z" stroke="black" stroke-width="1.33" stroke-linecap="round" stroke-linejoin="round"/>
<path d="M5.66667 3.99999C6.03486 3.99999 6.33333 3.70151 6.33333 3.33332C6.33333 2.96513 6.03486 2.66666 5.66667 2.66666C5.29848 2.66666 5 2.96513 5 3.33332C5 3.70151 5.29848 3.99999 5.66667 3.99999Z" stroke="black" stroke-width="1.33" stroke-linecap="round" stroke-linejoin="round"/>
<path d="M5.66667 8.66666C6.03486 8.66666 6.33333 8.36818 6.33333 7.99999C6.33333 7.6318 6.03486 7.33332 5.66667 7.33332C5.29848 7.33332 5 7.6318 5 7.99999C5 8.36818 5.29848 8.66666 5.66667 8.66666Z" stroke="black" stroke-width="1.33" stroke-linecap="round" stroke-linejoin="round"/>
<path d="M5.66667 13.3333C6.03486 13.3333 6.33333 13.0348 6.33333 12.6667C6.33333 12.2985 6.03486 12 5.66667 12C5.29848 12 5 12.2985 5 12.6667C5 13.0348 5.29848 13.3333 5.66667 13.3333Z" stroke="black" stroke-width="1.33" stroke-linecap="round" stroke-linejoin="round"/>
</svg>
