<svg width="16" height="16" viewBox="0 0 16 16" fill="none" xmlns="http://www.w3.org/2000/svg">
<g clip-path="url(#clip0_7140_51507)">
<path d="M7.33333 2.66666H4.53333C3.41322 2.66666 2.85317 2.66666 2.42535 2.88464C2.04902 3.07639 1.74306 3.38235 1.55132 3.75867C1.33333 4.1865 1.33333 4.74655 1.33333 5.86666V11.4667C1.33333 12.5868 1.33333 13.1468 1.55132 13.5746C1.74306 13.951 2.04902 14.2569 2.42535 14.4487C2.85317 14.6667 3.41322 14.6667 4.53333 14.6667H10.1333C11.2534 14.6667 11.8135 14.6667 12.2413 14.4487C12.6176 14.2569 12.9236 13.951 13.1153 13.5746C13.3333 13.1468 13.3333 12.5868 13.3333 11.4667V8.66666M5.33331 10.6667H6.44967C6.77579 10.6667 6.93885 10.6667 7.0923 10.6298C7.22835 10.5972 7.35841 10.5433 7.47771 10.4702C7.61226 10.3877 7.72756 10.2724 7.95817 10.0418L14.3333 3.66666C14.8856 3.11437 14.8856 2.21894 14.3333 1.66666C13.781 1.11437 12.8856 1.11437 12.3333 1.66665L5.95815 8.04182C5.72755 8.27242 5.61225 8.38772 5.52979 8.52228C5.45669 8.64157 5.40281 8.77163 5.37015 8.90768C5.33331 9.06113 5.33331 9.22419 5.33331 9.55031V10.6667Z" stroke="black" stroke-width="1.33" stroke-linecap="round" stroke-linejoin="round"/>
</g>
<defs>
<clipPath id="clip0_7140_51507">
<rect width="16" height="16" fill="white"/>
</clipPath>
</defs>
</svg>
