<svg width="16" height="16" viewBox="0 0 16 16" fill="none" xmlns="http://www.w3.org/2000/svg">
<path d="M14 12L13.3333 12.7293C12.9797 13.116 12.5001 13.3333 12.0001 13.3333C11.5001 13.3333 11.0205 13.116 10.6669 12.7293C10.3128 12.3434 9.83333 12.1267 9.33347 12.1267C8.8336 12.1267 8.35411 12.3434 8 12.7293M2.00002 13.3333H3.11638C3.4425 13.3333 3.60556 13.3333 3.75901 13.2964C3.89506 13.2638 4.02512 13.2099 4.14441 13.1368C4.27897 13.0543 4.39427 12.939 4.62487 12.7084L13 4.33328C13.5523 3.781 13.5523 2.88557 13 2.33328C12.4477 1.781 11.5523 1.781 11 2.33328L2.62486 10.7084C2.39425 10.939 2.27895 11.0543 2.1965 11.1889C2.12339 11.3082 2.06952 11.4383 2.03686 11.5743C2.00002 11.7278 2.00002 11.8908 2.00002 12.2169V13.3333Z" stroke="black" stroke-width="1.33" stroke-linecap="round" stroke-linejoin="round"/>
</svg>
