<svg width="16" height="16" viewBox="0 0 16 16" fill="none" xmlns="http://www.w3.org/2000/svg">
<g clip-path="url(#clip0_7140_51801)">
<path d="M10.6666 10.6666C10.6666 10.6666 9.66665 9.33331 7.99998 9.33331C6.33331 9.33331 5.33331 10.6666 5.33331 10.6666M11.3333 6.15998C11.07 6.48331 10.71 6.66664 10.3333 6.66664C9.95665 6.66664 9.60665 6.48331 9.33331 6.15998M6.66665 6.15998C6.40331 6.48331 6.04331 6.66664 5.66665 6.66664C5.28998 6.66664 4.93998 6.48331 4.66665 6.15998M14.6666 7.99998C14.6666 11.6819 11.6819 14.6666 7.99998 14.6666C4.31808 14.6666 1.33331 11.6819 1.33331 7.99998C1.33331 4.31808 4.31808 1.33331 7.99998 1.33331C11.6819 1.33331 14.6666 4.31808 14.6666 7.99998Z" stroke="black" stroke-width="1.33" stroke-linecap="round" stroke-linejoin="round"/>
</g>
<defs>
<clipPath id="clip0_7140_51801">
<rect width="16" height="16" fill="white"/>
</clipPath>
</defs>
</svg>
