<svg width="16" height="16" viewBox="0 0 16 16" fill="none" xmlns="http://www.w3.org/2000/svg">
<path d="M14.6665 10.958C14.6665 11.7114 14.6665 12.088 14.5143 12.2727C14.3821 12.4331 14.1826 12.5227 13.9749 12.5149C13.7357 12.506 13.4542 12.2557 12.8911 11.7552L9.56335 8.7972C9.25315 8.52148 9.09806 8.38361 9.0409 8.22082C8.99071 8.07786 8.99071 7.92207 9.0409 7.77911C9.09806 7.61632 9.25315 7.47846 9.56335 7.20273L12.8911 4.2447C13.4542 3.7442 13.7357 3.49395 13.9749 3.485C14.1826 3.47722 14.3821 3.5668 14.5143 3.72723C14.6665 3.9119 14.6665 4.28858 14.6665 5.04193V10.958Z" stroke="black" stroke-width="1.33" stroke-linecap="round" stroke-linejoin="round"/>
<path d="M7.33312 10.958C7.33312 11.7114 7.33312 12.088 7.18095 12.2727C7.04874 12.4331 6.84926 12.5227 6.64152 12.5149C6.4024 12.506 6.12086 12.2557 5.5578 11.7552L2.23001 8.7972C1.91982 8.52148 1.76472 8.38361 1.70757 8.22082C1.65737 8.07786 1.65737 7.92207 1.70757 7.77911C1.76472 7.61632 1.91982 7.47846 2.23001 7.20273L5.5578 4.2447C6.12086 3.7442 6.4024 3.49395 6.64152 3.485C6.84926 3.47722 7.04874 3.5668 7.18095 3.72723C7.33312 3.9119 7.33312 4.28858 7.33312 5.04193V10.958Z" stroke="black" stroke-width="1.33" stroke-linecap="round" stroke-linejoin="round"/>
</svg>
