<svg width="16" height="16" viewBox="0 0 16 16" fill="none" xmlns="http://www.w3.org/2000/svg">
<path d="M8.33333 1.33337H10.1333C11.2534 1.33337 11.8135 1.33337 12.2413 1.55136C12.6176 1.74311 12.9236 2.04907 13.1153 2.42539C13.3333 2.85322 13.3333 3.41327 13.3333 4.53337V11.4667C13.3333 12.5868 13.3333 13.1469 13.1153 13.5747C12.9236 13.951 12.6176 14.257 12.2413 14.4487C11.8135 14.6667 11.2534 14.6667 10.1333 14.6667H5.86667C4.74656 14.6667 4.18651 14.6667 3.75869 14.4487C3.38236 14.257 3.0764 13.951 2.88465 13.5747C2.66667 13.1469 2.66667 12.5868 2.66667 11.4667V11M10.6667 8.66671H7.66667M10.6667 6.00004H8.33333M10.6667 11.3334H5.33333M4 6.66671V3.00004C4 2.44776 4.44772 2.00004 5 2.00004C5.55228 2.00004 6 2.44776 6 3.00004V6.66671C6 7.77128 5.10457 8.66671 4 8.66671C2.89543 8.66671 2 7.77128 2 6.66671V4.00004" stroke="black" stroke-width="1.33" stroke-linecap="round" stroke-linejoin="round"/>
</svg>
