<svg width="16" height="16" viewBox="0 0 16 16" fill="none" xmlns="http://www.w3.org/2000/svg">
<path d="M9.33335 1.51306V4.26676C9.33335 4.64012 9.33335 4.82681 9.40602 4.96941C9.46993 5.09486 9.57192 5.19684 9.69736 5.26076C9.83997 5.33342 10.0267 5.33342 10.4 5.33342H13.1537M9.33335 11.3334H5.33335M10.6667 8.66671H5.33335M13.3334 6.65886V11.4667C13.3334 12.5868 13.3334 13.1469 13.1154 13.5747C12.9236 13.951 12.6177 14.257 12.2413 14.4487C11.8135 14.6667 11.2535 14.6667 10.1334 14.6667H5.86669C4.74658 14.6667 4.18653 14.6667 3.75871 14.4487C3.38238 14.257 3.07642 13.951 2.88467 13.5747C2.66669 13.1469 2.66669 12.5868 2.66669 11.4667V4.53337C2.66669 3.41327 2.66669 2.85322 2.88467 2.42539C3.07642 2.04907 3.38238 1.74311 3.75871 1.55136C4.18653 1.33337 4.74658 1.33337 5.86669 1.33337H8.00787C8.49705 1.33337 8.74164 1.33337 8.97182 1.38863C9.17589 1.43763 9.37098 1.51844 9.54992 1.62809C9.75176 1.75178 9.92471 1.92473 10.2706 2.27063L12.3961 4.39612C12.742 4.74202 12.915 4.91497 13.0386 5.1168C13.1483 5.29575 13.2291 5.49084 13.2781 5.69491C13.3334 5.92509 13.3334 6.16968 13.3334 6.65886Z" stroke="black" stroke-width="1.33" stroke-linecap="round" stroke-linejoin="round"/>
</svg>
