<svg width="16" height="16" viewBox="0 0 16 16" fill="none" xmlns="http://www.w3.org/2000/svg">
<path d="M9.33341 1.33337H5.86675C4.74664 1.33337 4.18659 1.33337 3.75877 1.55136C3.38244 1.74311 3.07648 2.04907 2.88474 2.42539C2.66675 2.85322 2.66675 3.41327 2.66675 4.53337V11.4667C2.66675 12.5868 2.66675 13.1469 2.88474 13.5747C3.07648 13.951 3.38244 14.257 3.75877 14.4487C4.18659 14.6667 4.74664 14.6667 5.86675 14.6667H10.1334C11.2535 14.6667 11.8136 14.6667 12.2414 14.4487C12.6177 14.257 12.9237 13.951 13.1154 13.5747C13.3334 13.1469 13.3334 12.5868 13.3334 11.4667V5.33337M9.33341 1.33337L13.3334 5.33337M9.33341 1.33337V5.33337H13.3334M9.16675 9.33337V8.16671C9.16675 7.52237 8.64441 7.00004 8.00008 7.00004C7.35575 7.00004 6.83341 7.52237 6.83341 8.16671V9.33337M6.73341 12H9.26675C9.64012 12 9.8268 12 9.96941 11.9274C10.0949 11.8635 10.1968 11.7615 10.2608 11.636C10.3334 11.4934 10.3334 11.3067 10.3334 10.9334V10.4C10.3334 10.0267 10.3334 9.83999 10.2608 9.69738C10.1968 9.57194 10.0949 9.46995 9.96941 9.40604C9.8268 9.33337 9.64012 9.33337 9.26675 9.33337H6.73341C6.36005 9.33337 6.17336 9.33337 6.03075 9.40604C5.90531 9.46995 5.80333 9.57194 5.73941 9.69738C5.66675 9.83999 5.66675 10.0267 5.66675 10.4V10.9334C5.66675 11.3067 5.66675 11.4934 5.73941 11.636C5.80333 11.7615 5.90531 11.8635 6.03075 11.9274C6.17336 12 6.36005 12 6.73341 12Z" stroke="black" stroke-width="1.33" stroke-linecap="round" stroke-linejoin="round"/>
</svg>
