<svg width="16" height="16" viewBox="0 0 16 16" fill="none" xmlns="http://www.w3.org/2000/svg">
<path d="M13.3334 6.66671V4.53337C13.3334 3.41327 13.3334 2.85322 13.1154 2.42539C12.9237 2.04907 12.6177 1.74311 12.2414 1.55136C11.8136 1.33337 11.2535 1.33337 10.1334 1.33337H5.86675C4.74664 1.33337 4.18659 1.33337 3.75877 1.55136C3.38244 1.74311 3.07648 2.04907 2.88473 2.42539C2.66675 2.85322 2.66675 3.41327 2.66675 4.53337V11.4667C2.66675 12.5868 2.66675 13.1469 2.88473 13.5747C3.07648 13.951 3.38244 14.257 3.75877 14.4487C4.18659 14.6667 4.74664 14.6667 5.86675 14.6667H7.00008M8.66675 7.33337H5.33341M7.33341 10H5.33341M10.6667 4.66671H5.33341M12.8334 11.3334V10.1667C12.8334 9.52237 12.3111 9.00004 11.6667 9.00004C11.0224 9.00004 10.5001 9.52237 10.5001 10.1667V11.3334M10.4001 14H12.9334C13.3068 14 13.4935 14 13.6361 13.9274C13.7615 13.8635 13.8635 13.7615 13.9274 13.636C14.0001 13.4934 14.0001 13.3067 14.0001 12.9334V12.4C14.0001 12.0267 14.0001 11.84 13.9274 11.6974C13.8635 11.5719 13.7615 11.47 13.6361 11.406C13.4935 11.3334 13.3068 11.3334 12.9334 11.3334H10.4001C10.0267 11.3334 9.84003 11.3334 9.69742 11.406C9.57198 11.47 9.46999 11.5719 9.40608 11.6974C9.33341 11.84 9.33341 12.0267 9.33341 12.4V12.9334C9.33341 13.3067 9.33341 13.4934 9.40608 13.636C9.46999 13.7615 9.57198 13.8635 9.69742 13.9274C9.84003 14 10.0267 14 10.4001 14Z" stroke="black" stroke-width="1.33" stroke-linecap="round" stroke-linejoin="round"/>
</svg>
