<svg width="16" height="16" viewBox="0 0 16 16" fill="none" xmlns="http://www.w3.org/2000/svg">
<path d="M9.33329 1.51306V4.26676C9.33329 4.64012 9.33329 4.82681 9.40596 4.96941C9.46987 5.09486 9.57186 5.19684 9.6973 5.26076C9.83991 5.33342 10.0266 5.33342 10.4 5.33342H13.1537M10.6666 12.3334L9.66663 11.3334M9.33329 1.33337H5.86663C4.74652 1.33337 4.18647 1.33337 3.75865 1.55136C3.38232 1.74311 3.07636 2.04907 2.88461 2.42539C2.66663 2.85322 2.66663 3.41327 2.66663 4.53337V11.4667C2.66663 12.5868 2.66663 13.1469 2.88461 13.5747C3.07636 13.951 3.38232 14.257 3.75865 14.4487C4.18647 14.6667 4.74652 14.6667 5.86663 14.6667H10.1333C11.2534 14.6667 11.8135 14.6667 12.2413 14.4487C12.6176 14.257 12.9236 13.951 13.1153 13.5747C13.3333 13.1469 13.3333 12.5868 13.3333 11.4667V5.33337L9.33329 1.33337ZM10.3333 9.66671C10.3333 10.9554 9.28862 12 7.99996 12C6.71129 12 5.66663 10.9554 5.66663 9.66671C5.66663 8.37804 6.71129 7.33337 7.99996 7.33337C9.28862 7.33337 10.3333 8.37804 10.3333 9.66671Z" stroke="black" stroke-width="1.33" stroke-linecap="round" stroke-linejoin="round"/>
</svg>
