<svg width="16" height="16" viewBox="0 0 16 16" fill="none" xmlns="http://www.w3.org/2000/svg">
<path d="M13.3334 6.66671V4.53337C13.3334 3.41327 13.3334 2.85322 13.1154 2.42539C12.9237 2.04907 12.6177 1.74311 12.2414 1.55136C11.8136 1.33337 11.2535 1.33337 10.1334 1.33337H5.86675C4.74664 1.33337 4.18659 1.33337 3.75877 1.55136C3.38244 1.74311 3.07648 2.04907 2.88473 2.42539C2.66675 2.85322 2.66675 3.41327 2.66675 4.53337V11.4667C2.66675 12.5868 2.66675 13.1469 2.88473 13.5747C3.07648 13.951 3.38244 14.257 3.75877 14.4487C4.18659 14.6667 4.74664 14.6667 5.86675 14.6667H8.33341M12.0001 14C12.0001 14 14.0001 13.0468 14.0001 11.6169V9.94863L12.5417 9.42751C12.1913 9.302 11.8081 9.302 11.4577 9.42751L10.0001 9.94863V11.6169C10.0001 13.0468 12.0001 14 12.0001 14Z" stroke="black" stroke-width="1.33" stroke-linecap="round" stroke-linejoin="round"/>
</svg>
