<svg width="16" height="16" viewBox="0 0 16 16" fill="none" xmlns="http://www.w3.org/2000/svg">
<path d="M9.33329 1.51306V4.26676C9.33329 4.64012 9.33329 4.82681 9.40596 4.96941C9.46987 5.09486 9.57186 5.19684 9.6973 5.26076C9.83991 5.33342 10.0266 5.33342 10.4 5.33342H13.1537M6.56661 8.00153C6.68407 7.66761 6.91593 7.38604 7.2211 7.20669C7.52627 7.02734 7.88507 6.96178 8.23395 7.02162C8.58283 7.08146 8.89928 7.26284 9.12724 7.53364C9.3552 7.80444 9.47996 8.14718 9.47944 8.50116C9.47944 9.50041 7.98056 10 7.98056 10M7.99996 12H8.00663M9.33329 1.33337H5.86663C4.74652 1.33337 4.18647 1.33337 3.75865 1.55136C3.38232 1.74311 3.07636 2.04907 2.88461 2.42539C2.66663 2.85322 2.66663 3.41327 2.66663 4.53337V11.4667C2.66663 12.5868 2.66663 13.1469 2.88461 13.5747C3.07636 13.951 3.38232 14.257 3.75865 14.4487C4.18647 14.6667 4.74652 14.6667 5.86663 14.6667H10.1333C11.2534 14.6667 11.8135 14.6667 12.2413 14.4487C12.6176 14.257 12.9236 13.951 13.1153 13.5747C13.3333 13.1469 13.3333 12.5868 13.3333 11.4667V5.33337L9.33329 1.33337Z" stroke="black" stroke-width="1.33" stroke-linecap="round" stroke-linejoin="round"/>
</svg>
