<svg width="16" height="16" viewBox="0 0 16 16" fill="none" xmlns="http://www.w3.org/2000/svg">
<path d="M9.33329 7.33337H5.33329M6.66663 10H5.33329M10.6666 4.66671H5.33329M13.3333 8.00004V4.53337C13.3333 3.41327 13.3333 2.85322 13.1153 2.42539C12.9236 2.04907 12.6176 1.74311 12.2413 1.55136C11.8134 1.33337 11.2534 1.33337 10.1333 1.33337H5.86663C4.74652 1.33337 4.18647 1.33337 3.75864 1.55136C3.38232 1.74311 3.07636 2.04907 2.88461 2.42539C2.66663 2.85322 2.66663 3.41327 2.66663 4.53337V11.4667C2.66663 12.5868 2.66663 13.1469 2.88461 13.5747C3.07636 13.951 3.38232 14.257 3.75864 14.4487C4.18647 14.6667 4.74652 14.6667 5.86663 14.6667H7.99996M10.6666 10.6667L14 14M14 10.6667L10.6666 14" stroke="black" stroke-width="1.33" stroke-linecap="round" stroke-linejoin="round"/>
</svg>
