<svg width="16" height="16" viewBox="0 0 16 16" fill="none" xmlns="http://www.w3.org/2000/svg">
<path d="M3.33334 12.3334C3.33334 12.643 3.33334 12.7978 3.35045 12.9278C3.4686 13.8252 4.17482 14.5314 5.07229 14.6496C5.20225 14.6667 5.35706 14.6667 5.66667 14.6667H10.8C11.9201 14.6667 12.4802 14.6667 12.908 14.4487C13.2843 14.257 13.5903 13.951 13.782 13.5747C14 13.1469 14 12.5868 14 11.4667V6.65886C14 6.16968 14 5.92509 13.9447 5.69491C13.8958 5.49084 13.8149 5.29575 13.7053 5.1168C13.5816 4.91497 13.4086 4.74201 13.0627 4.39612L10.9373 2.27063C10.5914 1.92473 10.4184 1.75178 10.2166 1.62809C10.0376 1.51844 9.84254 1.43763 9.63847 1.38863C9.40829 1.33337 9.1637 1.33337 8.67452 1.33337H5.66667C5.35706 1.33337 5.20225 1.33337 5.07229 1.35048C4.17482 1.46864 3.4686 2.17485 3.35045 3.07232C3.33334 3.20229 3.33334 3.35709 3.33334 3.66671M6 9.66671L7.66667 8.00004L6 6.33337M3.33334 6.33337L1.66667 8.00004L3.33334 9.66671" stroke="black" stroke-width="1.33" stroke-linecap="round" stroke-linejoin="round"/>
</svg>
