<svg width="16" height="16" viewBox="0 0 16 16" fill="none" xmlns="http://www.w3.org/2000/svg">
<path d="M1.33333 3.06667C1.33333 2.6933 1.33333 2.50661 1.40599 2.36401C1.46991 2.23856 1.57189 2.13658 1.69733 2.07266C1.83994 2 2.02663 2 2.39999 2H13.6C13.9734 2 14.16 2 14.3027 2.07266C14.4281 2.13658 14.5301 2.23856 14.594 2.36401C14.6667 2.50661 14.6667 2.6933 14.6667 3.06667V3.51293C14.6667 3.69213 14.6667 3.78173 14.6448 3.86504C14.6254 3.93887 14.5934 4.00882 14.5503 4.07184C14.5017 4.14295 14.434 4.20164 14.2986 4.319L10.0347 8.01434C9.89932 8.1317 9.83161 8.19038 9.78299 8.26149C9.7399 8.32451 9.70796 8.39446 9.68856 8.46829C9.66666 8.55161 9.66666 8.64121 9.66666 8.8204V12.3056C9.66666 12.436 9.66666 12.5011 9.64563 12.5575C9.62705 12.6073 9.59684 12.6519 9.5575 12.6877C9.51298 12.7281 9.45245 12.7524 9.3314 12.8008L7.06474 13.7074C6.81971 13.8054 6.69719 13.8545 6.59884 13.834C6.51284 13.8161 6.43736 13.765 6.38883 13.6918C6.33333 13.6081 6.33333 13.4762 6.33333 13.2122V8.8204C6.33333 8.64121 6.33333 8.55161 6.31143 8.46829C6.29203 8.39446 6.26008 8.32451 6.217 8.26149C6.16838 8.19038 6.10067 8.1317 5.96525 8.01434L1.7014 4.319C1.56598 4.20164 1.49828 4.14295 1.44966 4.07184C1.40657 4.00882 1.37463 3.93887 1.35523 3.86504C1.33333 3.78173 1.33333 3.69213 1.33333 3.51293V3.06667Z" stroke="black" stroke-width="1.33" stroke-linecap="round" stroke-linejoin="round"/>
</svg>
