<svg width="16" height="16" viewBox="0 0 16 16" fill="none" xmlns="http://www.w3.org/2000/svg">
<path d="M2.66666 14L2.66666 2.66667M2.66666 8.66667H7.59999C7.97336 8.66667 8.16004 8.66667 8.30265 8.594C8.42809 8.53009 8.53008 8.4281 8.59399 8.30266C8.66666 8.16005 8.66666 7.97337 8.66666 7.6V3.06667C8.66666 2.6933 8.66666 2.50661 8.59399 2.36401C8.53008 2.23856 8.42809 2.13658 8.30265 2.07266C8.16004 2 7.97336 2 7.59999 2H3.73332C3.35995 2 3.17327 2 3.03066 2.07266C2.90522 2.13658 2.80323 2.23856 2.73932 2.36401C2.66666 2.50661 2.66666 2.6933 2.66666 3.06667V8.66667ZM8.66666 3.33333H12.9333C13.3067 3.33333 13.4934 3.33333 13.636 3.406C13.7614 3.46991 13.8634 3.5719 13.9273 3.69734C14 3.83995 14 4.02663 14 4.4V8.93333C14 9.3067 14 9.49339 13.9273 9.63599C13.8634 9.76144 13.7614 9.86342 13.636 9.92734C13.4934 10 13.3067 10 12.9333 10H9.73332C9.35995 10 9.17327 10 9.03066 9.92734C8.90522 9.86342 8.80323 9.76144 8.73932 9.63599C8.66666 9.49339 8.66666 9.3067 8.66666 8.93333V3.33333Z" stroke="black" stroke-width="1.33" stroke-linecap="round" stroke-linejoin="round"/>
</svg>
