<svg width="16" height="16" viewBox="0 0 16 16" fill="none" xmlns="http://www.w3.org/2000/svg">
<path d="M9.33332 4.66667H13.0936C13.3918 4.66667 13.5409 4.66667 13.6281 4.72936C13.7042 4.78406 13.7537 4.86826 13.7646 4.96133C13.777 5.068 13.7046 5.19834 13.5598 5.45901L12.6624 7.07432C12.6099 7.16886 12.5836 7.21613 12.5733 7.26618C12.5642 7.31049 12.5642 7.35618 12.5733 7.40048C12.5836 7.45054 12.6099 7.49781 12.6624 7.59234L13.5598 9.20766C13.7046 9.46833 13.777 9.59867 13.7646 9.70534C13.7537 9.79841 13.7042 9.8826 13.6281 9.93731C13.5409 10 13.3918 10 13.0936 10H8.39999C8.02662 10 7.83994 10 7.69733 9.92734C7.57189 9.86342 7.4699 9.76144 7.40599 9.63599C7.33332 9.49339 7.33332 9.3067 7.33332 8.93333V7.33333M2.66666 14L2.66666 2.66667M2.66666 7.33333H8.26666C8.64002 7.33333 8.82671 7.33333 8.96932 7.26067C9.09476 7.19676 9.19675 7.09477 9.26066 6.96933C9.33332 6.82672 9.33332 6.64004 9.33332 6.26667V3.06667C9.33332 2.6933 9.33332 2.50661 9.26066 2.36401C9.19675 2.23856 9.09476 2.13658 8.96932 2.07266C8.82671 2 8.64002 2 8.26666 2H3.73332C3.35995 2 3.17327 2 3.03066 2.07266C2.90522 2.13658 2.80323 2.23856 2.73932 2.36401C2.66666 2.50661 2.66666 2.6933 2.66666 3.06667V7.33333Z" stroke="black" stroke-width="1.33" stroke-linecap="round" stroke-linejoin="round"/>
</svg>
