<svg width="16" height="16" viewBox="0 0 16 16" fill="none" xmlns="http://www.w3.org/2000/svg">
<g clip-path="url(#clip0_7140_50970)">
<path d="M7.99999 4.66659H4.99999C4.55797 4.66659 4.13404 4.49099 3.82148 4.17843C3.50892 3.86587 3.33333 3.44195 3.33333 2.99992C3.33333 2.55789 3.50892 2.13397 3.82148 1.82141C4.13404 1.50885 4.55797 1.33325 4.99999 1.33325C7.33333 1.33325 7.99999 4.66659 7.99999 4.66659ZM7.99999 4.66659H11C11.442 4.66659 11.8659 4.49099 12.1785 4.17843C12.4911 3.86587 12.6667 3.44195 12.6667 2.99992C12.6667 2.55789 12.4911 2.13397 12.1785 1.82141C11.8659 1.50885 11.442 1.33325 11 1.33325C8.66666 1.33325 7.99999 4.66659 7.99999 4.66659ZM7.99999 4.66659L8 14.6666M1.33333 9.33325H14.6667M1.33333 6.79992L1.33333 12.5332C1.33333 13.28 1.33333 13.6534 1.47865 13.9386C1.60648 14.1895 1.81046 14.3934 2.06134 14.5213C2.34656 14.6666 2.71992 14.6666 3.46666 14.6666L12.5333 14.6666C13.2801 14.6666 13.6534 14.6666 13.9386 14.5213C14.1895 14.3934 14.3935 14.1895 14.5213 13.9386C14.6667 13.6534 14.6667 13.28 14.6667 12.5333V6.79992C14.6667 6.05318 14.6667 5.67981 14.5213 5.3946C14.3935 5.14372 14.1895 4.93974 13.9386 4.81191C13.6534 4.66659 13.2801 4.66659 12.5333 4.66659L3.46666 4.66659C2.71993 4.66659 2.34656 4.66659 2.06134 4.81191C1.81046 4.93974 1.60648 5.14371 1.47865 5.3946C1.33333 5.67981 1.33333 6.05318 1.33333 6.79992Z" stroke="black" stroke-width="1.33" stroke-linecap="round" stroke-linejoin="round"/>
</g>
<defs>
<clipPath id="clip0_7140_50970">
<rect width="16" height="16" fill="white"/>
</clipPath>
</defs>
</svg>
