<svg width="16" height="16" viewBox="0 0 16 16" fill="none" xmlns="http://www.w3.org/2000/svg">
<path d="M6.66658 9.68973C7.48894 9.21443 8.51081 9.21443 9.33317 9.68973M1.33325 9.99992L1.80091 5.32333C1.81864 5.14602 1.82751 5.05736 1.8411 4.98131C2.0014 4.0846 2.74739 3.40949 3.6556 3.33921C3.73263 3.33325 3.82173 3.33325 3.99992 3.33325M14.6666 9.99992L14.1989 5.32333C14.1812 5.14602 14.1723 5.05736 14.1587 4.98131C13.9984 4.0846 13.2524 3.40949 12.3442 3.33921C12.2672 3.33325 12.1781 3.33325 11.9999 3.33325M5.88554 8.1143C6.92693 9.15569 6.92693 10.8441 5.88554 11.8855C4.84414 12.9269 3.1557 12.9269 2.1143 11.8855C1.0729 10.8441 1.0729 9.1557 2.1143 8.1143C3.15569 7.0729 4.84414 7.0729 5.88554 8.1143ZM13.8855 8.1143C14.9269 9.15569 14.9269 10.8441 13.8855 11.8855C12.8441 12.9269 11.1557 12.9269 10.1143 11.8855C9.0729 10.8441 9.0729 9.1557 10.1143 8.1143C11.1557 7.0729 12.8441 7.0729 13.8855 8.1143Z" stroke="black" stroke-width="1.33" stroke-linecap="round" stroke-linejoin="round"/>
</svg>
