<svg width="16" height="16" viewBox="0 0 16 16" fill="none" xmlns="http://www.w3.org/2000/svg">
<path d="M6.66658 7.68973C7.48894 7.21443 8.51081 7.21443 9.33317 7.68973M5.88554 6.1143C6.92693 7.15569 6.92693 8.84414 5.88554 9.88554C4.84414 10.9269 3.1557 10.9269 2.1143 9.88554C1.0729 8.84414 1.0729 7.1557 2.1143 6.1143C3.15569 5.0729 4.84414 5.0729 5.88554 6.1143ZM13.8855 6.1143C14.9269 7.15569 14.9269 8.84414 13.8855 9.88554C12.8441 10.9269 11.1557 10.9269 10.1143 9.88554C9.0729 8.84414 9.0729 7.1557 10.1143 6.1143C11.1557 5.0729 12.8441 5.0729 13.8855 6.1143Z" stroke="black" stroke-width="1.33" stroke-linecap="round" stroke-linejoin="round"/>
</svg>
