<svg width="16" height="16" viewBox="0 0 16 16" fill="none" xmlns="http://www.w3.org/2000/svg">
<g clip-path="url(#clip0_7140_53116)">
<path d="M7.99999 1.33325C9.66751 3.15882 10.6152 5.52794 10.6667 7.99992C10.6152 10.4719 9.66751 12.841 7.99999 14.6666M7.99999 1.33325C6.33247 3.15882 5.38483 5.52794 5.33333 7.99992C5.38483 10.4719 6.33247 12.841 7.99999 14.6666M7.99999 1.33325C4.3181 1.33325 1.33333 4.31802 1.33333 7.99992C1.33333 11.6818 4.3181 14.6666 7.99999 14.6666M7.99999 1.33325C11.6819 1.33325 14.6667 4.31802 14.6667 7.99992C14.6667 11.6818 11.6819 14.6666 7.99999 14.6666M1.66667 5.99992H14.3333M1.66666 9.99992H14.3333" stroke="black" stroke-width="1.33" stroke-linecap="round" stroke-linejoin="round"/>
</g>
<defs>
<clipPath id="clip0_7140_53116">
<rect width="16" height="16" fill="white"/>
</clipPath>
</defs>
</svg>
