<svg width="16" height="16" viewBox="0 0 16 16" fill="none" xmlns="http://www.w3.org/2000/svg">
<g clip-path="url(#clip0_7140_53128)">
<path d="M1.79116 10.43L3.06329 9.69562C3.1322 9.65584 3.21306 9.64202 3.29126 9.65665L5.79426 10.1251C5.99996 10.1636 6.18985 10.0052 6.18892 9.79598L6.17917 7.60289C6.1789 7.5433 6.19462 7.48473 6.22467 7.43328L7.48782 5.27073C7.55356 5.15818 7.54767 5.01764 7.47274 4.91099L5.34594 1.88371M12.6668 3.23929C9.00013 4.99995 11 7.33328 11.6668 7.66661C12.9182 8.2922 14.6584 8.33325 14.6584 8.33325C14.6639 8.22282 14.6667 8.11169 14.6667 7.99992C14.6667 4.31802 11.6819 1.33325 7.99999 1.33325C4.3181 1.33325 1.33333 4.31802 1.33333 7.99992C1.33333 11.6818 4.3181 14.6666 7.99999 14.6666C8.11177 14.6666 8.2229 14.6638 8.33333 14.6584M11.1719 14.6264L9.06066 9.06059L14.6265 11.1718L12.1584 12.1583L11.1719 14.6264Z" stroke="black" stroke-width="1.33" stroke-linecap="round" stroke-linejoin="round"/>
</g>
<defs>
<clipPath id="clip0_7140_53128">
<rect width="16" height="16" fill="white"/>
</clipPath>
</defs>
</svg>
