<svg width="16" height="16" viewBox="0 0 16 16" fill="none" xmlns="http://www.w3.org/2000/svg">
<g clip-path="url(#clip0_7140_53122)">
<path d="M2.05065 4.98847L4.90934 7.03035C5.0581 7.1366 5.13247 7.18973 5.21031 7.20197C5.2788 7.21274 5.34895 7.20188 5.41098 7.17091C5.48148 7.13572 5.53632 7.0626 5.646 6.91636L6.25007 6.11093C6.28109 6.06957 6.29659 6.0489 6.31482 6.03106C6.33101 6.01522 6.34876 6.00107 6.36782 5.98884C6.38927 5.97505 6.41289 5.96456 6.46013 5.94356L9.03919 4.79731C9.1461 4.7498 9.19956 4.72604 9.23987 4.68893C9.27552 4.65612 9.30359 4.61592 9.32212 4.57114C9.34307 4.52052 9.34696 4.46216 9.35474 4.34542L9.54358 1.51286M8.99999 8.99992L10.744 9.74735C10.9463 9.83407 11.0475 9.87743 11.1011 9.94945C11.1481 10.0126 11.1713 10.0904 11.1664 10.169C11.1608 10.2586 11.0998 10.3502 10.9777 10.5334L10.1583 11.7624C10.1004 11.8493 10.0715 11.8927 10.0333 11.9241C9.9994 11.9519 9.96039 11.9728 9.91846 11.9855C9.8711 11.9999 9.81892 11.9999 9.71456 11.9999H8.3844C8.24617 11.9999 8.17705 11.9999 8.11825 11.9768C8.06631 11.9564 8.02034 11.9232 7.98454 11.8804C7.944 11.832 7.92215 11.7664 7.87844 11.6353L7.40319 10.2095C7.3774 10.1321 7.36451 10.0935 7.36112 10.0542C7.35811 10.0193 7.36061 9.98422 7.36851 9.95014C7.37743 9.91171 7.39566 9.87525 7.43212 9.80233L7.79313 9.08031C7.86648 8.93361 7.90316 8.86026 7.95965 8.81472C8.00943 8.77459 8.0697 8.74963 8.13328 8.7428C8.20542 8.73506 8.28322 8.76099 8.43882 8.81286L8.99999 8.99992ZM14.6667 7.99992C14.6667 11.6818 11.6819 14.6666 7.99999 14.6666C4.3181 14.6666 1.33333 11.6818 1.33333 7.99992C1.33333 4.31802 4.3181 1.33325 7.99999 1.33325C11.6819 1.33325 14.6667 4.31802 14.6667 7.99992Z" stroke="black" stroke-width="1.33" stroke-linecap="round" stroke-linejoin="round"/>
</g>
<defs>
<clipPath id="clip0_7140_53122">
<rect width="16" height="16" fill="white"/>
</clipPath>
</defs>
</svg>
