<svg width="16" height="16" viewBox="0 0 16 16" fill="none" xmlns="http://www.w3.org/2000/svg">
<g clip-path="url(#clip0_7140_53125)">
<path d="M9.99999 1.63845C9.36863 1.44015 8.6968 1.33325 7.99999 1.33325C4.3181 1.33325 1.33333 4.31802 1.33333 7.99992C1.33333 11.6818 4.3181 14.6666 7.99999 14.6666C11.6819 14.6666 14.6667 11.6818 14.6667 7.99992C14.6667 6.85637 14.3787 5.78006 13.8714 4.83955M11.3333 3.83325H11.3367M7.00003 14.5921L7.0001 13.1232C7.00011 13.0436 7.02857 12.9667 7.08035 12.9063L8.73754 10.9729C8.87372 10.814 8.83153 10.5703 8.64983 10.4665L6.74568 9.37841C6.69395 9.34885 6.65108 9.30595 6.62155 9.2542L5.3803 7.079C5.3157 6.9658 5.19104 6.90063 5.06122 6.91219L1.37612 7.24041M14 3.99992C14 5.47268 12.6667 6.66658 11.3333 7.99992C9.99999 6.66658 8.66666 5.47268 8.66666 3.99992C8.66666 2.52716 9.86057 1.33325 11.3333 1.33325C12.8061 1.33325 14 2.52716 14 3.99992ZM11.5 3.83325C11.5 3.9253 11.4254 3.99992 11.3333 3.99992C11.2413 3.99992 11.1667 3.9253 11.1667 3.83325C11.1667 3.7412 11.2413 3.66659 11.3333 3.66659C11.4254 3.66659 11.5 3.7412 11.5 3.83325Z" stroke="black" stroke-width="1.33" stroke-linecap="round" stroke-linejoin="round"/>
</g>
<defs>
<clipPath id="clip0_7140_53125">
<rect width="16" height="16" fill="white"/>
</clipPath>
</defs>
</svg>
