<svg width="16" height="16" viewBox="0 0 16 16" fill="none" xmlns="http://www.w3.org/2000/svg">
<g clip-path="url(#clip0_7140_51531)">
<path d="M7.99999 5.33337C6.52724 5.33337 5.33333 6.52728 5.33333 8.00004C5.33333 9.4728 6.52724 10.6667 7.99999 10.6667C9.47275 10.6667 10.6667 9.4728 10.6667 8.00004C10.6667 6.52728 9.47275 5.33337 7.99999 5.33337ZM7.99999 5.33337H14.1133M2.63333 4.04004L5.69333 9.33337M7.25333 14.6267L10.3067 9.33337M14.6667 8.00004C14.6667 11.6819 11.6819 14.6667 7.99999 14.6667C4.3181 14.6667 1.33333 11.6819 1.33333 8.00004C1.33333 4.31814 4.3181 1.33337 7.99999 1.33337C11.6819 1.33337 14.6667 4.31814 14.6667 8.00004Z" stroke="black" stroke-width="1.33" stroke-linecap="round" stroke-linejoin="round"/>
</g>
<defs>
<clipPath id="clip0_7140_51531">
<rect width="16" height="16" fill="white"/>
</clipPath>
</defs>
</svg>
