<svg width="16" height="16" viewBox="0 0 16 16" fill="none" xmlns="http://www.w3.org/2000/svg">
<path d="M1.66659 8.00002H14.3333M3.99992 10.6667H6.66658M5.97763 2.66669H10.0222C10.7401 2.66669 11.0991 2.66669 11.416 2.776C11.6962 2.87266 11.9515 3.03042 12.1633 3.23785C12.4028 3.47242 12.5633 3.79349 12.8844 4.4356L14.3288 7.32435C14.4547 7.57634 14.5177 7.70234 14.5622 7.83439C14.6016 7.95165 14.6301 8.07233 14.6473 8.19486C14.6666 8.33284 14.6666 8.4737 14.6666 8.75544V10.1334C14.6666 11.2535 14.6666 11.8135 14.4486 12.2413C14.2569 12.6177 13.9509 12.9236 13.5746 13.1154C13.1467 13.3334 12.5867 13.3334 11.4666 13.3334H4.53325C3.41315 13.3334 2.85309 13.3334 2.42527 13.1154C2.04895 12.9236 1.74299 12.6177 1.55124 12.2413C1.33325 11.8135 1.33325 11.2535 1.33325 10.1334V8.75544C1.33325 8.4737 1.33325 8.33284 1.35257 8.19486C1.36972 8.07233 1.39821 7.95165 1.43767 7.83439C1.48209 7.70234 1.54509 7.57634 1.67108 7.32435L3.11546 4.4356C3.43652 3.79348 3.59705 3.47242 3.83655 3.23785C4.04834 3.03042 4.30359 2.87266 4.58384 2.776C4.90075 2.66669 5.25971 2.66669 5.97763 2.66669Z" stroke="black" stroke-width="1.33" stroke-linecap="round" stroke-linejoin="round"/>
</svg>
