<svg width="16" height="16" viewBox="0 0 16 16" fill="none" xmlns="http://www.w3.org/2000/svg">
<g clip-path="url(#clip0_7140_51561)">
<path d="M10.3637 6.61699C10.613 6.17406 10.8208 5.77438 10.949 5.47018C11.5716 3.99302 10.956 2.29389 9.45129 1.60079C7.94657 0.907693 6.4356 1.62637 5.77247 3.01399C4.50437 2.14384 2.81278 2.27163 1.87992 3.62953C0.947057 4.98743 1.23983 6.7614 2.51752 7.7294C3.0974 8.16873 4.24424 8.81617 5.32397 9.39234M10.8648 7.83334C10.5834 6.32137 9.2969 5.2156 7.67709 5.51614C6.05728 5.81669 5.00991 7.27809 5.22889 8.86604C5.40483 10.1418 6.37594 13.1352 6.75093 14.2627C6.8021 14.4166 6.82769 14.4935 6.87835 14.5471C6.92248 14.5939 6.98115 14.6277 7.04369 14.6426C7.11548 14.6596 7.19489 14.6433 7.35373 14.6107C8.51768 14.3717 11.5955 13.7161 12.7884 13.2305C14.2731 12.6262 15.0393 10.9895 14.4654 9.43537C13.8915 7.88128 12.3149 7.32105 10.8648 7.83334Z" stroke="black" stroke-width="1.33" stroke-linecap="round" stroke-linejoin="round"/>
</g>
<defs>
<clipPath id="clip0_7140_51561">
<rect width="16" height="16" fill="white"/>
</clipPath>
</defs>
</svg>
