<svg width="16" height="16" viewBox="0 0 16 16" fill="none" xmlns="http://www.w3.org/2000/svg">
<g clip-path="url(#clip0_7140_51552)">
<path d="M4.92758 1.64579C5.04288 1.53049 5.10053 1.47284 5.1678 1.43161C5.22745 1.39506 5.29248 1.36813 5.36051 1.35179C5.43723 1.33337 5.51876 1.33337 5.68182 1.33337H10.3182C10.4812 1.33337 10.5628 1.33337 10.6395 1.35179C10.7075 1.36813 10.7725 1.39506 10.8322 1.43161C10.8995 1.47284 10.9571 1.53049 11.0724 1.64579L14.3542 4.92762C14.4695 5.04292 14.5272 5.10057 14.5684 5.16785C14.605 5.2275 14.6319 5.29253 14.6482 5.36055C14.6667 5.43728 14.6667 5.51881 14.6667 5.68187V10.3182C14.6667 10.4813 14.6667 10.5628 14.6482 10.6395C14.6319 10.7076 14.605 10.7726 14.5684 10.8322C14.5272 10.8995 14.4695 10.9572 14.3542 11.0725L11.0724 14.3543C10.9571 14.4696 10.8995 14.5272 10.8322 14.5685C10.7725 14.605 10.7075 14.632 10.6395 14.6483C10.5628 14.6667 10.4812 14.6667 10.3182 14.6667H5.68182C5.51876 14.6667 5.43723 14.6667 5.36051 14.6483C5.29248 14.632 5.22745 14.605 5.1678 14.5685C5.10053 14.5272 5.04288 14.4696 4.92758 14.3543L1.64575 11.0725C1.53045 10.9572 1.4728 10.8995 1.43157 10.8322C1.39502 10.7726 1.36808 10.7076 1.35175 10.6395C1.33333 10.5628 1.33333 10.4813 1.33333 10.3182V5.68187C1.33333 5.51881 1.33333 5.43728 1.35175 5.36055C1.36808 5.29253 1.39502 5.2275 1.43157 5.16785C1.4728 5.10057 1.53045 5.04292 1.64575 4.92762L4.92758 1.64579Z" stroke="black" stroke-width="1.33" stroke-linecap="round" stroke-linejoin="round"/>
<path fill-rule="evenodd" clip-rule="evenodd" d="M7.99771 6.04531C7.33126 5.26617 6.21991 5.05659 5.38489 5.77004C4.54988 6.4835 4.43232 7.67637 5.08806 8.52017C5.50807 9.06064 6.58372 10.0629 7.30282 10.7136C7.54178 10.9299 7.66127 11.038 7.80439 11.0814C7.92741 11.1186 8.06801 11.1186 8.19104 11.0814C8.33416 11.038 8.45364 10.9299 8.69261 10.7136C9.41171 10.0629 10.4874 9.06064 10.9074 8.52017C11.5631 7.67637 11.4599 6.476 10.6105 5.77004C9.76116 5.06409 8.66416 5.26617 7.99771 6.04531Z" stroke="black" stroke-width="1.33" stroke-linecap="round" stroke-linejoin="round"/>
</g>
<defs>
<clipPath id="clip0_7140_51552">
<rect width="16" height="16" fill="white"/>
</clipPath>
</defs>
</svg>
