<svg width="16" height="16" viewBox="0 0 16 16" fill="none" xmlns="http://www.w3.org/2000/svg">
<g clip-path="url(#clip0_7140_51543)">
<path d="M7.99999 14.6667C11.6819 14.6667 14.6667 11.6819 14.6667 8.00004C14.6667 4.31814 11.6819 1.33337 7.99999 1.33337C4.3181 1.33337 1.33333 4.31814 1.33333 8.00004C1.33333 11.6819 4.3181 14.6667 7.99999 14.6667Z" stroke="black" stroke-width="1.33" stroke-linecap="round" stroke-linejoin="round"/>
<path fill-rule="evenodd" clip-rule="evenodd" d="M7.99771 6.04531C7.33126 5.26617 6.21991 5.05659 5.38489 5.77004C4.54988 6.4835 4.43232 7.67637 5.08806 8.52017C5.50807 9.06064 6.58372 10.0629 7.30282 10.7136C7.54178 10.9299 7.66127 11.038 7.80439 11.0814C7.92741 11.1186 8.06801 11.1186 8.19104 11.0814C8.33416 11.038 8.45364 10.9299 8.69261 10.7136C9.41171 10.0629 10.4874 9.06064 10.9074 8.52017C11.5631 7.67637 11.4599 6.476 10.6105 5.77004C9.76116 5.06409 8.66416 5.26617 7.99771 6.04531Z" stroke="black" stroke-width="1.33" stroke-linecap="round" stroke-linejoin="round"/>
</g>
<defs>
<clipPath id="clip0_7140_51543">
<rect width="16" height="16" fill="white"/>
</clipPath>
</defs>
</svg>
