<svg width="16" height="16" viewBox="0 0 16 16" fill="none" xmlns="http://www.w3.org/2000/svg">
<path d="M7.99996 7.99992L5.15137 5.62609C4.72813 5.2734 4.51652 5.09705 4.36438 4.88088C4.22959 4.68934 4.12949 4.47561 4.06864 4.24944C3.99996 3.99418 3.99996 3.71871 3.99996 3.16779V1.33325M7.99996 7.99992L10.8485 5.62609C11.2718 5.2734 11.4834 5.09705 11.6355 4.88088C11.7703 4.68934 11.8704 4.47561 11.9313 4.24944C12 3.99418 12 3.71871 12 3.16779V1.33325M7.99996 7.99992L5.15137 10.3737C4.72814 10.7264 4.51652 10.9028 4.36438 11.119C4.22959 11.3105 4.12949 11.5242 4.06864 11.7504C3.99996 12.0057 3.99996 12.2811 3.99996 12.8321V14.6666M7.99996 7.99992L10.8486 10.3737C11.2718 10.7264 11.4834 10.9028 11.6355 11.119C11.7703 11.3105 11.8704 11.5242 11.9313 11.7504C12 12.0057 12 12.2811 12 12.8321V14.6666M2.66663 1.33325H13.3333M2.66663 14.6666H13.3333" stroke="black" stroke-width="1.33" stroke-linecap="round" stroke-linejoin="round"/>
</svg>
