<svg width="16" height="16" viewBox="0 0 16 16" fill="none" xmlns="http://www.w3.org/2000/svg">
<path d="M11 1.66675L14.3333 5.00008M14.3333 1.66675L11 5.00008M8.33333 2.00008H5.2C4.07989 2.00008 3.51984 2.00008 3.09202 2.21807C2.71569 2.40982 2.40973 2.71578 2.21799 3.0921C2 3.51992 2 4.07998 2 5.20008V10.8001C2 11.9202 2 12.4802 2.21799 12.9081C2.40973 13.2844 2.71569 13.5903 3.09202 13.7821C3.51984 14.0001 4.07989 14.0001 5.2 14.0001H11.3333C11.9533 14.0001 12.2633 14.0001 12.5176 13.9319C13.2078 13.747 13.7469 13.2079 13.9319 12.5177C14 12.2634 14 11.9534 14 11.3334M7 5.66675C7 6.40313 6.40305 7.00008 5.66667 7.00008C4.93029 7.00008 4.33333 6.40313 4.33333 5.66675C4.33333 4.93037 4.93029 4.33341 5.66667 4.33341C6.40305 4.33341 7 4.93037 7 5.66675ZM9.99336 7.94551L4.3541 13.0721C4.03691 13.3605 3.87831 13.5046 3.86429 13.6295C3.85213 13.7378 3.89364 13.8452 3.97546 13.9171C4.06985 14.0001 4.28419 14.0001 4.71286 14.0001H10.9707C11.9301 14.0001 12.4098 14.0001 12.7866 13.8389C13.2596 13.6366 13.6365 13.2597 13.8388 12.7867C14 12.4099 14 11.9302 14 10.9707C14 10.6479 14 10.4865 13.9647 10.3362C13.9204 10.1473 13.8353 9.97032 13.7155 9.81768C13.6202 9.69622 13.4941 9.59538 13.242 9.39372L11.3772 7.90186C11.1249 7.70002 10.9988 7.5991 10.8599 7.56349C10.7374 7.5321 10.6086 7.53616 10.4884 7.57521C10.352 7.61951 10.2324 7.72818 9.99336 7.94551Z" stroke="black" stroke-width="1.33" stroke-linecap="round" stroke-linejoin="round"/>
</svg>
