<svg width="16" height="16" viewBox="0 0 16 16" fill="none" xmlns="http://www.w3.org/2000/svg">
<path d="M14 2.66675H2M14 13.3334H2M6 6.16675H2M6 9.83341H2M9.73333 10.6667H12.9333C13.3067 10.6667 13.4934 10.6667 13.636 10.5941C13.7614 10.5302 13.8634 10.4282 13.9273 10.3027C14 10.1601 14 9.97345 14 9.60008V6.40008C14 6.02671 14 5.84003 13.9273 5.69742C13.8634 5.57198 13.7614 5.46999 13.636 5.40608C13.4934 5.33341 13.3067 5.33341 12.9333 5.33341H9.73333C9.35997 5.33341 9.17328 5.33341 9.03067 5.40608C8.90523 5.46999 8.80324 5.57198 8.73933 5.69742C8.66667 5.84003 8.66667 6.02671 8.66667 6.40008V9.60008C8.66667 9.97345 8.66667 10.1601 8.73933 10.3027C8.80324 10.4282 8.90523 10.5302 9.03067 10.5941C9.17328 10.6667 9.35997 10.6667 9.73333 10.6667Z" stroke="black" stroke-width="1.33" stroke-linecap="round" stroke-linejoin="round"/>
</svg>
