<svg width="16" height="16" viewBox="0 0 16 16" fill="none" xmlns="http://www.w3.org/2000/svg">
<path d="M1.33325 8.00002H3.92123C4.37803 8.00002 4.79563 8.25811 4.99992 8.66669C5.20421 9.07526 5.6218 9.33335 6.07861 9.33335H9.92123C10.378 9.33335 10.7956 9.07526 10.9999 8.66669C11.2042 8.25811 11.6218 8.00002 12.0786 8.00002H14.6666M1.33325 8.00002V5.86669C1.33325 4.74658 1.33325 4.18653 1.55124 3.75871C1.74299 3.38238 2.04895 3.07642 2.42527 2.88467C2.85309 2.66669 3.41315 2.66669 4.53325 2.66669H11.4666C12.5867 2.66669 13.1467 2.66669 13.5746 2.88467C13.9509 3.07642 14.2569 3.38238 14.4486 3.75871C14.6666 4.18653 14.6666 4.74658 14.6666 5.86669V8.00002M1.33325 8.00002V10.1334C1.33325 11.2535 1.33325 11.8135 1.55124 12.2413C1.74299 12.6177 2.04895 12.9236 2.42527 13.1154C2.85309 13.3334 3.41315 13.3334 4.53325 13.3334H11.4666C12.5867 13.3334 13.1467 13.3334 13.5746 13.1154C13.9509 12.9236 14.2569 12.6177 14.4486 12.2413C14.6666 11.8135 14.6666 11.2535 14.6666 10.1334V8.00002" stroke="black" stroke-width="1.33" stroke-linecap="round" stroke-linejoin="round"/>
</svg>
