<svg width="16" height="16" viewBox="0 0 16 16" fill="none" xmlns="http://www.w3.org/2000/svg">
<g clip-path="url(#clip0_7140_49909)">
<path d="M1.33333 3.46666C1.33333 2.71992 1.33333 2.34656 1.47865 2.06134C1.60648 1.81046 1.81046 1.60648 2.06134 1.47865C2.34656 1.33333 2.71992 1.33333 3.46666 1.33333H8.53333C9.28006 1.33333 9.65343 1.33333 9.93865 1.47865C10.1895 1.60648 10.3935 1.81046 10.5213 2.06134C10.6667 2.34656 10.6667 2.71992 10.6667 3.46666V8.53333C10.6667 9.28006 10.6667 9.65343 10.5213 9.93865C10.3935 10.1895 10.1895 10.3935 9.93865 10.5213C9.65343 10.6667 9.28006 10.6667 8.53333 10.6667H3.46666C2.71992 10.6667 2.34656 10.6667 2.06134 10.5213C1.81046 10.3935 1.60648 10.1895 1.47865 9.93865C1.33333 9.65343 1.33333 9.28006 1.33333 8.53333V3.46666Z" stroke="black" stroke-width="1.33" stroke-linecap="round" stroke-linejoin="round"/>
<path d="M5.33333 7.46666C5.33333 6.71992 5.33333 6.34656 5.47865 6.06134C5.60648 5.81046 5.81046 5.60648 6.06134 5.47865C6.34656 5.33333 6.71992 5.33333 7.46666 5.33333H12.5333C13.2801 5.33333 13.6534 5.33333 13.9386 5.47865C14.1895 5.60648 14.3935 5.81046 14.5213 6.06134C14.6667 6.34656 14.6667 6.71992 14.6667 7.46666V12.5333C14.6667 13.2801 14.6667 13.6534 14.5213 13.9386C14.3935 14.1895 14.1895 14.3935 13.9386 14.5213C13.6534 14.6667 13.2801 14.6667 12.5333 14.6667H7.46666C6.71992 14.6667 6.34656 14.6667 6.06134 14.5213C5.81046 14.3935 5.60648 14.1895 5.47865 13.9386C5.33333 13.6534 5.33333 13.2801 5.33333 12.5333V7.46666Z" stroke="black" stroke-width="1.33" stroke-linecap="round" stroke-linejoin="round"/>
</g>
<defs>
<clipPath id="clip0_7140_49909">
<rect width="16" height="16" fill="white"/>
</clipPath>
</defs>
</svg>
