<svg width="16" height="16" viewBox="0 0 16 16" fill="none" xmlns="http://www.w3.org/2000/svg">
<path d="M1.99992 10.6667V4.79999C1.99992 4.05325 1.99992 3.67988 2.14524 3.39467C2.27307 3.14379 2.47705 2.93981 2.72793 2.81198C3.01315 2.66666 3.38652 2.66666 4.13325 2.66666H11.8666C12.6133 2.66666 12.9867 2.66666 13.2719 2.81198C13.5228 2.93981 13.7268 3.14379 13.8546 3.39467C13.9999 3.67988 13.9999 4.05325 13.9999 4.79999V10.6667H10.4417C10.2787 10.6667 10.1972 10.6667 10.1204 10.6851C10.0524 10.7014 9.98738 10.7283 9.92773 10.7649C9.86045 10.8061 9.8028 10.8638 9.6875 10.9791L9.64567 11.0209C9.53037 11.1362 9.47272 11.1939 9.40544 11.2351C9.34579 11.2716 9.28076 11.2986 9.21274 11.3149C9.13601 11.3333 9.05448 11.3333 8.89142 11.3333H7.10841C6.94535 11.3333 6.86382 11.3333 6.7871 11.3149C6.71907 11.2986 6.65404 11.2716 6.5944 11.2351C6.52712 11.1939 6.46947 11.1362 6.35417 11.0209L6.31234 10.9791C6.19704 10.8638 6.13939 10.8061 6.07211 10.7649C6.01246 10.7283 5.94743 10.7014 5.87941 10.6851C5.80268 10.6667 5.72115 10.6667 5.55809 10.6667H1.99992ZM1.99992 10.6667C1.63173 10.6667 1.33325 10.9651 1.33325 11.3333V11.5555C1.33325 11.9689 1.33325 12.1755 1.37868 12.3451C1.50197 12.8052 1.86137 13.1646 2.32149 13.2879C2.49105 13.3333 2.69771 13.3333 3.11103 13.3333H12.8888C13.3021 13.3333 13.5088 13.3333 13.6783 13.2879C14.1385 13.1646 14.4979 12.8052 14.6212 12.3451C14.6666 12.1755 14.6666 11.9689 14.6666 11.5555C14.6666 11.3489 14.6666 11.2456 14.6439 11.1608C14.5822 10.9307 14.4025 10.751 14.1725 10.6894C14.0877 10.6667 13.9844 10.6667 13.7777 10.6667H13.3333" stroke="black" stroke-width="1.33" stroke-linecap="round" stroke-linejoin="round"/>
</svg>
