<svg width="16" height="16" viewBox="0 0 16 16" fill="none" xmlns="http://www.w3.org/2000/svg">
<path d="M13.9999 10.6667V4.80001C13.9999 4.05327 13.9999 3.6799 13.8546 3.39468C13.7268 3.1438 13.5228 2.93983 13.2719 2.812C12.9867 2.66667 12.6133 2.66667 11.8666 2.66667H4.13325C3.38652 2.66667 3.01315 2.66667 2.72793 2.812C2.47705 2.93983 2.27307 3.1438 2.14524 3.39468C1.99992 3.6799 1.99992 4.05327 1.99992 4.80001V10.6667M3.11103 13.3333H12.8888C13.3021 13.3333 13.5088 13.3333 13.6783 13.2879C14.1385 13.1646 14.4979 12.8052 14.6212 12.3451C14.6666 12.1755 14.6666 11.9689 14.6666 11.5556C14.6666 11.3489 14.6666 11.2456 14.6439 11.1608C14.5822 10.9307 14.4025 10.751 14.1725 10.6894C14.0877 10.6667 13.9844 10.6667 13.7777 10.6667H2.22214C2.01548 10.6667 1.91215 10.6667 1.82737 10.6894C1.59731 10.751 1.41761 10.9307 1.35597 11.1608C1.33325 11.2456 1.33325 11.3489 1.33325 11.5556C1.33325 11.9689 1.33325 12.1755 1.37868 12.3451C1.50197 12.8052 1.86137 13.1646 2.32149 13.2879C2.49105 13.3333 2.69771 13.3333 3.11103 13.3333Z" stroke="black" stroke-width="1.33" stroke-linecap="round" stroke-linejoin="round"/>
</svg>
