<svg width="16" height="16" viewBox="0 0 16 16" fill="none" xmlns="http://www.w3.org/2000/svg">
<path d="M14 6.16672H8M14 2.66672L8 2.66672M14 9.83338H2M14 13.3334H2M2.85333 1.97338L5.43111 3.90672C5.62411 4.05146 5.7206 4.12384 5.75511 4.21256C5.78533 4.29027 5.78533 4.37649 5.75511 4.45421C5.7206 4.54293 5.62411 4.6153 5.43111 4.76005L2.85333 6.69338C2.57868 6.89937 2.44135 7.00237 2.3264 6.99998C2.22637 6.9979 2.13256 6.95099 2.07088 6.87222C2 6.78169 2 6.61003 2 6.26672V2.40005C2 2.05673 2 1.88508 2.07088 1.79455C2.13256 1.71577 2.22637 1.66887 2.3264 1.66679C2.44135 1.6644 2.57868 1.76739 2.85333 1.97338Z" stroke="black" stroke-width="1.33" stroke-linecap="round" stroke-linejoin="round"/>
</svg>
