<svg width="16" height="16" viewBox="0 0 16 16" fill="none" xmlns="http://www.w3.org/2000/svg">
<path d="M14 6.16675H8M14 2.66675H2M14 9.83341H8M14 13.3334H2M2.85333 5.70675L5.43111 7.64008C5.62411 7.78483 5.7206 7.8572 5.75511 7.94592C5.78533 8.02364 5.78533 8.10986 5.75511 8.18757C5.7206 8.2763 5.62411 8.34867 5.43111 8.49341L2.85333 10.4267C2.57868 10.6327 2.44135 10.7357 2.3264 10.7333C2.22637 10.7313 2.13256 10.6844 2.07088 10.6056C2 10.5151 2 10.3434 2 10.0001V6.13341C2 5.7901 2 5.61844 2.07088 5.52791C2.13256 5.44914 2.22637 5.40223 2.3264 5.40015C2.44135 5.39776 2.57868 5.50076 2.85333 5.70675Z" stroke="black" stroke-width="1.33" stroke-linecap="round" stroke-linejoin="round"/>
</svg>
