<svg width="16" height="16" viewBox="0 0 16 16" fill="none" xmlns="http://www.w3.org/2000/svg">
<g clip-path="url(#clip0_7140_51609)">
<path d="M6.09084 6.09084L3.28595 3.28595M3.28595 12.714L6.11197 9.88802M9.90737 9.90915L12.7123 12.714M12.7123 3.28595L9.88582 6.11239M14.6667 7.99998C14.6667 11.6819 11.6819 14.6666 7.99999 14.6666C4.3181 14.6666 1.33333 11.6819 1.33333 7.99998C1.33333 4.31808 4.3181 1.33331 7.99999 1.33331C11.6819 1.33331 14.6667 4.31808 14.6667 7.99998ZM10.6667 7.99998C10.6667 9.47274 9.47275 10.6666 7.99999 10.6666C6.52724 10.6666 5.33333 9.47274 5.33333 7.99998C5.33333 6.52722 6.52724 5.33331 7.99999 5.33331C9.47275 5.33331 10.6667 6.52722 10.6667 7.99998Z" stroke="black" stroke-width="1.33" stroke-linecap="round" stroke-linejoin="round"/>
</g>
<defs>
<clipPath id="clip0_7140_51609">
<rect width="16" height="16" fill="white"/>
</clipPath>
</defs>
</svg>
