<svg width="16" height="16" viewBox="0 0 16 16" fill="none" xmlns="http://www.w3.org/2000/svg">
<g clip-path="url(#clip0_7140_52007)">
<path d="M6.66658 11.7724V13.3333C6.66658 14.0697 7.26354 14.6667 7.99992 14.6667C8.7363 14.6667 9.33325 14.0697 9.33325 13.3333V11.7724M7.99992 1.33333V1.99999M1.99992 7.99999H1.33325M3.66659 3.66666L3.26652 3.2666M12.3333 3.66666L12.7334 3.2666M14.6666 7.99999H13.9999M11.9999 7.99999C11.9999 10.2091 10.2091 12 7.99992 12C5.79078 12 3.99992 10.2091 3.99992 7.99999C3.99992 5.79086 5.79078 3.99999 7.99992 3.99999C10.2091 3.99999 11.9999 5.79086 11.9999 7.99999Z" stroke="black" stroke-width="1.33" stroke-linecap="round" stroke-linejoin="round"/>
</g>
<defs>
<clipPath id="clip0_7140_52007">
<rect width="16" height="16" fill="white"/>
</clipPath>
</defs>
</svg>
