<svg width="16" height="16" viewBox="0 0 16 16" fill="none" xmlns="http://www.w3.org/2000/svg">
<path d="M6.33325 14.6667H9.66658M9.99992 10.2176C11.5765 9.4686 12.6666 7.86159 12.6666 5.99999C12.6666 3.42267 10.5772 1.33333 7.99992 1.33333C5.42259 1.33333 3.33325 3.42267 3.33325 5.99999C3.33325 7.86159 4.42329 9.4686 5.99992 10.2176V10.6667C5.99992 11.2879 5.99992 11.5985 6.10141 11.8436C6.23674 12.1703 6.4963 12.4298 6.82301 12.5652C7.06804 12.6667 7.37866 12.6667 7.99992 12.6667C8.62117 12.6667 8.9318 12.6667 9.17683 12.5652C9.50353 12.4298 9.7631 12.1703 9.89842 11.8436C9.99992 11.5985 9.99992 11.2879 9.99992 10.6667V10.2176Z" stroke="black" stroke-width="1.33" stroke-linecap="round" stroke-linejoin="round"/>
</svg>
