<svg width="16" height="16" viewBox="0 0 16 16" fill="none" xmlns="http://www.w3.org/2000/svg">
<path d="M9.49968 1.33325H5.66264C5.54298 1.33325 5.48316 1.33325 5.43034 1.35147C5.38363 1.36758 5.34109 1.39387 5.30579 1.42845C5.26587 1.46754 5.23912 1.52105 5.18561 1.62807L2.38561 7.22807C2.25782 7.48364 2.19393 7.61143 2.20927 7.7153C2.22268 7.80601 2.27285 7.88719 2.34798 7.93974C2.43403 7.99992 2.5769 7.99992 2.86264 7.99992H6.99968L4.99968 14.6666L13.1284 6.23679C13.4027 5.95239 13.5398 5.81018 13.5478 5.68851C13.5548 5.58289 13.5112 5.48024 13.4303 5.41194C13.3371 5.33325 13.1396 5.33325 12.7445 5.33325H7.99968L9.49968 1.33325Z" stroke="black" stroke-width="1.33" stroke-linecap="round" stroke-linejoin="round"/>
</svg>
