<svg width="16" height="16" viewBox="0 0 16 16" fill="none" xmlns="http://www.w3.org/2000/svg">
<path d="M10 11V12.6667C10 13.2879 10 13.5985 9.89851 13.8436C9.76318 14.1703 9.50362 14.4298 9.17691 14.5652C8.93188 14.6667 8.62126 14.6667 8 14.6667C7.37874 14.6667 7.06812 14.6667 6.82309 14.5652C6.49638 14.4298 6.23682 14.1703 6.10149 13.8436C6 13.5985 6 13.2879 6 12.6667V11M10 11C11.7659 10.2284 13 8.38365 13 6.33333C13 3.5719 10.7614 1.33333 8 1.33333C5.23858 1.33333 3 3.5719 3 6.33333C3 8.38365 4.2341 10.2284 6 11M10 11H6" stroke="black" stroke-width="1.33" stroke-linecap="round" stroke-linejoin="round"/>
</svg>
