<svg width="16" height="16" viewBox="0 0 16 16" fill="none" xmlns="http://www.w3.org/2000/svg">
<g clip-path="url(#clip0_7140_50109)">
<path d="M11.9999 6.66671L9.71037 8.95625C9.57837 9.08826 9.51237 9.15426 9.43626 9.17899C9.36931 9.20074 9.29719 9.20074 9.23025 9.17899C9.15414 9.15426 9.08813 9.08826 8.95613 8.95625L7.04371 7.04383C6.9117 6.91183 6.8457 6.84582 6.76959 6.82109C6.70264 6.79934 6.63053 6.79934 6.56358 6.82109C6.48747 6.84582 6.42147 6.91182 6.28946 7.04383L3.99992 9.33337M14.6666 8.00004C14.6666 11.6819 11.6818 14.6667 7.99992 14.6667C4.31802 14.6667 1.33325 11.6819 1.33325 8.00004C1.33325 4.31814 4.31802 1.33337 7.99992 1.33337C11.6818 1.33337 14.6666 4.31814 14.6666 8.00004Z" stroke="black" stroke-width="1.33" stroke-linecap="round" stroke-linejoin="round"/>
</g>
<defs>
<clipPath id="clip0_7140_50109">
<rect width="16" height="16" fill="white"/>
</clipPath>
</defs>
</svg>
