<svg width="16" height="16" viewBox="0 0 16 16" fill="none" xmlns="http://www.w3.org/2000/svg">
<g clip-path="url(#clip0_7140_50211)">
<path d="M7.99992 14.6667C11.6818 14.6667 14.6666 11.6819 14.6666 8.00004C14.6666 4.31814 11.6818 1.33337 7.99992 1.33337C4.31802 1.33337 1.33325 4.31814 1.33325 8.00004C1.33325 11.6819 4.31802 14.6667 7.99992 14.6667Z" stroke="black" stroke-width="1.33" stroke-linecap="round" stroke-linejoin="round"/>
<path d="M9.15429 8.7965C9.10726 8.65541 9.08375 8.58486 9.08497 8.52715C9.08626 8.46646 9.09437 8.43464 9.12232 8.38075C9.1489 8.32951 9.21995 8.2634 9.36205 8.13117C9.75446 7.76601 9.99992 7.24502 9.99992 6.66671C9.99992 5.56214 9.10449 4.66671 7.99992 4.66671C6.89535 4.66671 5.99992 5.56214 5.99992 6.66671C5.99992 7.24502 6.24537 7.76601 6.63779 8.13117C6.77989 8.2634 6.85094 8.32951 6.87751 8.38075C6.90546 8.43464 6.91358 8.46646 6.91487 8.52715C6.91609 8.58486 6.89257 8.65541 6.84554 8.7965L6.23391 10.6314C6.15491 10.8684 6.11541 10.9869 6.1391 11.0812C6.15983 11.1638 6.21137 11.2353 6.28314 11.2811C6.36514 11.3334 6.49005 11.3334 6.73988 11.3334H9.25996C9.50978 11.3334 9.6347 11.3334 9.71669 11.2811C9.78847 11.2353 9.84001 11.1638 9.86074 11.0812C9.88442 10.9869 9.84492 10.8684 9.76592 10.6314L9.15429 8.7965Z" stroke="black" stroke-width="1.33" stroke-linecap="round" stroke-linejoin="round"/>
</g>
<defs>
<clipPath id="clip0_7140_50211">
<rect width="16" height="16" fill="white"/>
</clipPath>
</defs>
</svg>
