<svg width="16" height="16" viewBox="0 0 16 16" fill="none" xmlns="http://www.w3.org/2000/svg">
<path d="M5.33333 14.6666V13.3333M6.33333 9.99992V4.66659M10.6667 14.6666V13.3333M9.66666 9.99992V4.66659M5.86666 13.3333H10.1333C11.2534 13.3333 11.8135 13.3333 12.2413 13.1153C12.6176 12.9235 12.9236 12.6176 13.1153 12.2412C13.3333 11.8134 13.3333 11.2534 13.3333 10.1333V4.53325C13.3333 3.41315 13.3333 2.85309 13.1153 2.42527C12.9236 2.04895 12.6176 1.74299 12.2413 1.55124C11.8135 1.33325 11.2534 1.33325 10.1333 1.33325H5.86666C4.74656 1.33325 4.18651 1.33325 3.75868 1.55124C3.38236 1.74299 3.0764 2.04895 2.88465 2.42527C2.66666 2.85309 2.66666 3.41315 2.66666 4.53325V10.1333C2.66666 11.2534 2.66666 11.8134 2.88465 12.2412C3.0764 12.6176 3.38236 12.9235 3.75868 13.1153C4.18651 13.3333 4.74656 13.3333 5.86666 13.3333Z" stroke="black" stroke-width="1.33" stroke-linecap="round" stroke-linejoin="round"/>
</svg>
