<svg width="16" height="16" viewBox="0 0 16 16" fill="none" xmlns="http://www.w3.org/2000/svg">
<g clip-path="url(#clip0_7140_52670)">
<path d="M8.66657 9.33337L6.66657 7.33337M10.0068 2.33337V1.33337M12.633 3.37381L13.3401 2.66671M12.633 8.66671L13.3401 9.37381M7.34013 3.37381L6.63303 2.66671M13.6735 6.00004H14.6735M4.08748 13.9125L10.2457 7.75429C10.5097 7.49028 10.6417 7.35827 10.6911 7.20605C10.7346 7.07216 10.7346 6.92792 10.6911 6.79403C10.6417 6.64181 10.5097 6.5098 10.2457 6.24579L9.75415 5.75429C9.49013 5.49028 9.35813 5.35827 9.20591 5.30881C9.07201 5.26531 8.92778 5.26531 8.79389 5.30881C8.64167 5.35827 8.50966 5.49028 8.24565 5.75429L2.08748 11.9125C1.82347 12.1765 1.69146 12.3085 1.642 12.4607C1.5985 12.5946 1.5985 12.7388 1.642 12.8727C1.69146 13.0249 1.82347 13.1569 2.08748 13.421L2.57899 13.9125C2.843 14.1765 2.975 14.3085 3.12722 14.3579C3.26112 14.4014 3.40535 14.4014 3.53924 14.3579C3.69146 14.3085 3.82347 14.1765 4.08748 13.9125Z" stroke="black" stroke-width="1.33" stroke-linecap="round" stroke-linejoin="round"/>
</g>
<defs>
<clipPath id="clip0_7140_52670">
<rect width="16" height="16" fill="white"/>
</clipPath>
</defs>
</svg>
