<svg width="16" height="16" viewBox="0 0 16 16" fill="none" xmlns="http://www.w3.org/2000/svg">
<path d="M1.33325 4.66669L4.79581 6.97506C4.99558 7.10824 5.09546 7.17482 5.20352 7.222C5.29943 7.26387 5.39994 7.2943 5.50297 7.31266C5.61905 7.33335 5.73909 7.33335 5.97917 7.33335H10.0207C10.2607 7.33335 10.3808 7.33335 10.4969 7.31266C10.5999 7.2943 10.7004 7.26387 10.7963 7.222C10.9044 7.17482 11.0043 7.10823 11.204 6.97506L14.6666 4.66669M4.53325 13.3334H11.4666C12.5867 13.3334 13.1467 13.3334 13.5746 13.1154C13.9509 12.9236 14.2569 12.6177 14.4486 12.2413C14.6666 11.8135 14.6666 11.2535 14.6666 10.1334V5.86669C14.6666 4.74658 14.6666 4.18653 14.4486 3.75871C14.2569 3.38238 13.9509 3.07642 13.5746 2.88467C13.1467 2.66669 12.5867 2.66669 11.4666 2.66669H4.53325C3.41315 2.66669 2.85309 2.66669 2.42527 2.88467C2.04895 3.07642 1.74299 3.38238 1.55124 3.75871C1.33325 4.18653 1.33325 4.74658 1.33325 5.86669V10.1334C1.33325 11.2535 1.33325 11.8135 1.55124 12.2413C1.74299 12.6177 2.04895 12.9236 2.42527 13.1154C2.85309 13.3334 3.41315 13.3334 4.53325 13.3334Z" stroke="black" stroke-width="1.33" stroke-linecap="round" stroke-linejoin="round"/>
</svg>
