<svg width="16" height="16" viewBox="0 0 16 16" fill="none" xmlns="http://www.w3.org/2000/svg">
<g clip-path="url(#clip0_7140_53146)">
<path d="M13.3333 7.99992C13.3333 10.9454 10.9455 13.3333 7.99999 13.3333M13.3333 7.99992C13.3333 5.0544 10.9455 2.66659 7.99999 2.66659M13.3333 7.99992H14.6667M7.99999 13.3333C5.05448 13.3333 2.66666 10.9454 2.66666 7.99992M7.99999 13.3333V14.6666M2.66666 7.99992C2.66666 5.0544 5.05448 2.66659 7.99999 2.66659M2.66666 7.99992H1.33333M7.99999 2.66659V1.33325M9.99999 7.99992C9.99999 9.10449 9.10456 9.99992 7.99999 9.99992C6.89543 9.99992 5.99999 9.10449 5.99999 7.99992C5.99999 6.89535 6.89543 5.99992 7.99999 5.99992C9.10456 5.99992 9.99999 6.89535 9.99999 7.99992Z" stroke="black" stroke-width="1.33" stroke-linecap="round" stroke-linejoin="round"/>
</g>
<defs>
<clipPath id="clip0_7140_53146">
<rect width="16" height="16" fill="white"/>
</clipPath>
</defs>
</svg>
