<svg width="16" height="16" viewBox="0 0 16 16" fill="none" xmlns="http://www.w3.org/2000/svg">
<g clip-path="url(#clip0_7140_51384)">
<path d="M7.99999 14.6667C11.6819 14.6667 14.6667 11.6819 14.6667 8.00004C14.6667 4.31814 11.6819 1.33337 7.99999 1.33337C4.3181 1.33337 1.33333 4.31814 1.33333 8.00004C1.33333 11.6819 4.3181 14.6667 7.99999 14.6667Z" stroke="black" stroke-width="1.33" stroke-linecap="round" stroke-linejoin="round"/>
<path d="M9.22222 4.86671C9.22222 4.68002 9.22222 4.58668 9.18589 4.51538C9.15393 4.45266 9.10293 4.40166 9.04021 4.36971C8.96891 4.33337 8.87557 4.33337 8.68888 4.33337H7.31111C7.12442 4.33337 7.03108 4.33337 6.95978 4.36971C6.89705 4.40166 6.84606 4.45266 6.8141 4.51538C6.77777 4.58668 6.77777 4.68002 6.77777 4.86671V6.24448C6.77777 6.43117 6.77777 6.52451 6.74144 6.59582C6.70948 6.65854 6.65849 6.70953 6.59577 6.74149C6.52447 6.77782 6.43112 6.77782 6.24444 6.77782H4.86666C4.67998 6.77782 4.58663 6.77782 4.51533 6.81415C4.45261 6.84611 4.40162 6.8971 4.36966 6.95982C4.33333 7.03112 4.33333 7.12447 4.33333 7.31115V8.68893C4.33333 8.87561 4.33333 8.96896 4.36966 9.04026C4.40162 9.10298 4.45261 9.15397 4.51533 9.18593C4.58663 9.22226 4.67998 9.22226 4.86666 9.22226H6.24444C6.43112 9.22226 6.52447 9.22226 6.59577 9.25859C6.65849 9.29055 6.70948 9.34155 6.74144 9.40427C6.77777 9.47557 6.77777 9.56891 6.77777 9.7556V11.1334C6.77777 11.3201 6.77777 11.4134 6.8141 11.4847C6.84606 11.5474 6.89705 11.5984 6.95978 11.6304C7.03108 11.6667 7.12442 11.6667 7.31111 11.6667H8.68888C8.87557 11.6667 8.96891 11.6667 9.04021 11.6304C9.10293 11.5984 9.15393 11.5474 9.18589 11.4847C9.22222 11.4134 9.22222 11.3201 9.22222 11.1334V9.7556C9.22222 9.56891 9.22222 9.47557 9.25855 9.40427C9.29051 9.34155 9.3415 9.29055 9.40422 9.25859C9.47552 9.22226 9.56887 9.22226 9.75555 9.22226H11.1333C11.32 9.22226 11.4134 9.22226 11.4847 9.18593C11.5474 9.15397 11.5984 9.10298 11.6303 9.04026C11.6667 8.96896 11.6667 8.87561 11.6667 8.68893V7.31115C11.6667 7.12447 11.6667 7.03113 11.6303 6.95982C11.5984 6.8971 11.5474 6.84611 11.4847 6.81415C11.4134 6.77782 11.32 6.77782 11.1333 6.77782H9.75555C9.56887 6.77782 9.47552 6.77782 9.40422 6.74149C9.3415 6.70953 9.29051 6.65854 9.25855 6.59582C9.22222 6.52451 9.22222 6.43117 9.22222 6.24448V4.86671Z" stroke="black" stroke-width="1.33" stroke-linecap="round" stroke-linejoin="round"/>
</g>
<defs>
<clipPath id="clip0_7140_51384">
<rect width="16" height="16" fill="white"/>
</clipPath>
</defs>
</svg>
