<svg width="16" height="16" viewBox="0 0 16 16" fill="none" xmlns="http://www.w3.org/2000/svg">
<path d="M2 14.6666H8M7.33333 4.16794C7.75949 4.05826 8.20627 3.99992 8.66667 3.99992C11.6122 3.99992 14 6.38773 14 9.33325C14 11.5715 12.6212 13.4877 10.6667 14.2789M3.66667 8.66658H6.33333C6.6431 8.66658 6.79799 8.66658 6.92679 8.6922C7.45571 8.79741 7.86917 9.21088 7.97438 9.7398C8 9.8686 8 10.0235 8 10.3333C8 10.643 8 10.7979 7.97438 10.9267C7.86917 11.4556 7.45571 11.8691 6.92679 11.9743C6.79799 11.9999 6.6431 11.9999 6.33333 11.9999H3.66667C3.3569 11.9999 3.20201 11.9999 3.07321 11.9743C2.54429 11.8691 2.13083 11.4556 2.02562 10.9267C2 10.7979 2 10.643 2 10.3333C2 10.0235 2 9.8686 2.02562 9.7398C2.13083 9.21088 2.54429 8.79741 3.07321 8.6922C3.20201 8.66658 3.3569 8.66658 3.66667 8.66658ZM2.66667 3.66659V8.66658H7.33333V3.66659C7.33333 2.37792 6.28866 1.33325 5 1.33325C3.71134 1.33325 2.66667 2.37792 2.66667 3.66659Z" stroke="black" stroke-width="1.33" stroke-linecap="round" stroke-linejoin="round"/>
</svg>
