<svg width="16" height="16" viewBox="0 0 16 16" fill="none" xmlns="http://www.w3.org/2000/svg">
<path d="M1.99991 5.3333H2.13324C3.25335 5.3333 3.8134 5.3333 4.24122 5.11532C4.61755 4.92357 4.92351 4.61761 5.11525 4.24128C5.33324 3.81346 5.33324 3.25341 5.33324 2.1333V1.99997M1.99991 10.6666H2.13324C3.25335 10.6666 3.8134 10.6666 4.24122 10.8846C4.61755 11.0764 4.92351 11.3823 5.11525 11.7587C5.33324 12.1865 5.33324 12.7465 5.33324 13.8666V14M10.6666 1.99997V2.1333C10.6666 3.25341 10.6666 3.81346 10.8846 4.24128C11.0763 4.61761 11.3823 4.92357 11.7586 5.11532C12.1864 5.3333 12.7465 5.3333 13.8666 5.3333H13.9999M10.6666 14V13.8666C10.6666 12.7465 10.6666 12.1865 10.8846 11.7587C11.0763 11.3823 11.3823 11.0764 11.7586 10.8846C12.1864 10.6666 12.7465 10.6666 13.8666 10.6666H13.9999" stroke="black" stroke-width="1.33" stroke-linecap="round" stroke-linejoin="round"/>
</svg>
