<svg width="16" height="16" viewBox="0 0 16 16" fill="none" xmlns="http://www.w3.org/2000/svg">
<path d="M3.66659 13.3333H5.33325M11.3333 5.99999H11.3399M5.33325 3.99999H3.46659C2.71985 3.99999 2.34648 3.99999 2.06126 4.14531C1.81038 4.27315 1.60641 4.47712 1.47858 4.728C1.33325 5.01322 1.33325 5.38659 1.33325 6.13332V8.53332C1.33325 9.28006 1.33325 9.65343 1.47858 9.93864C1.60641 10.1895 1.81038 10.3935 2.06126 10.5213C2.34648 10.6667 2.71985 10.6667 3.46659 10.6667H5.33325M10.1333 13.3333H12.5333C13.28 13.3333 13.6534 13.3333 13.9386 13.188C14.1895 13.0602 14.3934 12.8562 14.5213 12.6053C14.6666 12.3201 14.6666 11.9467 14.6666 11.2V4.79999C14.6666 4.05325 14.6666 3.67988 14.5213 3.39467C14.3934 3.14379 14.1895 2.93981 13.9386 2.81198C13.6534 2.66666 13.28 2.66666 12.5333 2.66666H10.1333C9.38651 2.66666 9.01315 2.66666 8.72793 2.81198C8.47705 2.93981 8.27307 3.14379 8.14524 3.39467C7.99992 3.67988 7.99992 4.05325 7.99992 4.79999V11.2C7.99992 11.9467 7.99992 12.3201 8.14524 12.6053C8.27307 12.8562 8.47705 13.0602 8.72793 13.188C9.01315 13.3333 9.38651 13.3333 10.1333 13.3333ZM11.9999 9.99999C11.9999 10.3682 11.7014 10.6667 11.3333 10.6667C10.9651 10.6667 10.6666 10.3682 10.6666 9.99999C10.6666 9.6318 10.9651 9.33332 11.3333 9.33332C11.7014 9.33332 11.9999 9.6318 11.9999 9.99999Z" stroke="black" stroke-width="1.33" stroke-linecap="round" stroke-linejoin="round"/>
</svg>
