<svg width="16" height="16" viewBox="0 0 16 16" fill="none" xmlns="http://www.w3.org/2000/svg">
<g clip-path="url(#clip0_7140_53299)">
<path d="M12 1.33325L12.4119 2.15697C12.5889 2.51096 12.6774 2.68795 12.7956 2.84133C12.9005 2.97743 13.0225 3.09943 13.1586 3.20434C13.312 3.32257 13.489 3.41106 13.843 3.58806L14.6667 3.99992L13.843 4.41178C13.489 4.58877 13.312 4.67727 13.1586 4.79549C13.0225 4.9004 12.9005 5.02241 12.7956 5.15851C12.6774 5.31188 12.5889 5.48888 12.4119 5.84286L12 6.66658L11.5882 5.84286C11.4112 5.48888 11.3227 5.31188 11.2045 5.15851C11.0996 5.02241 10.9775 4.9004 10.8414 4.79549C10.6881 4.67727 10.5111 4.58877 10.1571 4.41178L9.33337 3.99992L10.1571 3.58806C10.5111 3.41106 10.6881 3.32257 10.8414 3.20434C10.9775 3.09943 11.0996 2.97742 11.2045 2.84133C11.3227 2.68795 11.4112 2.51096 11.5882 2.15697L12 1.33325Z" stroke="black" stroke-width="1.33" stroke-linecap="round" stroke-linejoin="round"/>
<path d="M14 8.92612C13.126 10.4593 11.4764 11.4929 9.58534 11.4929C6.78076 11.4929 4.50721 9.21937 4.50721 6.4148C4.50721 4.52361 5.54103 2.87388 7.07437 1.99992C3.85324 2.30533 1.33337 5.01787 1.33337 8.31894C1.33337 11.8246 4.17532 14.6666 7.68104 14.6666C10.982 14.6666 13.6944 12.147 14 8.92612Z" stroke="black" stroke-width="1.33" stroke-linecap="round" stroke-linejoin="round"/>
</g>
<defs>
<clipPath id="clip0_7140_53299">
<rect width="16" height="16" fill="white"/>
</clipPath>
</defs>
</svg>
