<svg width="16" height="16" viewBox="0 0 16 16" fill="none" xmlns="http://www.w3.org/2000/svg">
<g clip-path="url(#clip0_7140_53173)">
<path d="M7.55801 4.10744L13.5336 1.77552C13.8917 1.63576 14.0707 1.56588 14.1852 1.60411C14.2845 1.6373 14.3625 1.71528 14.3957 1.81465C14.4339 1.92907 14.364 2.10813 14.2243 2.46625L11.8849 8.4609M10.9238 10.9238L9.83073 13.7247C9.67591 14.1215 9.5985 14.3198 9.48723 14.3776C9.39077 14.4277 9.27594 14.4277 9.17954 14.3774C9.06834 14.3195 8.99116 14.1211 8.83682 13.7242L7.08474 9.21883C7.05341 9.13826 7.03774 9.09798 7.01355 9.06406C6.9921 9.03399 6.96581 9.0077 6.93575 8.98625C6.90183 8.96206 6.86154 8.94639 6.78098 8.91506L2.27564 7.16299C1.87874 7.00864 1.68029 6.93146 1.62236 6.82026C1.57213 6.72386 1.57206 6.60903 1.62218 6.51257C1.67998 6.4013 1.87834 6.32389 2.27506 6.16908L5.07833 5.07512M13.9997 14.0001L1.99969 2.00012" stroke="black" stroke-width="1.33" stroke-linecap="round" stroke-linejoin="round"/>
</g>
<defs>
<clipPath id="clip0_7140_53173">
<rect width="16" height="16" fill="white"/>
</clipPath>
</defs>
</svg>
