<svg width="16" height="16" viewBox="0 0 16 16" fill="none" xmlns="http://www.w3.org/2000/svg">
<path d="M3.35789 14.2169C2.9681 14.3885 2.77321 14.4742 2.65361 14.4365C2.54993 14.4039 2.46868 14.3227 2.43591 14.2191C2.39811 14.0995 2.48363 13.9045 2.65468 13.5146L7.50892 2.44688C7.66333 2.09483 7.74054 1.9188 7.84847 1.86493C7.9422 1.81814 8.05248 1.81814 8.14622 1.86493C8.25415 1.9188 8.33136 2.09483 8.48577 2.44688L13.34 13.5146C13.5111 13.9045 13.5966 14.0995 13.5588 14.2191C13.526 14.3227 13.4448 14.4039 13.3411 14.4365C13.2215 14.4742 13.0266 14.3885 12.6368 14.2169L8.21214 12.2701C8.13301 12.2353 8.09345 12.2179 8.05236 12.211C8.01594 12.2049 7.97875 12.2049 7.94233 12.211C7.90124 12.2179 7.86167 12.2353 7.78255 12.2701L3.35789 14.2169Z" stroke="black" stroke-width="1.33" stroke-linecap="round" stroke-linejoin="round"/>
</svg>
