<svg width="16" height="16" viewBox="0 0 16 16" fill="none" xmlns="http://www.w3.org/2000/svg">
<g clip-path="url(#clip0_7140_51754)">
<path d="M4.92762 1.64573C5.04292 1.53043 5.10057 1.47278 5.16785 1.43155C5.2275 1.395 5.29253 1.36806 5.36055 1.35173C5.43728 1.33331 5.51881 1.33331 5.68187 1.33331H10.3182C10.4813 1.33331 10.5628 1.33331 10.6395 1.35173C10.7076 1.36806 10.7726 1.395 10.8322 1.43155C10.8995 1.47278 10.9572 1.53043 11.0725 1.64573L14.3543 4.92756C14.4696 5.04286 14.5272 5.10051 14.5685 5.16779C14.605 5.22744 14.632 5.29247 14.6483 5.36049C14.6667 5.43722 14.6667 5.51875 14.6667 5.68181V10.3182C14.6667 10.4812 14.6667 10.5627 14.6483 10.6395C14.632 10.7075 14.605 10.7725 14.5685 10.8322C14.5272 10.8994 14.4696 10.9571 14.3543 11.0724L11.0725 14.3542C10.9572 14.4695 10.8995 14.5272 10.8322 14.5684C10.7726 14.605 10.7076 14.6319 10.6395 14.6482C10.5628 14.6666 10.4813 14.6666 10.3182 14.6666H5.68187C5.51881 14.6666 5.43728 14.6666 5.36055 14.6482C5.29253 14.6319 5.2275 14.605 5.16785 14.5684C5.10057 14.5272 5.04292 14.4695 4.92762 14.3542L1.64579 11.0724C1.53049 10.9571 1.47284 10.8994 1.43161 10.8322C1.39506 10.7725 1.36813 10.7075 1.35179 10.6395C1.33337 10.5627 1.33337 10.4812 1.33337 10.3182V5.68181C1.33337 5.51875 1.33337 5.43722 1.35179 5.36049C1.36813 5.29247 1.39506 5.22744 1.43161 5.16779C1.47284 5.10051 1.53049 5.04286 1.64579 4.92756L4.92762 1.64573Z" stroke="black" stroke-width="1.33" stroke-linecap="round" stroke-linejoin="round"/>
</g>
<defs>
<clipPath id="clip0_7140_51754">
<rect width="16" height="16" fill="white"/>
</clipPath>
</defs>
</svg>
