<svg width="16" height="16" viewBox="0 0 16 16" fill="none" xmlns="http://www.w3.org/2000/svg">
<g clip-path="url(#clip0_7140_52682)">
<path d="M10.6665 7.33325L1.33313 7.33325M6.66647 2.66659L5.33313 1.33325M9.33313 14.6666L1.33313 14.6666M14.6665 10.6666C14.6665 11.403 14.0695 11.9999 13.3331 11.9999C12.5968 11.9999 11.9998 11.403 11.9998 10.6666C11.9998 9.93021 13.3331 8.66658 13.3331 8.66658C13.3331 8.66658 14.6665 9.93021 14.6665 10.6666ZM5.9998 1.99992L10.5789 6.579C10.8429 6.84302 10.9749 6.97502 11.0244 7.12724C11.0679 7.26114 11.0679 7.40537 11.0244 7.53926C10.9749 7.69148 10.8429 7.82349 10.5789 8.0875L7.50829 11.1581C6.98027 11.6861 6.71626 11.9501 6.41182 12.049C6.14403 12.1361 5.85557 12.1361 5.58778 12.049C5.28334 11.9501 5.01933 11.6861 4.4913 11.1581L2.17496 8.84174C1.64694 8.31372 1.38293 8.04971 1.28401 7.74527C1.197 7.47748 1.197 7.18902 1.28401 6.92123C1.38293 6.61679 1.64694 6.35278 2.17496 5.82476L5.9998 1.99992Z" stroke="black" stroke-width="1.33" stroke-linecap="round" stroke-linejoin="round"/>
</g>
<defs>
<clipPath id="clip0_7140_52682">
<rect width="16" height="16" fill="white"/>
</clipPath>
</defs>
</svg>
