<svg width="16" height="16" viewBox="0 0 16 16" fill="none" xmlns="http://www.w3.org/2000/svg">
<g clip-path="url(#clip0_7140_52685)">
<path d="M1.33325 7.99992C1.33325 11.6818 4.31802 14.6666 7.99992 14.6666C9.10449 14.6666 9.99992 13.7712 9.99992 12.6666V12.3333C9.99992 12.0236 9.99992 11.8688 10.017 11.7389C10.1352 10.8414 10.8414 10.1352 11.7389 10.017C11.8688 9.99992 12.0236 9.99992 12.3333 9.99992H12.6666C13.7712 9.99992 14.6666 9.10449 14.6666 7.99992C14.6666 4.31802 11.6818 1.33325 7.99992 1.33325C4.31802 1.33325 1.33325 4.31802 1.33325 7.99992Z" stroke="black" stroke-width="1.33" stroke-linecap="round" stroke-linejoin="round"/>
<path d="M4.66659 8.66658C5.03477 8.66658 5.33325 8.36811 5.33325 7.99992C5.33325 7.63173 5.03477 7.33325 4.66659 7.33325C4.2984 7.33325 3.99992 7.63173 3.99992 7.99992C3.99992 8.36811 4.2984 8.66658 4.66659 8.66658Z" stroke="black" stroke-width="1.33" stroke-linecap="round" stroke-linejoin="round"/>
<path d="M10.6666 5.99992C11.0348 5.99992 11.3333 5.70144 11.3333 5.33325C11.3333 4.96506 11.0348 4.66659 10.6666 4.66659C10.2984 4.66659 9.99992 4.96506 9.99992 5.33325C9.99992 5.70144 10.2984 5.99992 10.6666 5.99992Z" stroke="black" stroke-width="1.33" stroke-linecap="round" stroke-linejoin="round"/>
<path d="M6.66658 5.33325C7.03477 5.33325 7.33325 5.03477 7.33325 4.66659C7.33325 4.2984 7.03477 3.99992 6.66658 3.99992C6.2984 3.99992 5.99992 4.2984 5.99992 4.66659C5.99992 5.03477 6.2984 5.33325 6.66658 5.33325Z" stroke="black" stroke-width="1.33" stroke-linecap="round" stroke-linejoin="round"/>
</g>
<defs>
<clipPath id="clip0_7140_52685">
<rect width="16" height="16" fill="white"/>
</clipPath>
</defs>
</svg>
