<svg width="16" height="16" viewBox="0 0 16 16" fill="none" xmlns="http://www.w3.org/2000/svg">
<path d="M6.66667 10.6666H9.33334M5.86667 14.6666H10.1333C11.2534 14.6666 11.8135 14.6666 12.2413 14.4486C12.6176 14.2569 12.9236 13.9509 13.1154 13.5746C13.3333 13.1467 13.3333 12.5867 13.3333 11.4666V4.53325C13.3333 3.41315 13.3333 2.85309 13.1154 2.42527C12.9236 2.04895 12.6176 1.74299 12.2413 1.55124C11.8135 1.33325 11.2534 1.33325 10.1333 1.33325H5.86667C4.74657 1.33325 4.18651 1.33325 3.75869 1.55124C3.38237 1.74299 3.07641 2.04895 2.88466 2.42527C2.66667 2.85309 2.66667 3.41315 2.66667 4.53325V11.4666C2.66667 12.5867 2.66667 13.1467 2.88466 13.5746C3.07641 13.9509 3.38237 14.2569 3.75869 14.4486C4.18651 14.6666 4.74657 14.6666 5.86667 14.6666ZM10 5.99992C10 7.10449 9.10457 7.99992 8.00001 7.99992C6.89544 7.99992 6.00001 7.10449 6.00001 5.99992C6.00001 4.89535 6.89544 3.99992 8.00001 3.99992C9.10457 3.99992 10 4.89535 10 5.99992Z" stroke="black" stroke-width="1.33" stroke-linecap="round" stroke-linejoin="round"/>
</svg>
