<svg width="16" height="16" viewBox="0 0 16 16" fill="none" xmlns="http://www.w3.org/2000/svg">
<path d="M14.6666 7.33337V5.46671C14.6666 4.71997 14.6666 4.3466 14.5213 4.06139C14.3934 3.8105 14.1895 3.60653 13.9386 3.4787C13.6534 3.33337 13.28 3.33337 12.5333 3.33337H3.46659C2.71985 3.33337 2.34648 3.33337 2.06126 3.4787C1.81038 3.60653 1.60641 3.8105 1.47858 4.06139C1.33325 4.3466 1.33325 4.71997 1.33325 5.46671V7.86671C1.33325 8.61344 1.33325 8.98681 1.47858 9.27203C1.60641 9.52291 1.81038 9.72689 2.06126 9.85472C2.34648 10 2.71985 10 3.46659 10H7.33325M7.99992 6.66671H8.00325M11.3333 6.66671H11.3366M4.66659 6.66671H4.66992M12.8333 11.3334V10.1667C12.8333 9.52238 12.3109 9.00004 11.6666 9.00004C11.0223 9.00004 10.4999 9.52238 10.4999 10.1667V11.3334M8.16658 6.66671C8.16658 6.75875 8.09197 6.83337 7.99992 6.83337C7.90787 6.83337 7.83325 6.75875 7.83325 6.66671C7.83325 6.57466 7.90787 6.50004 7.99992 6.50004C8.09197 6.50004 8.16658 6.57466 8.16658 6.66671ZM11.4999 6.66671C11.4999 6.75875 11.4253 6.83337 11.3333 6.83337C11.2412 6.83337 11.1666 6.75875 11.1666 6.66671C11.1666 6.57466 11.2412 6.50004 11.3333 6.50004C11.4253 6.50004 11.4999 6.57466 11.4999 6.66671ZM4.83325 6.66671C4.83325 6.75875 4.75863 6.83337 4.66659 6.83337C4.57454 6.83337 4.49992 6.75875 4.49992 6.66671C4.49992 6.57466 4.57454 6.50004 4.66659 6.50004C4.75863 6.50004 4.83325 6.57466 4.83325 6.66671ZM10.3999 14H12.9333C13.3066 14 13.4933 14 13.6359 13.9274C13.7614 13.8635 13.8633 13.7615 13.9273 13.636C13.9999 13.4934 13.9999 13.3067 13.9999 12.9334V12.4C13.9999 12.0267 13.9999 11.84 13.9273 11.6974C13.8633 11.5719 13.7614 11.47 13.6359 11.406C13.4933 11.3334 13.3066 11.3334 12.9333 11.3334H10.3999C10.0266 11.3334 9.83987 11.3334 9.69726 11.406C9.57182 11.47 9.46983 11.5719 9.40591 11.6974C9.33325 11.84 9.33325 12.0267 9.33325 12.4V12.9334C9.33325 13.3067 9.33325 13.4934 9.40591 13.636C9.46983 13.7615 9.57182 13.8635 9.69726 13.9274C9.83987 14 10.0266 14 10.3999 14Z" stroke="black" stroke-width="1.33" stroke-linecap="round" stroke-linejoin="round"/>
</svg>
