<svg width="16" height="16" viewBox="0 0 16 16" fill="none" xmlns="http://www.w3.org/2000/svg">
<g clip-path="url(#clip0_7140_52694)">
<path d="M11.9999 8.66658L11.1335 4.33447C11.0851 4.09247 11.0609 3.97147 11.002 3.87294C10.95 3.78582 10.8788 3.71174 10.7938 3.65632C10.6977 3.59363 10.5777 3.56468 10.3378 3.50677L1.33325 1.33325M1.33325 1.33325L3.50677 10.3378C3.56468 10.5777 3.59363 10.6977 3.65632 10.7938C3.71174 10.8788 3.78582 10.95 3.87294 11.002C3.97147 11.0609 4.09247 11.0851 4.33447 11.1335L8.66658 11.9999M1.33325 1.33325L6.39059 6.39059M10.7542 13.9123L13.9123 10.7542C14.1763 10.4902 14.3084 10.3581 14.3578 10.2059C14.4013 10.072 14.4013 9.9278 14.3578 9.79391C14.3084 9.64169 14.1763 9.50968 13.9123 9.24567L13.4208 8.75417C13.1568 8.49015 13.0248 8.35815 12.8726 8.30869C12.7387 8.26518 12.5945 8.26518 12.4606 8.30869C12.3084 8.35815 12.1763 8.49015 11.9123 8.75416L8.75417 11.9123C8.49015 12.1763 8.35815 12.3084 8.30869 12.4606C8.26518 12.5945 8.26518 12.7387 8.30869 12.8726C8.35815 13.0248 8.49015 13.1568 8.75417 13.4208L9.24567 13.9123C9.50968 14.1763 9.64169 14.3084 9.79391 14.3578C9.9278 14.4013 10.072 14.4013 10.2059 14.3578C10.3581 14.3084 10.4902 14.1763 10.7542 13.9123ZM8.66658 7.33325C8.66658 8.06963 8.06963 8.66658 7.33325 8.66658C6.59687 8.66658 5.99992 8.06963 5.99992 7.33325C5.99992 6.59687 6.59687 5.99992 7.33325 5.99992C8.06963 5.99992 8.66658 6.59687 8.66658 7.33325Z" stroke="black" stroke-width="1.33" stroke-linecap="round" stroke-linejoin="round"/>
</g>
<defs>
<clipPath id="clip0_7140_52694">
<rect width="16" height="16" fill="white"/>
</clipPath>
</defs>
</svg>
