<svg width="16" height="16" viewBox="0 0 16 16" fill="none" xmlns="http://www.w3.org/2000/svg">
<g clip-path="url(#clip0_7140_52709)">
<path d="M11.9999 1.33325L14.6666 3.99992M1.33325 14.6666L2.18419 11.5465C2.2397 11.3429 2.26746 11.2412 2.31007 11.1462C2.34791 11.062 2.3944 10.9819 2.4488 10.9072C2.51006 10.8231 2.58466 10.7485 2.73385 10.5993L9.62279 3.71038C9.7548 3.57837 9.8208 3.51237 9.89691 3.48764C9.96386 3.46588 10.036 3.46588 10.1029 3.48764C10.179 3.51237 10.245 3.57837 10.377 3.71038L12.2895 5.62279C12.4215 5.7548 12.4875 5.8208 12.5122 5.89691C12.534 5.96386 12.534 6.03598 12.5122 6.10292C12.4875 6.17903 12.4215 6.24504 12.2895 6.37704L5.40052 13.266C5.25133 13.4152 5.17673 13.4898 5.09264 13.551C5.01798 13.6054 4.93787 13.6519 4.8536 13.6898C4.75868 13.7324 4.6569 13.7601 4.45334 13.8157L1.33325 14.6666Z" stroke="black" stroke-width="1.33" stroke-linecap="round" stroke-linejoin="round"/>
</g>
<defs>
<clipPath id="clip0_7140_52709">
<rect width="16" height="16" fill="white"/>
</clipPath>
</defs>
</svg>
