<svg width="16" height="16" viewBox="0 0 16 16" fill="none" xmlns="http://www.w3.org/2000/svg">
<g clip-path="url(#clip0_7140_50121)">
<path d="M7.99993 7.99992L1.55444 6.29695C1.13975 7.86649 1.31201 9.53341 2.0389 10.985C2.76579 12.4365 3.99736 13.573 5.50255 14.1811L7.99993 7.99992ZM7.99993 7.99992L8.06974 1.33362C6.5903 1.31812 5.14774 1.79521 3.96927 2.68972C2.79079 3.58423 1.94335 4.84535 1.56042 6.27446L7.99993 7.99992ZM14.6666 7.99992C14.6666 11.6818 11.6818 14.6666 7.99993 14.6666C4.31803 14.6666 1.33326 11.6818 1.33326 7.99992C1.33326 4.31802 4.31803 1.33325 7.99993 1.33325C11.6818 1.33325 14.6666 4.31802 14.6666 7.99992Z" stroke="black" stroke-width="1.33" stroke-linecap="round" stroke-linejoin="round"/>
</g>
<defs>
<clipPath id="clip0_7140_50121">
<rect width="16" height="16" fill="white"/>
</clipPath>
</defs>
</svg>
