<svg width="16" height="16" viewBox="0 0 16 16" fill="none" xmlns="http://www.w3.org/2000/svg">
<g clip-path="url(#clip0_7140_50115)">
<path d="M11.4666 9.33328C11.6513 9.33328 11.7436 9.33328 11.8184 9.37429C11.8802 9.40811 11.9376 9.47163 11.9651 9.53643C11.9984 9.61499 11.9901 9.69857 11.9733 9.86575C11.8863 10.7325 11.588 11.5676 11.1011 12.2963C10.5151 13.1734 9.6821 13.857 8.70757 14.2606C7.73303 14.6643 6.66067 14.7699 5.62611 14.5641C4.59154 14.3584 3.64123 13.8504 2.89535 13.1045C2.14947 12.3586 1.64152 11.4083 1.43573 10.3738C1.22995 9.3392 1.33556 8.26684 1.73923 7.29231C2.1429 6.31777 2.82648 5.48481 3.70355 4.89878C4.43229 4.41185 5.26742 4.11355 6.13412 4.02659C6.3013 4.00982 6.38488 4.00143 6.46344 4.03476C6.52824 4.06225 6.59176 4.11972 6.62558 4.18145C6.66659 4.25629 6.66659 4.34862 6.66659 4.53328V8.79995C6.66659 8.98663 6.66659 9.07998 6.70292 9.15128C6.73488 9.214 6.78587 9.26499 6.84859 9.29695C6.91989 9.33328 7.01324 9.33328 7.19992 9.33328H11.4666Z" stroke="black" stroke-width="1.33" stroke-linecap="round" stroke-linejoin="round"/>
<path d="M9.33325 1.86662C9.33325 1.68195 9.33325 1.58961 9.37426 1.51478C9.40808 1.45304 9.47159 1.39558 9.53639 1.36809C9.61495 1.33476 9.69854 1.34314 9.86572 1.35991C11.0847 1.48218 12.2306 2.02148 13.1045 2.89538C13.9784 3.76928 14.5177 4.91522 14.64 6.13415C14.6567 6.30133 14.6651 6.38492 14.6318 6.46347C14.6043 6.52828 14.5468 6.59179 14.4851 6.62561C14.4103 6.66662 14.3179 6.66662 14.1333 6.66662L9.86659 6.66662C9.6799 6.66662 9.58656 6.66662 9.51526 6.63029C9.45254 6.59833 9.40154 6.54733 9.36959 6.48461C9.33325 6.41331 9.33325 6.31997 9.33325 6.13328V1.86662Z" stroke="black" stroke-width="1.33" stroke-linecap="round" stroke-linejoin="round"/>
</g>
<defs>
<clipPath id="clip0_7140_50115">
<rect width="16" height="16" fill="white"/>
</clipPath>
</defs>
</svg>
