<svg width="16" height="16" viewBox="0 0 16 16" fill="none" xmlns="http://www.w3.org/2000/svg">
<g clip-path="url(#clip0_7140_52097)">
<path d="M11.9999 4.66667V3.46667C11.9999 2.71993 11.9999 2.34656 11.8546 2.06134C11.7268 1.81046 11.5228 1.60649 11.2719 1.47866C10.9867 1.33333 10.6133 1.33333 9.86658 1.33333H6.13325C5.38652 1.33333 5.01315 1.33333 4.72793 1.47866C4.47705 1.60649 4.27307 1.81046 4.14524 2.06134C3.99992 2.34656 3.99992 2.71993 3.99992 3.46667V4.66667M3.99992 12C3.37994 12 3.06995 12 2.81561 11.9318C2.12543 11.7469 1.58633 11.2078 1.4014 10.5176C1.33325 10.2633 1.33325 9.95331 1.33325 9.33333V7.86667C1.33325 6.74656 1.33325 6.18651 1.55124 5.75868C1.74299 5.38236 2.04895 5.0764 2.42527 4.88465C2.85309 4.66667 3.41315 4.66667 4.53325 4.66667H11.4666C12.5867 4.66667 13.1467 4.66667 13.5746 4.88465C13.9509 5.0764 14.2569 5.38236 14.4486 5.75868C14.6666 6.18651 14.6666 6.74656 14.6666 7.86667V9.33333C14.6666 9.95331 14.6666 10.2633 14.5984 10.5176C14.4135 11.2078 13.8744 11.7469 13.1842 11.9318C12.9299 12 12.6199 12 11.9999 12M9.99992 7H11.9999M6.13325 14.6667H9.86658C10.6133 14.6667 10.9867 14.6667 11.2719 14.5213C11.5228 14.3935 11.7268 14.1895 11.8546 13.9387C11.9999 13.6534 11.9999 13.2801 11.9999 12.5333V11.4667C11.9999 10.7199 11.9999 10.3466 11.8546 10.0613C11.7268 9.81046 11.5228 9.60649 11.2719 9.47866C10.9867 9.33333 10.6133 9.33333 9.86658 9.33333H6.13325C5.38652 9.33333 5.01315 9.33333 4.72793 9.47866C4.47705 9.60649 4.27307 9.81046 4.14524 10.0613C3.99992 10.3466 3.99992 10.7199 3.99992 11.4667V12.5333C3.99992 13.2801 3.99992 13.6534 4.14524 13.9387C4.27307 14.1895 4.47705 14.3935 4.72793 14.5213C5.01315 14.6667 5.38651 14.6667 6.13325 14.6667Z" stroke="black" stroke-width="1.33" stroke-linecap="round" stroke-linejoin="round"/>
</g>
<defs>
<clipPath id="clip0_7140_52097">
<rect width="16" height="16" fill="white"/>
</clipPath>
</defs>
</svg>
