<svg width="16" height="16" viewBox="0 0 16 16" fill="none" xmlns="http://www.w3.org/2000/svg">
<path d="M11.3333 1.33334L14 4M14 4L11.3333 6.66667M14 4H5.2C4.0799 4 3.51984 4 3.09202 4.21799C2.71569 4.40974 2.40973 4.7157 2.21799 5.09202C2 5.51984 2 6.0799 2 7.2V7.33334M2 12H10.8C11.9201 12 12.4802 12 12.908 11.782C13.2843 11.5903 13.5903 11.2843 13.782 10.908C14 10.4802 14 9.92011 14 8.8V8.66667M2 12L4.66667 14.6667M2 12L4.66667 9.33334" stroke="black" stroke-width="1.33" stroke-linecap="round" stroke-linejoin="round"/>
</svg>
