<svg width="16" height="16" viewBox="0 0 16 16" fill="none" xmlns="http://www.w3.org/2000/svg">
<path d="M8 6.16672H2M8 2.66672L2 2.66672M14 9.83338H2M14 13.3334H2M13.1467 1.97338L10.5689 3.90672C10.3759 4.05146 10.2794 4.12384 10.2449 4.21256C10.2147 4.29027 10.2147 4.37649 10.2449 4.45421C10.2794 4.54293 10.3759 4.6153 10.5689 4.76005L13.1467 6.69338C13.4213 6.89937 13.5586 7.00237 13.6736 6.99998C13.7736 6.9979 13.8674 6.95099 13.9291 6.87222C14 6.78169 14 6.61003 14 6.26672V2.40005C14 2.05673 14 1.88508 13.9291 1.79455C13.8674 1.71577 13.7736 1.66887 13.6736 1.66679C13.5586 1.6644 13.4213 1.76739 13.1467 1.97338Z" stroke="black" stroke-width="1.33" stroke-linecap="round" stroke-linejoin="round"/>
</svg>
