<svg width="16" height="16" viewBox="0 0 16 16" fill="none" xmlns="http://www.w3.org/2000/svg">
<path d="M12.6667 3.00004C12.6667 3.30981 12.6667 3.4647 12.641 3.59349C12.5358 4.12242 12.1224 4.53588 11.5935 4.64109C11.4647 4.66671 11.3098 4.66671 11 4.66671H3.66667C3.3569 4.66671 3.20201 4.66671 3.07321 4.64109C2.54429 4.53588 2.13083 4.12242 2.02562 3.59349C2 3.4647 2 3.30981 2 3.00004C2 2.69027 2 2.53539 2.02562 2.40659C2.13083 1.87767 2.54429 1.4642 3.07321 1.35899C3.20201 1.33337 3.3569 1.33337 3.66667 1.33337H11C11.3098 1.33337 11.4647 1.33337 11.5935 1.35899C12.1224 1.4642 12.5358 1.87767 12.641 2.40659C12.6667 2.53539 12.6667 2.69027 12.6667 3.00004ZM12.6667 3.00004C13.2879 3.00004 13.5985 3.00004 13.8436 3.10153C14.1703 3.23686 14.4298 3.49643 14.5652 3.82313C14.6667 4.06816 14.6667 4.37879 14.6667 5.00004V5.20004C14.6667 5.94678 14.6667 6.32015 14.5213 6.60536C14.3935 6.85624 14.1895 7.06022 13.9387 7.18805C13.6534 7.33337 13.2801 7.33337 12.5333 7.33337H10.1333C9.3866 7.33337 9.01323 7.33337 8.72801 7.4787C8.47713 7.60653 8.27316 7.8105 8.14532 8.06139C8 8.3466 8 8.71997 8 9.46671V10M7.73333 14.6667H8.26667C8.64003 14.6667 8.82672 14.6667 8.96933 14.594C9.09477 14.5301 9.19676 14.4281 9.26067 14.3027C9.33333 14.1601 9.33333 13.9734 9.33333 13.6V11.0667C9.33333 10.6933 9.33333 10.5067 9.26067 10.364C9.19676 10.2386 9.09477 10.1366 8.96933 10.0727C8.82672 10 8.64004 10 8.26667 10H7.73333C7.35997 10 7.17328 10 7.03067 10.0727C6.90523 10.1366 6.80324 10.2386 6.73933 10.364C6.66667 10.5067 6.66667 10.6933 6.66667 11.0667V13.6C6.66667 13.9734 6.66667 14.1601 6.73933 14.3027C6.80324 14.4281 6.90523 14.5301 7.03067 14.594C7.17328 14.6667 7.35997 14.6667 7.73333 14.6667Z" stroke="black" stroke-width="1.33" stroke-linecap="round" stroke-linejoin="round"/>
</svg>
