<svg width="16" height="16" viewBox="0 0 16 16" fill="none" xmlns="http://www.w3.org/2000/svg">
<g clip-path="url(#clip0_7140_50342)">
<path d="M9.66672 3.66667L10.6667 4.66667M7.66672 5.66667L8.66672 6.66667M5.66672 7.66667L6.66672 8.66667M3.66672 9.66667L4.66672 10.6667M1.71049 11.7105L4.28957 14.2896C4.42158 14.4216 4.48758 14.4876 4.56369 14.5123C4.63064 14.5341 4.70276 14.5341 4.7697 14.5123C4.84581 14.4876 4.91182 14.4216 5.04382 14.2896L14.2896 5.04382C14.4216 4.91182 14.4876 4.84581 14.5123 4.7697C14.5341 4.70276 14.5341 4.63064 14.5123 4.56369C14.4876 4.48758 14.4216 4.42158 14.2896 4.28957L11.7105 1.71049C11.5785 1.57848 11.5125 1.51248 11.4364 1.48775C11.3694 1.466 11.2973 1.466 11.2304 1.48775C11.1542 1.51248 11.0882 1.57848 10.9562 1.71049L1.71049 10.9562C1.57848 11.0882 1.51248 11.1542 1.48775 11.2304C1.466 11.2973 1.466 11.3694 1.48775 11.4364C1.51248 11.5125 1.57848 11.5785 1.71049 11.7105Z" stroke="black" stroke-width="1.33" stroke-linecap="round" stroke-linejoin="round"/>
</g>
<defs>
<clipPath id="clip0_7140_50342">
<rect width="16" height="16" fill="white"/>
</clipPath>
</defs>
</svg>
