<svg width="16" height="16" viewBox="0 0 16 16" fill="none" xmlns="http://www.w3.org/2000/svg">
<g clip-path="url(#clip0_7140_50988)">
<path d="M5.99999 5.99992H6.00666M9.99999 9.99992H10.0067M10.6667 5.33325L5.33333 10.6666M14.6667 7.99992C14.6667 11.6818 11.6819 14.6666 7.99999 14.6666C4.3181 14.6666 1.33333 11.6818 1.33333 7.99992C1.33333 4.31802 4.3181 1.33325 7.99999 1.33325C11.6819 1.33325 14.6667 4.31802 14.6667 7.99992ZM6.33333 5.99992C6.33333 6.18401 6.18409 6.33325 5.99999 6.33325C5.8159 6.33325 5.66666 6.18401 5.66666 5.99992C5.66666 5.81582 5.8159 5.66659 5.99999 5.66659C6.18409 5.66659 6.33333 5.81582 6.33333 5.99992ZM10.3333 9.99992C10.3333 10.184 10.1841 10.3333 9.99999 10.3333C9.8159 10.3333 9.66666 10.184 9.66666 9.99992C9.66666 9.81582 9.8159 9.66658 9.99999 9.66658C10.1841 9.66658 10.3333 9.81582 10.3333 9.99992Z" stroke="black" stroke-width="1.33" stroke-linecap="round" stroke-linejoin="round"/>
</g>
<defs>
<clipPath id="clip0_7140_50988">
<rect width="16" height="16" fill="white"/>
</clipPath>
</defs>
</svg>
