<svg width="16" height="16" viewBox="0 0 16 16" fill="none" xmlns="http://www.w3.org/2000/svg">
<path d="M1.66697 8.66659H5.66697M10.3336 8.66659H14.3336M8.00031 4.66659V13.9999M8.00031 4.66659C8.92078 4.66659 9.66697 3.92039 9.66697 2.99992M8.00031 4.66659C7.07983 4.66659 6.33364 3.92039 6.33364 2.99992M2.66697 13.9999L13.3336 13.9999M2.66697 2.99992L6.33364 2.99992M6.33364 2.99992C6.33364 2.07944 7.07983 1.33325 8.00031 1.33325C8.92078 1.33325 9.66697 2.07944 9.66697 2.99992M9.66697 2.99992L13.3336 2.99992M5.9206 9.55749C5.65347 10.5803 4.74571 11.3333 3.66697 11.3333C2.58824 11.3333 1.68048 10.5803 1.41335 9.55749C1.39152 9.47392 1.38061 9.43213 1.37956 9.26516C1.37891 9.16282 1.41695 8.92682 1.44972 8.82986C1.50318 8.67168 1.56104 8.5824 1.67678 8.40384L3.66697 5.33325L5.65717 8.40384C5.7729 8.5824 5.83077 8.67168 5.88423 8.82986C5.917 8.92682 5.95504 9.16282 5.95439 9.26516C5.95334 9.43213 5.94242 9.47392 5.9206 9.55749ZM14.5873 9.55749C14.3201 10.5803 13.4124 11.3333 12.3336 11.3333C11.2549 11.3333 10.3471 10.5803 10.08 9.55749C10.0582 9.47392 10.0473 9.43213 10.0462 9.26516C10.0456 9.16282 10.0836 8.92682 10.1164 8.82986C10.1698 8.67168 10.2277 8.5824 10.3434 8.40384L12.3336 5.33325L14.3238 8.40384C14.4396 8.5824 14.4974 8.67168 14.5509 8.82986C14.5837 8.92682 14.6217 9.16282 14.6211 9.26516C14.62 9.43213 14.6091 9.47392 14.5873 9.55749Z" stroke="black" stroke-width="1.33" stroke-linecap="round" stroke-linejoin="round"/>
</svg>
