<svg width="16" height="16" viewBox="0 0 16 16" fill="none" xmlns="http://www.w3.org/2000/svg">
<g clip-path="url(#clip0_7140_52745)">
<path d="M9.33325 14.6667H4.53325M4.53325 14.6667C3.41315 14.6667 2.85309 14.6667 2.42527 14.4487C2.04895 14.257 1.74299 13.951 1.55124 13.5747C1.33325 13.1469 1.33325 12.5868 1.33325 11.4667M4.53325 14.6667H4.79992C5.92002 14.6667 6.48008 14.6667 6.9079 14.4487C7.28422 14.257 7.59018 13.951 7.78193 13.5747C7.99992 13.1469 7.99992 12.5868 7.99992 11.4667V11.2C7.99992 10.0799 7.99992 9.51988 7.78193 9.09206C7.59018 8.71573 7.28422 8.40977 6.9079 8.21803C6.48008 8.00004 5.92002 8.00004 4.79992 8.00004H4.53325C3.41315 8.00004 2.85309 8.00004 2.42527 8.21803C2.04895 8.40977 1.74299 8.71573 1.55124 9.09206C1.33325 9.51988 1.33325 10.0799 1.33325 11.2V11.4667M1.33325 11.4667V6.66671M6.66658 1.33337H9.33325M14.6666 6.66671V9.33337M11.9999 14.6667C12.6199 14.6667 12.9299 14.6667 13.1842 14.5986C13.8744 14.4136 14.4135 13.8745 14.5984 13.1843C14.6666 12.93 14.6666 12.62 14.6666 12M14.6666 4.00004C14.6666 3.38006 14.6666 3.07007 14.5984 2.81574C14.4135 2.12555 13.8744 1.58646 13.1842 1.40152C12.9299 1.33337 12.6199 1.33337 11.9999 1.33337M3.99992 1.33337C3.37994 1.33337 3.06995 1.33337 2.81561 1.40152C2.12543 1.58646 1.58633 2.12555 1.4014 2.81574C1.33325 3.07007 1.33325 3.38006 1.33325 4.00004" stroke="black" stroke-width="1.33" stroke-linecap="round" stroke-linejoin="round"/>
</g>
<defs>
<clipPath id="clip0_7140_52745">
<rect width="16" height="16" fill="white"/>
</clipPath>
</defs>
</svg>
