<svg width="16" height="16" viewBox="0 0 16 16" fill="none" xmlns="http://www.w3.org/2000/svg">
<path d="M6.49512 9.49639L13.4951 2.49639M6.58018 9.7151L8.33225 14.2204C8.4866 14.6173 8.56378 14.8158 8.67498 14.8737C8.77138 14.9239 8.88621 14.924 8.98267 14.8739C9.09394 14.8161 9.17135 14.6177 9.32616 14.221L13.7197 2.96252C13.8595 2.6044 13.9294 2.42534 13.8911 2.31093C13.8579 2.21156 13.78 2.13358 13.6806 2.10039C13.5662 2.06216 13.3871 2.13204 13.029 2.27179L1.77049 6.66535C1.37378 6.82017 1.17542 6.89758 1.11761 7.00885C1.0675 7.10531 1.06757 7.22014 1.11779 7.31654C1.17573 7.42774 1.37418 7.50491 1.77108 7.65926L6.27641 9.41134C6.35698 9.44267 6.39726 9.45833 6.43118 9.48253C6.46125 9.50398 6.48754 9.53027 6.50899 9.56033C6.53318 9.59425 6.54885 9.63454 6.58018 9.7151Z" stroke="black" stroke-width="1.33" stroke-linecap="round" stroke-linejoin="round"/>
</svg>
