<svg width="16" height="16" viewBox="0 0 16 16" fill="none" xmlns="http://www.w3.org/2000/svg">
<path d="M6.2634 12.9141L6.65303 13.7904C6.76885 14.0512 6.95788 14.2729 7.19718 14.4284C7.43648 14.584 7.71577 14.6667 8.00118 14.6667C8.28658 14.6667 8.56587 14.584 8.80517 14.4284C9.04447 14.2729 9.2335 14.0512 9.34932 13.7904L9.73895 12.9141C9.87765 12.6031 10.111 12.3439 10.4056 12.1733C10.7021 12.0023 11.0452 11.9294 11.3856 11.9652L12.339 12.0667C12.6227 12.0967 12.9091 12.0437 13.1634 11.9142C13.4177 11.7847 13.6289 11.5842 13.7715 11.337C13.9143 11.09 13.9824 10.8069 13.9674 10.5219C13.9524 10.237 13.855 9.96254 13.6871 9.73186L13.1227 8.95631C12.9217 8.6781 12.8143 8.34322 12.816 8.00001C12.8159 7.65773 12.9243 7.32424 13.1256 7.04742L13.6901 6.27186C13.858 6.04118 13.9553 5.76672 13.9703 5.48179C13.9853 5.19686 13.9173 4.9137 13.7745 4.66668C13.6319 4.4195 13.4207 4.219 13.1664 4.08949C12.9121 3.95999 12.6257 3.90703 12.3419 3.93705L11.3886 4.03853C11.0481 4.07428 10.7051 4.00142 10.4086 3.83038C10.1133 3.65884 9.87996 3.39825 9.74192 3.08594L9.34932 2.20964C9.2335 1.94879 9.04447 1.72715 8.80517 1.57161C8.56587 1.41607 8.28658 1.3333 8.00118 1.33334C7.71577 1.3333 7.43648 1.41607 7.19718 1.57161C6.95788 1.72715 6.76885 1.94879 6.65303 2.20964L6.2634 3.08594C6.12535 3.39825 5.89198 3.65884 5.59673 3.83038C5.30021 4.00142 4.95718 4.07428 4.61673 4.03853L3.66043 3.93705C3.37665 3.90703 3.09026 3.95999 2.83598 4.08949C2.58169 4.219 2.37044 4.4195 2.22784 4.66668C2.08506 4.9137 2.01703 5.19686 2.03202 5.48179C2.04701 5.76672 2.14437 6.04118 2.31229 6.27186L2.87673 7.04742C3.07802 7.32424 3.18642 7.65773 3.18636 8.00001C3.18642 8.34228 3.07802 8.67578 2.87673 8.9526L2.31229 9.72816C2.14437 9.95884 2.04701 10.2333 2.03202 10.5182C2.01703 10.8032 2.08506 11.0863 2.22784 11.3333C2.37059 11.5804 2.58186 11.7808 2.83611 11.9103C3.09035 12.0398 3.37668 12.0928 3.66043 12.063L4.61377 11.9615C4.95421 11.9257 5.29724 11.9986 5.59377 12.1696C5.89012 12.3407 6.12457 12.6013 6.2634 12.9141Z" stroke="black" stroke-width="1.33" stroke-linecap="round" stroke-linejoin="round"/>
<path d="M7.99998 10C9.10455 10 9.99998 9.10458 9.99998 8.00001C9.99998 6.89544 9.10455 6.00001 7.99998 6.00001C6.89541 6.00001 5.99998 6.89544 5.99998 8.00001C5.99998 9.10458 6.89541 10 7.99998 10Z" stroke="black" stroke-width="1.33" stroke-linecap="round" stroke-linejoin="round"/>
</svg>
