<svg width="16" height="16" viewBox="0 0 16 16" fill="none" xmlns="http://www.w3.org/2000/svg">
<g clip-path="url(#clip0_7140_51015)">
<path d="M1.33334 1.33325H2.20412C2.36813 1.33325 2.45014 1.33325 2.51613 1.36341C2.57429 1.38999 2.62357 1.43274 2.65811 1.48655C2.6973 1.54761 2.7089 1.6288 2.73209 1.79116L3.04763 3.99992M3.04763 3.99992L3.74889 9.15419C3.83788 9.80827 3.88238 10.1353 4.03874 10.3815C4.17653 10.5984 4.37407 10.7709 4.60758 10.8782C4.87259 10.9999 5.20264 10.9999 5.86275 10.9999H11.568C12.1964 10.9999 12.5106 10.9999 12.7673 10.8869C12.9937 10.7872 13.1879 10.6265 13.3282 10.4227C13.4873 10.1917 13.5461 9.88303 13.6637 9.26576L14.5461 4.63304C14.5875 4.41579 14.6082 4.30716 14.5782 4.22225C14.5519 4.14776 14.5 4.08504 14.4317 4.04526C14.3539 3.99992 14.2433 3.99992 14.0222 3.99992H3.04763ZM6.66668 13.9999C6.66668 14.3681 6.3682 14.6666 6.00001 14.6666C5.63182 14.6666 5.33334 14.3681 5.33334 13.9999C5.33334 13.6317 5.63182 13.3333 6.00001 13.3333C6.3682 13.3333 6.66668 13.6317 6.66668 13.9999ZM12 13.9999C12 14.3681 11.7015 14.6666 11.3333 14.6666C10.9652 14.6666 10.6667 14.3681 10.6667 13.9999C10.6667 13.6317 10.9652 13.3333 11.3333 13.3333C11.7015 13.3333 12 13.6317 12 13.9999Z" stroke="black" stroke-width="1.33" stroke-linecap="round" stroke-linejoin="round"/>
</g>
<defs>
<clipPath id="clip0_7140_51015">
<rect width="16" height="16" fill="white"/>
</clipPath>
</defs>
</svg>
