<svg width="16" height="16" viewBox="0 0 16 16" fill="none" xmlns="http://www.w3.org/2000/svg">
<path d="M10.8283 5.17157C12.3904 6.73366 12.3904 9.26632 10.8283 10.8284M5.17149 10.8284C3.60939 9.2663 3.60939 6.73364 5.17149 5.17154M3.28587 12.714C0.682378 10.1105 0.682378 5.88944 3.28587 3.28595M12.714 3.28598C15.3175 5.88948 15.3175 10.1106 12.714 12.7141M9.33325 7.99999C9.33325 8.73637 8.7363 9.33333 7.99992 9.33333C7.26354 9.33333 6.66658 8.73637 6.66658 7.99999C6.66658 7.26361 7.26354 6.66666 7.99992 6.66666C8.7363 6.66666 9.33325 7.26361 9.33325 7.99999Z" stroke="black" stroke-width="1.33" stroke-linecap="round" stroke-linejoin="round"/>
</svg>
