<svg width="16" height="16" viewBox="0 0 16 16" fill="none" xmlns="http://www.w3.org/2000/svg">
<path d="M2.66675 4.53331C2.66675 3.41321 2.66675 2.85316 2.88474 2.42533C3.07648 2.04901 3.38244 1.74305 3.75877 1.5513C4.18659 1.33331 4.74664 1.33331 5.86675 1.33331H8.00793C8.49711 1.33331 8.7417 1.33331 8.97188 1.38857C9.17595 1.43757 9.37104 1.51838 9.54998 1.62803C9.75182 1.75172 9.92477 1.92467 10.2707 2.27057L12.3962 4.39605C12.7421 4.74196 12.915 4.91491 13.0387 5.11674C13.1484 5.29569 13.2292 5.49078 13.2782 5.69485C13.3334 5.92502 13.3334 6.16961 13.3334 6.6588V11.4666C13.3334 12.5868 13.3334 13.1468 13.1154 13.5746C12.9237 13.951 12.6177 14.2569 12.2414 14.4487C11.8136 14.6666 11.2535 14.6666 10.1334 14.6666H5.86675C4.74664 14.6666 4.18659 14.6666 3.75877 14.4487C3.38244 14.2569 3.07648 13.951 2.88474 13.5746C2.66675 13.1468 2.66675 12.5868 2.66675 11.4666V4.53331Z" stroke="black" stroke-width="1.33" stroke-linecap="round" stroke-linejoin="round"/>
<path d="M5.33341 9.19998C5.33341 9.0133 5.33341 8.91995 5.36975 8.84865C5.4017 8.78593 5.4527 8.73493 5.51542 8.70298C5.58672 8.66665 5.68006 8.66665 5.86675 8.66665H10.1334C10.3201 8.66665 10.4134 8.66665 10.4847 8.70298C10.5475 8.73493 10.5985 8.78593 10.6304 8.84865C10.6667 8.91995 10.6667 9.0133 10.6667 9.19998V11.4666C10.6667 11.6533 10.6667 11.7467 10.6304 11.818C10.5985 11.8807 10.5475 11.9317 10.4847 11.9636C10.4134 12 10.3201 12 10.1334 12H5.86675C5.68006 12 5.58672 12 5.51542 11.9636C5.4527 11.9317 5.4017 11.8807 5.36975 11.818C5.33341 11.7467 5.33341 11.6533 5.33341 11.4666V9.19998Z" stroke="black" stroke-width="1.33" stroke-linecap="round" stroke-linejoin="round"/>
</svg>
