<svg width="16" height="16" viewBox="0 0 16 16" fill="none" xmlns="http://www.w3.org/2000/svg">
<g clip-path="url(#clip0_7140_52166)">
<path d="M7.99992 7.99999H8.00659M11.9999 3.99999H12.0066M3.99992 3.99999H4.00659M11.9999 12H12.0066M3.99992 12H4.00659M4.53325 14.6667H11.4666C12.5867 14.6667 13.1467 14.6667 13.5746 14.4487C13.9509 14.2569 14.2569 13.951 14.4486 13.5746C14.6666 13.1468 14.6666 12.5868 14.6666 11.4667V4.53333C14.6666 3.41322 14.6666 2.85317 14.4486 2.42535C14.2569 2.04902 13.9509 1.74306 13.5746 1.55132C13.1467 1.33333 12.5867 1.33333 11.4666 1.33333H4.53325C3.41315 1.33333 2.85309 1.33333 2.42527 1.55132C2.04895 1.74306 1.74299 2.04902 1.55124 2.42535C1.33325 2.85317 1.33325 3.41322 1.33325 4.53333V11.4667C1.33325 12.5868 1.33325 13.1468 1.55124 13.5746C1.74299 13.951 2.04895 14.2569 2.42527 14.4487C2.85309 14.6667 3.41315 14.6667 4.53325 14.6667ZM8.33325 7.99999C8.33325 8.18409 8.18401 8.33333 7.99992 8.33333C7.81582 8.33333 7.66658 8.18409 7.66658 7.99999C7.66658 7.8159 7.81582 7.66666 7.99992 7.66666C8.18401 7.66666 8.33325 7.8159 8.33325 7.99999ZM11.3333 7.99999C11.3333 9.84094 9.84087 11.3333 7.99992 11.3333C6.15897 11.3333 4.66659 9.84094 4.66659 7.99999C4.66659 6.15905 6.15897 4.66666 7.99992 4.66666C9.84087 4.66666 11.3333 6.15905 11.3333 7.99999Z" stroke="black" stroke-width="1.33" stroke-linecap="round" stroke-linejoin="round"/>
</g>
<defs>
<clipPath id="clip0_7140_52166">
<rect width="16" height="16" fill="white"/>
</clipPath>
</defs>
</svg>
