<svg width="16" height="16" viewBox="0 0 16 16" fill="none" xmlns="http://www.w3.org/2000/svg">
<path d="M8.00008 4.00001H8.00675M5.86675 14.6667H10.1334C11.2535 14.6667 11.8136 14.6667 12.2414 14.4487C12.6177 14.2569 12.9237 13.951 13.1154 13.5747C13.3334 13.1468 13.3334 12.5868 13.3334 11.4667V4.53334C13.3334 3.41324 13.3334 2.85319 13.1154 2.42536C12.9237 2.04904 12.6177 1.74308 12.2414 1.55133C11.8136 1.33334 11.2535 1.33334 10.1334 1.33334H5.86675C4.74664 1.33334 4.18659 1.33334 3.75877 1.55133C3.38244 1.74308 3.07648 2.04904 2.88474 2.42536C2.66675 2.85319 2.66675 3.41324 2.66675 4.53334V11.4667C2.66675 12.5868 2.66675 13.1468 2.88474 13.5747C3.07648 13.951 3.38244 14.2569 3.75877 14.4487C4.18659 14.6667 4.74664 14.6667 5.86675 14.6667ZM8.33341 4.00001C8.33341 4.1841 8.18418 4.33334 8.00008 4.33334C7.81599 4.33334 7.66675 4.1841 7.66675 4.00001C7.66675 3.81592 7.81599 3.66668 8.00008 3.66668C8.18418 3.66668 8.33341 3.81592 8.33341 4.00001ZM10.6667 9.33334C10.6667 10.8061 9.47284 12 8.00008 12C6.52732 12 5.33341 10.8061 5.33341 9.33334C5.33341 7.86058 6.52732 6.66668 8.00008 6.66668C9.47284 6.66668 10.6667 7.86058 10.6667 9.33334Z" stroke="black" stroke-width="1.33" stroke-linecap="round" stroke-linejoin="round"/>
</svg>
