<svg width="16" height="16" viewBox="0 0 16 16" fill="none" xmlns="http://www.w3.org/2000/svg">
<g clip-path="url(#clip0_7140_51222)">
<path d="M8.00001 1.33337V3.00004M8.00001 1.33337C4.31811 1.33337 1.33334 4.31814 1.33334 8.00004M8.00001 1.33337C11.6819 1.33337 14.6667 4.31814 14.6667 8.00004M8.00001 13V14.6667M8.00001 14.6667C11.6819 14.6667 14.6667 11.6819 14.6667 8.00004M8.00001 14.6667C4.31811 14.6667 1.33334 11.6819 1.33334 8.00004M3.00001 8.00004H1.33334M14.6667 8.00004H13M12.719 12.719L11.5365 11.5365M3.2811 12.719L4.46478 11.5353M3.2811 3.33337L4.43873 4.49101M12.719 3.33337L8.99995 7.00004M9.33334 8.00004C9.33334 8.73642 8.73639 9.33337 8.00001 9.33337C7.26363 9.33337 6.66668 8.73642 6.66668 8.00004C6.66668 7.26366 7.26363 6.66671 8.00001 6.66671C8.73639 6.66671 9.33334 7.26366 9.33334 8.00004Z" stroke="black" stroke-width="1.33" stroke-linecap="round" stroke-linejoin="round"/>
</g>
<defs>
<clipPath id="clip0_7140_51222">
<rect width="16" height="16" fill="white"/>
</clipPath>
</defs>
</svg>
