<svg width="16" height="16" viewBox="0 0 16 16" fill="none" xmlns="http://www.w3.org/2000/svg">
<g clip-path="url(#clip0_7140_51231)">
<path d="M11.8302 10.6667C12.3575 9.91079 12.6667 8.99153 12.6667 8.00004C12.6667 7.65678 12.6296 7.32218 12.5593 7.00001M4.1698 10.6667C3.64255 9.91082 3.33334 8.99154 3.33334 8.00004C3.33334 5.42271 5.42268 3.33337 8.00001 3.33337C8.28143 3.33337 8.55704 3.35828 8.82474 3.40602M10.9999 5.00004L7.99995 8.00004M14.6667 8.00004C14.6667 11.6819 11.6819 14.6667 8.00001 14.6667C4.31811 14.6667 1.33334 11.6819 1.33334 8.00004C1.33334 4.31814 4.31811 1.33337 8.00001 1.33337C11.6819 1.33337 14.6667 4.31814 14.6667 8.00004ZM8.66668 8.00004C8.66668 8.36823 8.3682 8.66671 8.00001 8.66671C7.63182 8.66671 7.33334 8.36823 7.33334 8.00004C7.33334 7.63185 7.63182 7.33337 8.00001 7.33337C8.3682 7.33337 8.66668 7.63185 8.66668 8.00004Z" stroke="black" stroke-width="1.33" stroke-linecap="round" stroke-linejoin="round"/>
</g>
<defs>
<clipPath id="clip0_7140_51231">
<rect width="16" height="16" fill="white"/>
</clipPath>
</defs>
</svg>
