<svg width="16" height="16" viewBox="0 0 16 16" fill="none" xmlns="http://www.w3.org/2000/svg">
<g clip-path="url(#clip0_7140_53308)">
<path d="M4.33337 8.66658L4.85635 9.71253C5.03334 10.0665 5.12184 10.2435 5.24006 10.3969C5.34497 10.533 5.46698 10.655 5.60308 10.7599C5.75645 10.8781 5.93344 10.9666 6.28743 11.1436L7.33337 11.6666L6.28743 12.1896C5.93344 12.3665 5.75645 12.455 5.60308 12.5733C5.46698 12.6782 5.34497 12.8002 5.24006 12.9363C5.12184 13.0897 5.03334 13.2667 4.85635 13.6206L4.33337 14.6666L3.8104 13.6206C3.63341 13.2667 3.54491 13.0897 3.42669 12.9363C3.32178 12.8002 3.19977 12.6782 3.06367 12.5733C2.9103 12.455 2.7333 12.3665 2.37932 12.1896L1.33337 11.6666L2.37932 11.1436C2.7333 10.9666 2.9103 10.8781 3.06367 10.7599C3.19977 10.655 3.32178 10.533 3.42669 10.3969C3.54491 10.2435 3.63341 10.0665 3.8104 9.71253L4.33337 8.66658Z" stroke="black" stroke-width="1.33" stroke-linecap="round" stroke-linejoin="round"/>
<path d="M10 1.33325L10.7858 3.3762C10.9738 3.86502 11.0678 4.10943 11.214 4.31501C11.3435 4.49722 11.5027 4.65642 11.6849 4.78598C11.8905 4.93216 12.1349 5.02616 12.6238 5.21417L14.6667 5.99992L12.6238 6.78567C12.1349 6.97367 11.8905 7.06768 11.6849 7.21386C11.5027 7.34342 11.3435 7.50262 11.214 7.68482C11.0678 7.89041 10.9738 8.13482 10.7858 8.62364L10 10.6666L9.21429 8.62364C9.02628 8.13482 8.93228 7.89041 8.7861 7.68482C8.65654 7.50262 8.49734 7.34342 8.31513 7.21386C8.10955 7.06768 7.86514 6.97367 7.37632 6.78567L5.33337 5.99992L7.37632 5.21417C7.86514 5.02616 8.10955 4.93216 8.31513 4.78598C8.49734 4.65642 8.65654 4.49722 8.7861 4.31501C8.93228 4.10943 9.02628 3.86502 9.21429 3.3762L10 1.33325Z" stroke="black" stroke-width="1.33" stroke-linecap="round" stroke-linejoin="round"/>
</g>
<defs>
<clipPath id="clip0_7140_53308">
<rect width="16" height="16" fill="white"/>
</clipPath>
</defs>
</svg>
