<svg width="16" height="16" viewBox="0 0 16 16" fill="none" xmlns="http://www.w3.org/2000/svg">
<g clip-path="url(#clip0_7140_53311)">
<path d="M3.00004 14.6666V11.3333M3.00004 4.66659V1.33325M1.33337 2.99992H4.66671M1.33337 12.9999H4.66671M8.66671 1.99992L7.51059 5.00583C7.32258 5.49465 7.22858 5.73906 7.08239 5.94464C6.95283 6.12685 6.79364 6.28604 6.61143 6.4156C6.40585 6.56179 6.16143 6.65579 5.67261 6.8438L2.66671 7.99992L5.67262 9.15604C6.16144 9.34404 6.40585 9.43805 6.61143 9.58423C6.79364 9.71379 6.95283 9.87299 7.08239 10.0552C7.22858 10.2608 7.32258 10.5052 7.51059 10.994L8.66671 13.9999L9.82283 10.994C10.0108 10.5052 10.1048 10.2608 10.251 10.0552C10.3806 9.87299 10.5398 9.71379 10.722 9.58423C10.9276 9.43805 11.172 9.34404 11.6608 9.15604L14.6667 7.99992L11.6608 6.8438C11.172 6.65579 10.9276 6.56179 10.722 6.4156C10.5398 6.28604 10.3806 6.12685 10.251 5.94464C10.1048 5.73906 10.0108 5.49465 9.82283 5.00583L8.66671 1.99992Z" stroke="black" stroke-width="1.33" stroke-linecap="round" stroke-linejoin="round"/>
</g>
<defs>
<clipPath id="clip0_7140_53311">
<rect width="16" height="16" fill="white"/>
</clipPath>
</defs>
</svg>
