<svg width="16" height="16" viewBox="0 0 16 16" fill="none" xmlns="http://www.w3.org/2000/svg">
<path d="M7.52639 2.24423C7.67951 1.9495 7.75607 1.80213 7.85869 1.75424C7.94805 1.71254 8.05128 1.71254 8.14063 1.75424C8.24325 1.80213 8.31981 1.9495 8.47294 2.24423L9.48162 4.18575C9.54766 4.31287 9.58069 4.37644 9.63022 4.41867C9.67395 4.45594 9.72657 4.48128 9.78298 4.49223C9.84688 4.50463 9.91716 4.49081 10.0577 4.46319L12.2046 4.04129C12.5305 3.97725 12.6934 3.94522 12.7949 3.99559C12.8832 4.03945 12.9475 4.12016 12.9706 4.21602C12.9972 4.32611 12.9297 4.47785 12.7947 4.78133L11.9057 6.78047C11.8475 6.91137 11.8184 6.97682 11.8163 7.04187C11.8144 7.0993 11.8274 7.15624 11.854 7.20717C11.8841 7.26486 11.9387 7.3112 12.048 7.40388L13.7164 8.8193C13.9696 9.03416 14.0963 9.1416 14.1201 9.2523C14.1409 9.34869 14.1179 9.44934 14.0574 9.52717C13.9879 9.61656 13.8272 9.65841 13.5058 9.74211L11.3885 10.2935C11.2498 10.3296 11.1805 10.3476 11.1283 10.3865C11.0822 10.4209 11.0458 10.4665 11.0226 10.5191C10.9963 10.5786 10.9941 10.6502 10.9898 10.7934L10.9234 12.9803C10.9133 13.3123 10.9083 13.4783 10.8366 13.566C10.7742 13.6423 10.6812 13.6871 10.5826 13.6883C10.4693 13.6897 10.3364 13.5901 10.0706 13.391L8.31938 12.0794C8.20472 11.9935 8.14739 11.9506 8.08443 11.934C8.02886 11.9194 7.97046 11.9194 7.91489 11.934C7.85194 11.9506 7.79461 11.9935 7.67994 12.0794L5.92876 13.391C5.66292 13.5901 5.53 13.6897 5.41677 13.6883C5.31817 13.6871 5.22516 13.6423 5.16274 13.566C5.09107 13.4783 5.08603 13.3123 5.07595 12.9803L5.00955 10.7934C5.0052 10.6502 5.00303 10.5786 4.97672 10.5191C4.9535 10.4665 4.91709 10.4209 4.87101 10.3865C4.81882 10.3476 4.7495 10.3296 4.61087 10.2935L2.49358 9.74211C2.17216 9.65841 2.01145 9.61656 1.94193 9.52717C1.88139 9.44934 1.85841 9.34869 1.87919 9.2523C1.90304 9.1416 2.02968 9.03416 2.28295 8.8193L3.95134 7.40388C4.06058 7.3112 4.1152 7.26486 4.14535 7.20717C4.17196 7.15624 4.18495 7.0993 4.18307 7.04187C4.18094 6.97682 4.15184 6.91137 4.09362 6.78047L3.20459 4.78133C3.06963 4.47785 3.00215 4.32611 3.02868 4.21602C3.05179 4.12016 3.11616 4.03945 3.20447 3.99559C3.3059 3.94522 3.46885 3.97725 3.79475 4.04129L5.94159 4.46319C6.08216 4.49081 6.15245 4.50463 6.21635 4.49223C6.27276 4.48128 6.32538 4.45594 6.3691 4.41867C6.41864 4.37644 6.45166 4.31287 6.51771 4.18575L7.52639 2.24423Z" stroke="black" stroke-width="1.33" stroke-linecap="round" stroke-linejoin="round"/>
</svg>
