<svg width="16" height="16" viewBox="0 0 16 16" fill="none" xmlns="http://www.w3.org/2000/svg">
<g clip-path="url(#clip0_7140_53314)">
<path d="M12.3334 5.33325V1.99992M3.66671 13.9999V10.6666M10.6667 3.66659H14M2.00004 12.3333H5.33337M4.33337 1.33325L3.8104 2.3792C3.63341 2.73318 3.54491 2.91017 3.42669 3.06355C3.32178 3.19965 3.19977 3.32166 3.06367 3.42656C2.9103 3.54479 2.7333 3.63329 2.37932 3.81028L1.33337 4.33325L2.37932 4.85622C2.7333 5.03322 2.9103 5.12171 3.06367 5.23994C3.19977 5.34485 3.32178 5.46686 3.42669 5.60295C3.54491 5.75633 3.63341 5.93332 3.8104 6.28731L4.33337 7.33325L4.85635 6.28731C5.03334 5.93332 5.12184 5.75633 5.24006 5.60295C5.34497 5.46686 5.46698 5.34485 5.60308 5.23994C5.75645 5.12171 5.93344 5.03322 6.28743 4.85622L7.33337 4.33325L6.28743 3.81028C5.93344 3.63329 5.75645 3.54479 5.60308 3.42656C5.46698 3.32166 5.34497 3.19965 5.24006 3.06355C5.12184 2.91017 5.03334 2.73318 4.85635 2.3792L4.33337 1.33325ZM11.3334 7.99992L10.6993 9.26808C10.5223 9.62207 10.4338 9.79906 10.3156 9.95244C10.2107 10.0885 10.0887 10.2105 9.95256 10.3155C9.79919 10.4337 9.62219 10.5222 9.26821 10.6992L8.00004 11.3333L9.26821 11.9673C9.62219 12.1443 9.79919 12.2328 9.95256 12.351C10.0887 12.456 10.2107 12.578 10.3156 12.7141C10.4338 12.8674 10.5223 13.0444 10.6993 13.3984L11.3334 14.6666L11.9675 13.3984C12.1444 13.0444 12.2329 12.8674 12.3512 12.7141C12.4561 12.578 12.5781 12.456 12.7142 12.351C12.8676 12.2328 13.0446 12.1443 13.3985 11.9673L14.6667 11.3333L13.3985 10.6992C13.0446 10.5222 12.8676 10.4337 12.7142 10.3155C12.5781 10.2105 12.4561 10.0885 12.3512 9.95244C12.2329 9.79906 12.1445 9.62207 11.9675 9.26809L11.3334 7.99992Z" stroke="black" stroke-width="1.33" stroke-linecap="round" stroke-linejoin="round"/>
</g>
<defs>
<clipPath id="clip0_7140_53314">
<rect width="16" height="16" fill="white"/>
</clipPath>
</defs>
</svg>
