<svg width="16" height="16" viewBox="0 0 16 16" fill="none" xmlns="http://www.w3.org/2000/svg">
<path d="M14 7.33325L8.93726 2.27051C8.59135 1.92461 8.4184 1.75166 8.21657 1.62797C8.03762 1.51831 7.84254 1.43751 7.63846 1.38851C7.40829 1.33325 7.16369 1.33325 6.67452 1.33325L4 1.33325M2 5.79992L2 7.11626C2 7.44238 2 7.60544 2.03684 7.75889C2.0695 7.89494 2.12337 8.025 2.19648 8.1443C2.27894 8.27885 2.39424 8.39416 2.62484 8.62476L7.82484 13.8248C8.35286 14.3528 8.61687 14.6168 8.92131 14.7157C9.1891 14.8027 9.47757 14.8027 9.74536 14.7157C10.0498 14.6168 10.3138 14.3528 10.8418 13.8248L12.4915 12.1751C13.0195 11.6471 13.2835 11.383 13.3825 11.0786C13.4695 10.8108 13.4695 10.5224 13.3825 10.2546C13.2835 9.95013 13.0195 9.68611 12.4915 9.15809L7.62484 4.29142C7.39424 4.06082 7.27894 3.94552 7.14438 3.86307C7.02508 3.78996 6.89502 3.73609 6.75898 3.70343C6.60553 3.66659 6.44247 3.66659 6.11634 3.66659H4.13333C3.3866 3.66659 3.01323 3.66659 2.72801 3.81191C2.47713 3.93974 2.27316 4.14372 2.14532 4.3946C2 4.67981 2 5.05318 2 5.79992Z" stroke="black" stroke-width="1.33" stroke-linecap="round" stroke-linejoin="round"/>
</svg>
