<svg width="16" height="16" viewBox="0 0 16 16" fill="none" xmlns="http://www.w3.org/2000/svg">
<g clip-path="url(#clip0_7140_51024)">
<path d="M5.33334 5.33325H5.34001M1.33334 3.46658L1.33334 6.44959C1.33334 6.77572 1.33334 6.93878 1.37018 7.09223C1.40285 7.22827 1.45672 7.35833 1.52982 7.47763C1.61228 7.61219 1.72758 7.72749 1.95818 7.95809L7.0706 13.0705C7.86263 13.8625 8.25865 14.2586 8.71531 14.4069C9.11699 14.5375 9.54969 14.5375 9.95138 14.4069C10.408 14.2586 10.8041 13.8625 11.5961 13.0705L13.0706 11.596C13.8626 10.804 14.2586 10.4079 14.407 9.95128C14.5375 9.5496 14.5375 9.1169 14.407 8.71522C14.2586 8.25856 13.8626 7.86254 13.0706 7.07051L7.95818 1.95809C7.72758 1.72749 7.61228 1.61219 7.47772 1.52973C7.35843 1.45663 7.22837 1.40275 7.09232 1.37009C6.93887 1.33325 6.77581 1.33325 6.44969 1.33325L3.46668 1.33325C2.71994 1.33325 2.34657 1.33325 2.06136 1.47858C1.81047 1.60641 1.6065 1.81038 1.47867 2.06126C1.33334 2.34648 1.33334 2.71985 1.33334 3.46658ZM5.66668 5.33325C5.66668 5.51735 5.51744 5.66658 5.33334 5.66658C5.14925 5.66658 5.00001 5.51735 5.00001 5.33325C5.00001 5.14916 5.14925 4.99992 5.33334 4.99992C5.51744 4.99992 5.66668 5.14916 5.66668 5.33325Z" stroke="black" stroke-width="1.33" stroke-linecap="round" stroke-linejoin="round"/>
</g>
<defs>
<clipPath id="clip0_7140_51024">
<rect width="16" height="16" fill="white"/>
</clipPath>
</defs>
</svg>
