<svg width="16" height="16" viewBox="0 0 16 16" fill="none" xmlns="http://www.w3.org/2000/svg">
<g clip-path="url(#clip0_7140_51243)">
<path d="M10.6666 5.33337V3.33337L12.6666 1.33337L13.3333 2.66671L14.6666 3.33337L12.6666 5.33337H10.6666ZM10.6666 5.33337L7.99999 8M14.6667 8.00004C14.6667 11.6819 11.6819 14.6667 8.00001 14.6667C4.31811 14.6667 1.33334 11.6819 1.33334 8.00004C1.33334 4.31814 4.31811 1.33337 8.00001 1.33337M11.3333 8.00004C11.3333 9.84099 9.84096 11.3334 8.00001 11.3334C6.15906 11.3334 4.66668 9.84099 4.66668 8.00004C4.66668 6.15909 6.15906 4.66671 8.00001 4.66671" stroke="black" stroke-width="1.33" stroke-linecap="round" stroke-linejoin="round"/>
</g>
<defs>
<clipPath id="clip0_7140_51243">
<rect width="16" height="16" fill="white"/>
</clipPath>
</defs>
</svg>
