<svg width="16" height="16" viewBox="0 0 16 16" fill="none" xmlns="http://www.w3.org/2000/svg">
<path d="M14 1.99992L10 1.99992M14 4.66659L10 4.66659M14 7.33325L10 7.33325M3.66671 9.17177V2.99992C3.66671 2.07944 4.4129 1.33325 5.33337 1.33325C6.25385 1.33325 7.00004 2.07944 7.00004 2.99992V9.17177C7.80403 9.70994 8.33337 10.6264 8.33337 11.6666C8.33337 13.3234 6.99023 14.6666 5.33337 14.6666C3.67652 14.6666 2.33337 13.3234 2.33337 11.6666C2.33337 10.6264 2.86272 9.70994 3.66671 9.17177ZM6.00004 11.6666C6.00004 12.0348 5.70156 12.3333 5.33337 12.3333C4.96518 12.3333 4.66671 12.0348 4.66671 11.6666C4.66671 11.2984 4.96518 10.9999 5.33337 10.9999C5.70156 10.9999 6.00004 11.2984 6.00004 11.6666Z" stroke="black" stroke-width="1.33" stroke-linecap="round" stroke-linejoin="round"/>
</svg>
