<svg width="16" height="16" viewBox="0 0 16 16" fill="none" xmlns="http://www.w3.org/2000/svg">
<g clip-path="url(#clip0_7140_51707)">
<path d="M4.66671 14.6667V7.33333M1.33337 8.66666V13.3333C1.33337 14.0697 1.93033 14.6667 2.66671 14.6667H11.6175C12.6047 14.6667 13.4442 13.9464 13.5943 12.9708L14.3122 8.30411C14.4986 7.0926 13.5613 6 12.3355 6H10C9.63185 6 9.33337 5.70152 9.33337 5.33333V2.97722C9.33337 2.06933 8.59738 1.33333 7.68948 1.33333C7.47293 1.33333 7.27669 1.46086 7.18875 1.65875L4.84267 6.93742C4.73567 7.17818 4.49692 7.33333 4.23346 7.33333H2.66671C1.93033 7.33333 1.33337 7.93029 1.33337 8.66666Z" stroke="black" stroke-width="1.33" stroke-linecap="round" stroke-linejoin="round"/>
</g>
<defs>
<clipPath id="clip0_7140_51707">
<rect width="16" height="16" fill="white"/>
</clipPath>
</defs>
</svg>
