<svg width="16" height="16" viewBox="0 0 16 16" fill="none" xmlns="http://www.w3.org/2000/svg">
<path d="M5.33334 5.33341V4.66675M5.33334 8.33341V7.66675M5.33334 11.3334V10.6667M4.53334 13.3334H11.4667C12.5868 13.3334 13.1468 13.3334 13.5747 13.1154C13.951 12.9237 14.2569 12.6177 14.4487 12.2414C14.6667 11.8136 14.6667 11.2535 14.6667 10.1334V5.86675C14.6667 4.74664 14.6667 4.18659 14.4487 3.75877C14.2569 3.38244 13.951 3.07648 13.5747 2.88474C13.1468 2.66675 12.5868 2.66675 11.4667 2.66675H4.53334C3.41324 2.66675 2.85319 2.66675 2.42536 2.88474C2.04904 3.07648 1.74308 3.38244 1.55133 3.75877C1.33334 4.18659 1.33334 4.74664 1.33334 5.86675V10.1334C1.33334 11.2535 1.33334 11.8136 1.55133 12.2414C1.74308 12.6177 2.04904 12.9237 2.42536 13.1154C2.85319 13.3334 3.41324 13.3334 4.53334 13.3334Z" stroke="black" stroke-width="1.33" stroke-linecap="round" stroke-linejoin="round"/>
</svg>
