<svg width="16" height="16" viewBox="0 0 16 16" fill="none" xmlns="http://www.w3.org/2000/svg">
<path d="M6.66668 5.33341V4.66675M6.66668 8.33341V7.66675M6.66668 11.3334V10.6667M3.46668 2.66675H12.5333C13.2801 2.66675 13.6534 2.66675 13.9387 2.81207C14.1895 2.9399 14.3935 3.14388 14.5214 3.39476C14.6667 3.67998 14.6667 4.05334 14.6667 4.80008V5.66675C13.378 5.66675 12.3333 6.71142 12.3333 8.00008C12.3333 9.28875 13.378 10.3334 14.6667 10.3334V11.2001C14.6667 11.9468 14.6667 12.3202 14.5214 12.6054C14.3935 12.8563 14.1895 13.0603 13.9387 13.1881C13.6534 13.3334 13.2801 13.3334 12.5333 13.3334H3.46668C2.71994 13.3334 2.34657 13.3334 2.06136 13.1881C1.81047 13.0603 1.6065 12.8563 1.47867 12.6054C1.33334 12.3202 1.33334 11.9468 1.33334 11.2001V10.3334C2.62201 10.3334 3.66668 9.28875 3.66668 8.00008C3.66668 6.71142 2.62201 5.66675 1.33334 5.66675V4.80008C1.33334 4.05334 1.33334 3.67998 1.47867 3.39476C1.6065 3.14388 1.81047 2.9399 2.06136 2.81207C2.34657 2.66675 2.71994 2.66675 3.46668 2.66675Z" stroke="black" stroke-width="1.33" stroke-linecap="round" stroke-linejoin="round"/>
</svg>
