<svg width="16" height="16" viewBox="0 0 16 16" fill="none" xmlns="http://www.w3.org/2000/svg">
<path d="M6.33332 14.6666H9.66666M5.33332 1.33325H10.6667M7.99999 3.33325V1.33325M2.66666 7.99992H13.3333M11.3333 12.6666L12.3333 14.6666M4.66666 12.6666L3.66666 14.6666M5.66666 10.3333H5.67332M10.3333 10.3333H10.34M5.86666 12.6666H10.1333C11.2534 12.6666 11.8135 12.6666 12.2413 12.4486C12.6176 12.2569 12.9236 11.9509 13.1153 11.5746C13.3333 11.1467 13.3333 10.5867 13.3333 9.46658V6.53325C13.3333 5.41315 13.3333 4.85309 13.1153 4.42527C12.9236 4.04895 12.6176 3.74299 12.2413 3.55124C11.8135 3.33325 11.2534 3.33325 10.1333 3.33325H5.86666C4.74655 3.33325 4.1865 3.33325 3.75868 3.55124C3.38235 3.74299 3.07639 4.04895 2.88464 4.42527C2.66666 4.85309 2.66666 5.41315 2.66666 6.53325V9.46658C2.66666 10.5867 2.66666 11.1467 2.88464 11.5746C3.07639 11.9509 3.38235 12.2569 3.75868 12.4486C4.1865 12.6666 4.74655 12.6666 5.86666 12.6666ZM5.99999 10.3333C5.99999 10.5173 5.85075 10.6666 5.66666 10.6666C5.48256 10.6666 5.33332 10.5173 5.33332 10.3333C5.33332 10.1492 5.48256 9.99992 5.66666 9.99992C5.85075 9.99992 5.99999 10.1492 5.99999 10.3333ZM10.6667 10.3333C10.6667 10.5173 10.5174 10.6666 10.3333 10.6666C10.1492 10.6666 9.99999 10.5173 9.99999 10.3333C9.99999 10.1492 10.1492 9.99992 10.3333 9.99992C10.5174 9.99992 10.6667 10.1492 10.6667 10.3333Z" stroke="black" stroke-width="1.33" stroke-linecap="round" stroke-linejoin="round"/>
</svg>
