<svg width="16" height="16" viewBox="0 0 16 16" fill="none" xmlns="http://www.w3.org/2000/svg">
<path d="M12.3333 1.99992L11.6757 1.67108C11.4237 1.54509 11.2977 1.48209 11.1656 1.43767C11.0484 1.39821 10.9277 1.36972 10.8051 1.35257C10.6672 1.33325 10.5263 1.33325 10.2446 1.33325H5.75541C5.47367 1.33325 5.33281 1.33325 5.19483 1.35257C5.0723 1.36972 4.95162 1.39821 4.83435 1.43767C4.70231 1.48209 4.57631 1.54509 4.32432 1.67108L3.66666 1.99992M7.33332 3.99992L5.99999 1.33325M8.66665 3.99992L9.99999 1.33325M2.66666 8.66658H13.3333M11.3333 13.3333L12 14.6666M4.66666 13.3333L4.0001 14.6666M5.66666 10.9999H5.67332M10.3333 10.9999H10.34M5.86666 13.3333H10.1333C11.2534 13.3333 11.8135 13.3333 12.2413 13.1153C12.6176 12.9235 12.9236 12.6176 13.1153 12.2412C13.3333 11.8134 13.3333 11.2534 13.3333 10.1333V7.19992C13.3333 6.07981 13.3333 5.51976 13.1153 5.09194C12.9236 4.71561 12.6176 4.40965 12.2413 4.21791C11.8135 3.99992 11.2534 3.99992 10.1333 3.99992H5.86666C4.74655 3.99992 4.1865 3.99992 3.75868 4.21791C3.38235 4.40965 3.07639 4.71561 2.88464 5.09194C2.66666 5.51976 2.66666 6.07981 2.66666 7.19992V10.1333C2.66666 11.2534 2.66666 11.8134 2.88464 12.2412C3.07639 12.6176 3.38235 12.9235 3.75868 13.1153C4.1865 13.3333 4.74655 13.3333 5.86666 13.3333ZM5.99999 10.9999C5.99999 11.184 5.85075 11.3333 5.66666 11.3333C5.48256 11.3333 5.33332 11.184 5.33332 10.9999C5.33332 10.8158 5.48256 10.6666 5.66666 10.6666C5.85075 10.6666 5.99999 10.8158 5.99999 10.9999ZM10.6667 10.9999C10.6667 11.184 10.5174 11.3333 10.3333 11.3333C10.1492 11.3333 9.99999 11.184 9.99999 10.9999C9.99999 10.8158 10.1492 10.6666 10.3333 10.6666C10.5174 10.6666 10.6667 10.8158 10.6667 10.9999Z" stroke="black" stroke-width="1.33" stroke-linecap="round" stroke-linejoin="round"/>
</svg>
