<svg width="16" height="16" viewBox="0 0 16 16" fill="none" xmlns="http://www.w3.org/2000/svg">
<path d="M8.60871 11.3333H13.3913M8.60871 11.3333L7.33334 14M8.60871 11.3333L10.5189 7.33935C10.6728 7.01751 10.7498 6.8566 10.8551 6.80575C10.9466 6.76152 11.0534 6.76152 11.145 6.80575C11.2503 6.8566 11.3272 7.01751 11.4811 7.33935L13.3913 11.3333M13.3913 11.3333L14.6667 14M1.33334 3.33333H5.33334M5.33334 3.33333H7.66668M5.33334 3.33333V2M7.66668 3.33333H9.33334M7.66668 3.33333C7.33592 5.30486 6.5684 7.09079 5.44371 8.58962M6.66668 9.33333C6.25833 9.14987 5.84178 8.89472 5.44371 8.58962M5.44371 8.58962C4.54202 7.89851 3.73518 6.95109 3.33334 6M5.44371 8.58962C4.37392 10.0153 2.98097 11.1812 1.33334 12" stroke="black" stroke-width="1.33" stroke-linecap="round" stroke-linejoin="round"/>
</svg>
