<svg width="16" height="16" viewBox="0 0 16 16" fill="none" xmlns="http://www.w3.org/2000/svg">
<path d="M9.33334 4.66675H10.8915C11.0546 4.66675 11.1361 4.66675 11.2128 4.68517C11.2809 4.7015 11.3459 4.72844 11.4055 4.76499C11.4728 4.80622 11.5305 4.86387 11.6458 4.97917L14.3543 7.68766C14.4696 7.80296 14.5272 7.86061 14.5684 7.92789C14.605 7.98754 14.6319 8.05257 14.6483 8.12059C14.6667 8.19732 14.6667 8.27885 14.6667 8.44191V10.3334C14.6667 10.644 14.6667 10.7994 14.6159 10.9219C14.5483 11.0852 14.4185 11.215 14.2551 11.2827C14.1326 11.3334 13.9773 11.3334 13.6667 11.3334M10.3333 11.3334H9.33334M9.33334 11.3334V4.80008C9.33334 4.05334 9.33334 3.67998 9.18802 3.39476C9.06019 3.14388 8.85621 2.9399 8.60533 2.81207C8.32011 2.66675 7.94675 2.66675 7.20001 2.66675H3.46668C2.71994 2.66675 2.34657 2.66675 2.06136 2.81207C1.81047 2.9399 1.6065 3.14388 1.47867 3.39476C1.33334 3.67998 1.33334 4.05334 1.33334 4.80008V10.0001C1.33334 10.7365 1.9303 11.3334 2.66668 11.3334M9.33334 11.3334H6.66668M6.66668 11.3334C6.66668 12.438 5.77125 13.3334 4.66668 13.3334C3.56211 13.3334 2.66668 12.438 2.66668 11.3334M6.66668 11.3334C6.66668 10.2288 5.77125 9.33341 4.66668 9.33341C3.56211 9.33341 2.66668 10.2288 2.66668 11.3334M13.6667 11.6667C13.6667 12.5872 12.9205 13.3334 12 13.3334C11.0795 13.3334 10.3333 12.5872 10.3333 11.6667C10.3333 10.7463 11.0795 10.0001 12 10.0001C12.9205 10.0001 13.6667 10.7463 13.6667 11.6667Z" stroke="black" stroke-width="1.33" stroke-linecap="round" stroke-linejoin="round"/>
</svg>
