<svg width="16" height="16" viewBox="0 0 16 16" fill="none" xmlns="http://www.w3.org/2000/svg">
<path d="M4.5 5.8125C4.5 5.4048 4.5 5.20095 4.56661 5.04015C4.65541 4.82575 4.82575 4.65541 5.04015 4.56661C5.20095 4.5 5.4048 4.5 5.8125 4.5H10.1875C10.5952 4.5 10.799 4.5 10.9598 4.56661C11.1742 4.65541 11.3446 4.82575 11.4334 5.04015C11.5 5.20095 11.5 5.4048 11.5 5.8125M6.6875 11.5H9.3125M8 4.5V11.5M5.2 14H10.8C11.9201 14 12.4802 14 12.908 13.782C13.2843 13.5903 13.5903 13.2843 13.782 12.908C14 12.4802 14 11.9201 14 10.8V5.2C14 4.0799 14 3.51984 13.782 3.09202C13.5903 2.71569 13.2843 2.40973 12.908 2.21799C12.4802 2 11.9201 2 10.8 2H5.2C4.0799 2 3.51984 2 3.09202 2.21799C2.71569 2.40973 2.40973 2.71569 2.21799 3.09202C2 3.51984 2 4.07989 2 5.2V10.8C2 11.9201 2 12.4802 2.21799 12.908C2.40973 13.2843 2.71569 13.5903 3.09202 13.782C3.51984 14 4.07989 14 5.2 14Z" stroke="black" stroke-width="1.33" stroke-linecap="round" stroke-linejoin="round"/>
</svg>
