<svg width="16" height="16" viewBox="0 0 16 16" fill="none" xmlns="http://www.w3.org/2000/svg">
<g clip-path="url(#clip0_7140_53356)">
<path d="M4.16671 14.6396L8.00004 8.00006M11.3334 2.22655C8.45792 0.566409 4.8598 1.2918 2.83071 3.78868C2.63266 4.03238 2.53364 4.15424 2.50483 4.32883C2.48191 4.46773 2.51586 4.65182 2.58683 4.77341C2.67603 4.92623 2.83412 5.01751 3.1503 5.20006L12.8498 10.8001C13.166 10.9826 13.3241 11.0739 13.501 11.0747C13.6418 11.0754 13.8182 11.0127 13.927 10.9234C14.0638 10.8112 14.1198 10.6645 14.2319 10.3711C15.3797 7.36546 14.2088 3.8867 11.3334 2.22655ZM11.3334 2.22655C10.0579 1.49017 7.53159 3.4781 5.69064 6.66672M11.3334 2.22655C12.6088 2.96293 12.1504 6.14477 10.3094 9.33339M14.6667 14.6667H1.33337" stroke="black" stroke-width="1.33" stroke-linecap="round" stroke-linejoin="round"/>
</g>
<defs>
<clipPath id="clip0_7140_53356">
<rect width="16" height="16" fill="white"/>
</clipPath>
</defs>
</svg>
