<svg width="16" height="16" viewBox="0 0 16 16" fill="none" xmlns="http://www.w3.org/2000/svg">
<g clip-path="url(#clip0_7140_51831)">
<path d="M3.54424 12.9589C3.94979 12.0034 4.89666 11.3333 6.00004 11.3333H10C11.1034 11.3333 12.0503 12.0034 12.4558 12.9589M10.6667 6.33331C10.6667 7.80607 9.4728 8.99998 8.00004 8.99998C6.52728 8.99998 5.33337 7.80607 5.33337 6.33331C5.33337 4.86055 6.52728 3.66665 8.00004 3.66665C9.4728 3.66665 10.6667 4.86055 10.6667 6.33331ZM14.6667 7.99998C14.6667 11.6819 11.6819 14.6666 8.00004 14.6666C4.31814 14.6666 1.33337 11.6819 1.33337 7.99998C1.33337 4.31808 4.31814 1.33331 8.00004 1.33331C11.6819 1.33331 14.6667 4.31808 14.6667 7.99998Z" stroke="black" stroke-width="1.33" stroke-linecap="round" stroke-linejoin="round"/>
</g>
<defs>
<clipPath id="clip0_7140_51831">
<rect width="16" height="16" fill="white"/>
</clipPath>
</defs>
</svg>
