<svg width="16" height="16" viewBox="0 0 16 16" fill="none" xmlns="http://www.w3.org/2000/svg">
<g clip-path="url(#clip0_7140_51309)">
<path d="M7.99999 1.33331V4.66665M7.99999 1.33331C7.52449 1.33331 7.06061 1.3831 6.61328 1.47773M7.99999 1.33331C8.4755 1.33331 8.93938 1.3831 9.3867 1.47773M7.99999 4.66665C6.15905 4.66665 4.66668 6.15905 4.66668 7.99999M7.99999 4.66665C9.84094 4.66665 11.3333 6.15904 11.3333 7.99999M7.99999 11.3333V14.6666M7.99999 11.3333C9.84094 11.3333 11.3333 9.84094 11.3333 7.99999M7.99999 11.3333C6.15905 11.3333 4.66668 9.84094 4.66668 7.99999M7.99999 14.6666C8.47479 14.6666 8.93799 14.617 9.3847 14.5226M7.99999 14.6666C7.52343 14.6666 7.05855 14.6166 6.61031 14.5216M3.28595 3.28593L5.64297 5.64296M10.357 10.357L12.714 12.714M1.33334 7.99999H4.66668M1.33334 7.99999C1.33334 8.47554 1.38312 8.93944 1.47777 9.38679M1.33334 7.99999C1.33334 7.52376 1.38326 7.05916 1.47819 6.6112M11.3333 7.99999H14.6667M14.6667 7.99999C14.6667 7.52445 14.6169 7.06052 14.5222 6.61317M14.6667 7.99999C14.6667 8.47535 14.6169 8.93907 14.5223 9.38626M3.28595 12.714L5.64297 10.357M10.357 5.64296L12.714 3.28593M11.6311 2.40803C12.414 2.91744 13.0832 3.5868 13.5925 4.36978M13.5907 11.633C13.0813 12.4153 12.4122 13.084 11.6296 13.5929M4.36915 13.5921C3.58737 13.0835 2.91889 12.4153 2.40984 11.6338M2.40782 4.36922C2.91697 3.58661 3.58597 2.91753 4.36851 2.40827" stroke="black" stroke-width="1.33" stroke-linecap="round" stroke-linejoin="round"/>
</g>
<defs>
<clipPath id="clip0_7140_51309">
<rect width="16" height="16" fill="white"/>
</clipPath>
</defs>
</svg>
