<svg width="16" height="16" viewBox="0 0 16 16" fill="none" xmlns="http://www.w3.org/2000/svg">
<path d="M9.99992 7.99999H14.6666M6.4228 3.57711L4.31234 5.68757C4.19704 5.80287 4.13939 5.86052 4.07211 5.90175C4.01246 5.9383 3.94743 5.96524 3.87941 5.98157C3.80268 5.99999 3.72115 5.99999 3.55809 5.99999H2.39992C2.02655 5.99999 1.83987 5.99999 1.69726 6.07265C1.57182 6.13657 1.46983 6.23856 1.40591 6.364C1.33325 6.50661 1.33325 6.69329 1.33325 7.06666V8.93333C1.33325 9.30669 1.33325 9.49338 1.40591 9.63599C1.46983 9.76143 1.57182 9.86341 1.69726 9.92733C1.83987 9.99999 2.02655 9.99999 2.39992 9.99999H3.55809C3.72115 9.99999 3.80268 9.99999 3.87941 10.0184C3.94743 10.0347 4.01246 10.0617 4.07211 10.0982C4.13939 10.1395 4.19704 10.1971 4.31234 10.3124L6.42279 12.4229C6.70838 12.7085 6.85117 12.8512 6.97377 12.8609C7.08014 12.8693 7.18409 12.8262 7.25339 12.7451C7.33325 12.6516 7.33325 12.4496 7.33325 12.0457V3.95424C7.33325 3.55036 7.33325 3.34842 7.25339 3.25491C7.18409 3.17378 7.08014 3.13072 6.97377 3.13909C6.85117 3.14874 6.70838 3.29153 6.4228 3.57711Z" stroke="black" stroke-width="1.33" stroke-linecap="round" stroke-linejoin="round"/>
</svg>
