<svg width="16" height="16" viewBox="0 0 16 16" fill="none" xmlns="http://www.w3.org/2000/svg">
<path d="M12.1634 5.33333C12.6907 6.08921 12.9999 7.00849 12.9999 7.99999C12.9999 8.99149 12.6907 9.91077 12.1634 10.6667M8.08954 3.57711L5.97909 5.68757C5.86379 5.80287 5.80613 5.86052 5.73886 5.90175C5.67921 5.9383 5.61418 5.96524 5.54615 5.98157C5.46943 5.99999 5.3879 5.99999 5.22484 5.99999H4.06667C3.6933 5.99999 3.50661 5.99999 3.36401 6.07265C3.23856 6.13657 3.13658 6.23856 3.07266 6.364C3 6.50661 3 6.69329 3 7.06666V8.93333C3 9.30669 3 9.49338 3.07266 9.63599C3.13658 9.76143 3.23856 9.86341 3.36401 9.92733C3.50661 9.99999 3.6933 9.99999 4.06667 9.99999H5.22484C5.3879 9.99999 5.46943 9.99999 5.54615 10.0184C5.61418 10.0347 5.67921 10.0617 5.73886 10.0982C5.80613 10.1395 5.86379 10.1971 5.97909 10.3124L8.08954 12.4229C8.37513 12.7085 8.51792 12.8512 8.64051 12.8609C8.74689 12.8693 8.85084 12.8262 8.92014 12.7451C9 12.6516 9 12.4496 9 12.0457V3.95424C9 3.55036 9 3.34842 8.92014 3.25491C8.85084 3.17378 8.74689 3.13072 8.64051 3.13909C8.51792 3.14874 8.37513 3.29153 8.08954 3.57711Z" stroke="black" stroke-width="1.33" stroke-linecap="round" stroke-linejoin="round"/>
</svg>
