<svg width="16" height="16" viewBox="0 0 16 16" fill="none" xmlns="http://www.w3.org/2000/svg">
<path d="M12.6667 6.66675L3.33332 6.66675M12.6667 6.66675L13.9094 8.73803C14.1879 9.20223 14.3272 9.43434 14.3995 9.68418C14.4636 9.90558 14.489 10.1364 14.4744 10.3664C14.458 10.626 14.3724 10.8828 14.2012 11.3963L14.0627 11.812C13.8004 12.5988 13.6693 12.9922 13.426 13.2831C13.2112 13.5399 12.9354 13.7388 12.6238 13.8613C12.271 14.0001 11.8563 14.0001 11.0269 14.0001L4.97308 14.0001C4.1437 14.0001 3.72901 14.0001 3.37616 13.8613C3.06457 13.7388 2.78873 13.5399 2.57394 13.2831C2.33071 12.9922 2.19957 12.5988 1.9373 11.812L1.79874 11.3963C1.62755 10.8828 1.54196 10.626 1.52556 10.3664C1.51102 10.1364 1.53636 9.90557 1.60045 9.68418C1.67277 9.43433 1.81203 9.20223 2.09055 8.73803L3.33332 6.66675M12.6667 6.66675L12.9448 5.69312C13.0767 5.23153 13.1427 5.00073 13.0909 4.81813C13.0455 4.65818 12.942 4.52096 12.8006 4.43339C12.6393 4.33341 12.3993 4.33341 11.9192 4.33341L4.08077 4.33341C3.6007 4.33341 3.36067 4.33341 3.19933 4.43339C3.058 4.52096 2.95449 4.65818 2.90912 4.81813C2.85732 5.00073 2.92326 5.23153 3.05514 5.69312L3.33332 6.66675M7.99999 4.33341H5.64284C5.29554 4.33341 4.96246 4.19294 4.71687 3.94289C4.47129 3.69284 4.33332 3.3537 4.33332 3.00008C4.33332 2.64646 4.47129 2.30732 4.71687 2.05727C4.96246 1.80722 5.29554 1.66675 5.64284 1.66675C7.47618 1.66675 7.99999 4.33341 7.99999 4.33341ZM7.99999 4.33341H10.3571C10.7044 4.33341 11.0375 4.19294 11.2831 3.94289C11.5287 3.69284 11.6667 3.3537 11.6667 3.00008C11.6667 2.64646 11.5287 2.30732 11.2831 2.05727C11.0375 1.80722 10.7044 1.66675 10.3571 1.66675C8.5238 1.66675 7.99999 4.33341 7.99999 4.33341Z" stroke="black" stroke-width="1.33" stroke-linecap="round" stroke-linejoin="round"/>
</svg>
