<svg width="16" height="16" viewBox="0 0 16 16" fill="none" xmlns="http://www.w3.org/2000/svg">
<path d="M14.6667 5.66675H1.33334M1.33334 8.33341H3.69779C4.05792 8.33341 4.23799 8.33341 4.4121 8.36445C4.56665 8.392 4.71741 8.43765 4.86128 8.50045C5.02337 8.57121 5.17319 8.67109 5.47283 8.87085L5.86052 9.12931C6.16016 9.32907 6.30998 9.42895 6.47207 9.49971C6.61594 9.56252 6.76671 9.60816 6.92125 9.63571C7.09537 9.66675 7.27543 9.66675 7.63556 9.66675H8.36446C8.72459 9.66675 8.90465 9.66675 9.07877 9.63571C9.23331 9.60816 9.38408 9.56252 9.52795 9.49971C9.69004 9.42895 9.83986 9.32907 10.1395 9.12931L10.5272 8.87085C10.8268 8.67109 10.9767 8.57121 11.1387 8.50045C11.2826 8.43765 11.4334 8.392 11.5879 8.36445C11.762 8.33341 11.9421 8.33341 12.3022 8.33341H14.6667M1.33334 4.80008L1.33334 11.2001C1.33334 11.9468 1.33334 12.3202 1.47867 12.6054C1.6065 12.8563 1.81047 13.0603 2.06136 13.1881C2.34657 13.3334 2.71994 13.3334 3.46668 13.3334L12.5333 13.3334C13.2801 13.3334 13.6534 13.3334 13.9387 13.1881C14.1895 13.0603 14.3935 12.8563 14.5214 12.6054C14.6667 12.3202 14.6667 11.9468 14.6667 11.2001V4.80008C14.6667 4.05335 14.6667 3.67998 14.5214 3.39476C14.3935 3.14388 14.1895 2.9399 13.9387 2.81207C13.6534 2.66675 13.2801 2.66675 12.5333 2.66675L3.46668 2.66675C2.71994 2.66675 2.34657 2.66675 2.06136 2.81207C1.81047 2.9399 1.6065 3.14388 1.47867 3.39476C1.33334 3.67998 1.33334 4.05334 1.33334 4.80008Z" stroke="black" stroke-width="1.33" stroke-linecap="round" stroke-linejoin="round"/>
</svg>
