<svg width="16" height="16" viewBox="0 0 16 16" fill="none" xmlns="http://www.w3.org/2000/svg">
<path d="M1.33337 3.99992C1.73337 4.33325 2.13337 4.66659 3.00004 4.66659C4.66671 4.66659 4.66671 3.33325 6.33337 3.33325C7.20004 3.33325 7.60004 3.66659 8.00004 3.99992C8.40004 4.33325 8.80004 4.66659 9.66671 4.66659C11.3334 4.66659 11.3334 3.33325 13 3.33325C13.8667 3.33325 14.2667 3.66659 14.6667 3.99992M1.33337 11.9999C1.73337 12.3333 2.13337 12.6666 3.00004 12.6666C4.66671 12.6666 4.66671 11.3333 6.33337 11.3333C7.20004 11.3333 7.60004 11.6666 8.00004 11.9999C8.40004 12.3333 8.80004 12.6666 9.66671 12.6666C11.3334 12.6666 11.3334 11.3333 13 11.3333C13.8667 11.3333 14.2667 11.6666 14.6667 11.9999M1.33337 7.99992C1.73337 8.33325 2.13337 8.66658 3.00004 8.66658C4.66671 8.66658 4.66671 7.33325 6.33337 7.33325C7.20004 7.33325 7.60004 7.66659 8.00004 7.99992C8.40004 8.33325 8.80004 8.66658 9.66671 8.66658C11.3334 8.66658 11.3334 7.33325 13 7.33325C13.8667 7.33325 14.2667 7.66659 14.6667 7.99992" stroke="black" stroke-width="1.33" stroke-linecap="round" stroke-linejoin="round"/>
</svg>
