<svg width="16" height="16" viewBox="0 0 16 16" fill="none" xmlns="http://www.w3.org/2000/svg">
<path d="M14.3875 4.7999C14.3155 4.51229 14.1689 4.24876 13.9624 4.03595C13.756 3.82313 13.4971 3.66856 13.2118 3.58785C12.1694 3.33331 7.99992 3.33331 7.99992 3.33331C7.99992 3.33331 3.83044 3.33331 2.78807 3.61209C2.50278 3.6928 2.24384 3.84737 2.03741 4.06019C1.83098 4.273 1.68436 4.53653 1.61237 4.82414C1.4216 5.882 1.32829 6.95513 1.3336 8.03004C1.3268 9.11304 1.42012 10.1944 1.61237 11.2602C1.69174 11.5389 1.84164 11.7924 2.04759 11.9962C2.25354 12.2 2.50858 12.3473 2.78807 12.4238C3.83044 12.7025 7.99992 12.7025 7.99992 12.7025C7.99992 12.7025 12.1694 12.7025 13.2118 12.4238C13.4971 12.343 13.756 12.1885 13.9624 11.9756C14.1689 11.7628 14.3155 11.4993 14.3875 11.2117C14.5768 10.1618 14.6701 9.09685 14.6662 8.03004C14.673 6.94704 14.5797 5.86573 14.3875 4.7999Z" stroke="black" stroke-width="1.33" stroke-linecap="round" stroke-linejoin="round"/>
<path d="M6.49992 6.3102C6.49992 5.99201 6.49992 5.83292 6.56641 5.7441C6.62436 5.6667 6.71306 5.61827 6.8095 5.61138C6.92017 5.60348 7.054 5.68951 7.32166 5.86157L9.9502 7.55135C10.1825 7.70066 10.2986 7.77531 10.3387 7.87024C10.3737 7.95318 10.3737 8.04678 10.3387 8.12972C10.2986 8.22465 10.1825 8.2993 9.9502 8.44861L7.32166 10.1384C7.054 10.3105 6.92017 10.3965 6.8095 10.3886C6.71306 10.3817 6.62436 10.3333 6.56641 10.2559C6.49992 10.167 6.49992 10.0079 6.49992 9.68976V6.3102Z" stroke="black" stroke-width="1.33" stroke-linecap="round" stroke-linejoin="round"/>
</svg>
